<svg width="1437" height="1024" viewBox="0 0 1437 1024" fill="none" xmlns="http://www.w3.org/2000/svg">
<mask id="mask0" mask-type="alpha" maskUnits="userSpaceOnUse" x="0" y="0" width="1437" height="1024">
<rect width="1437" height="1024" fill="#FAFAFA"/>
</mask>
<g mask="url(#mask0)">
<g filter="url(#filter0_d)">
<circle cx="12.1731" cy="436.827" r="2" transform="rotate(-90 12.1731 436.827)" stroke="#E7E7EE" stroke-opacity="0.49" stroke-width="2.34615"/>
<circle cx="12.1731" cy="422.404" r="2" transform="rotate(-90 12.1731 422.404)" stroke="#E7E7EE" stroke-opacity="0.49" stroke-width="2.34615"/>
<circle cx="25.8752" cy="436.827" r="2" transform="rotate(-90 25.8752 436.827)" stroke="#E7E7EE" stroke-opacity="0.49" stroke-width="2.34615"/>
<circle cx="25.8752" cy="422.404" r="2" transform="rotate(-90 25.8752 422.404)" stroke="#E7E7EE" stroke-opacity="0.49" stroke-width="2.34615"/>
<circle cx="41.0193" cy="436.827" r="2" transform="rotate(-90 41.0193 436.827)" stroke="#E7E7EE" stroke-opacity="0.49" stroke-width="2.34615"/>
<circle cx="41.0193" cy="422.404" r="2" transform="rotate(-90 41.0193 422.404)" stroke="#E7E7EE" stroke-opacity="0.49" stroke-width="2.34615"/>
<circle cx="56.1633" cy="436.827" r="2" transform="rotate(-90 56.1633 436.827)" stroke="#E7E7EE" stroke-opacity="0.49" stroke-width="2.34615"/>
<circle cx="56.1633" cy="422.404" r="2" transform="rotate(-90 56.1633 422.404)" stroke="#E7E7EE" stroke-opacity="0.49" stroke-width="2.34615"/>
<circle cx="71.3078" cy="436.827" r="2" transform="rotate(-90 71.3078 436.827)" stroke="#E7E7EE" stroke-opacity="0.49" stroke-width="2.34615"/>
<circle cx="71.3078" cy="422.404" r="2" transform="rotate(-90 71.3078 422.404)" stroke="#E7E7EE" stroke-opacity="0.49" stroke-width="2.34615"/>
<circle cx="86.4519" cy="436.827" r="2" transform="rotate(-90 86.4519 436.827)" stroke="#E7E7EE" stroke-opacity="0.49" stroke-width="2.34615"/>
<circle cx="86.4519" cy="422.404" r="2" transform="rotate(-90 86.4519 422.404)" stroke="#E7E7EE" stroke-opacity="0.49" stroke-width="2.34615"/>
<circle cx="12.1731" cy="407.981" r="2" transform="rotate(-90 12.1731 407.981)" stroke="#E7E7EE" stroke-opacity="0.49" stroke-width="2.34615"/>
<circle cx="12.1731" cy="393.558" r="2" transform="rotate(-90 12.1731 393.558)" stroke="#E7E7EE" stroke-opacity="0.49" stroke-width="2.34615"/>
<circle cx="25.8752" cy="407.981" r="2" transform="rotate(-90 25.8752 407.981)" stroke="#E7E7EE" stroke-opacity="0.49" stroke-width="2.34615"/>
<circle cx="25.8752" cy="393.558" r="2" transform="rotate(-90 25.8752 393.558)" stroke="#E7E7EE" stroke-opacity="0.49" stroke-width="2.34615"/>
<circle cx="41.0193" cy="407.981" r="2" transform="rotate(-90 41.0193 407.981)" stroke="#E7E7EE" stroke-opacity="0.49" stroke-width="2.34615"/>
<circle cx="41.0193" cy="393.558" r="2" transform="rotate(-90 41.0193 393.558)" stroke="#E7E7EE" stroke-opacity="0.49" stroke-width="2.34615"/>
<circle cx="56.1633" cy="407.981" r="2" transform="rotate(-90 56.1633 407.981)" stroke="#E7E7EE" stroke-opacity="0.49" stroke-width="2.34615"/>
<circle cx="56.1633" cy="393.558" r="2" transform="rotate(-90 56.1633 393.558)" stroke="#E7E7EE" stroke-opacity="0.49" stroke-width="2.34615"/>
<circle cx="71.3078" cy="407.981" r="2" transform="rotate(-90 71.3078 407.981)" stroke="#E7E7EE" stroke-opacity="0.49" stroke-width="2.34615"/>
<circle cx="71.3078" cy="393.558" r="2" transform="rotate(-90 71.3078 393.558)" stroke="#E7E7EE" stroke-opacity="0.49" stroke-width="2.34615"/>
<circle cx="86.4519" cy="407.981" r="2" transform="rotate(-90 86.4519 407.981)" stroke="#E7E7EE" stroke-opacity="0.49" stroke-width="2.34615"/>
<circle cx="86.4519" cy="393.558" r="2" transform="rotate(-90 86.4519 393.558)" stroke="#E7E7EE" stroke-opacity="0.49" stroke-width="2.34615"/>
<circle cx="12.1731" cy="379.135" r="2" transform="rotate(-90 12.1731 379.135)" stroke="#E7E7EE" stroke-opacity="0.49" stroke-width="2.34615"/>
<circle cx="12.1731" cy="364.712" r="2" transform="rotate(-90 12.1731 364.712)" stroke="#E7E7EE" stroke-opacity="0.49" stroke-width="2.34615"/>
<circle cx="25.8752" cy="379.135" r="2" transform="rotate(-90 25.8752 379.135)" stroke="#E7E7EE" stroke-opacity="0.49" stroke-width="2.34615"/>
<circle cx="25.8752" cy="364.712" r="2" transform="rotate(-90 25.8752 364.712)" stroke="#E7E7EE" stroke-opacity="0.49" stroke-width="2.34615"/>
<circle cx="41.0193" cy="379.135" r="2" transform="rotate(-90 41.0193 379.135)" stroke="#E7E7EE" stroke-opacity="0.49" stroke-width="2.34615"/>
<circle cx="41.0193" cy="364.712" r="2" transform="rotate(-90 41.0193 364.712)" stroke="#E7E7EE" stroke-opacity="0.49" stroke-width="2.34615"/>
<circle cx="56.1633" cy="379.135" r="2" transform="rotate(-90 56.1633 379.135)" stroke="#E7E7EE" stroke-opacity="0.49" stroke-width="2.34615"/>
<circle cx="56.1633" cy="364.712" r="2" transform="rotate(-90 56.1633 364.712)" stroke="#E7E7EE" stroke-opacity="0.49" stroke-width="2.34615"/>
<circle cx="71.3078" cy="379.135" r="2" transform="rotate(-90 71.3078 379.135)" stroke="#E7E7EE" stroke-opacity="0.49" stroke-width="2.34615"/>
<circle cx="71.3078" cy="364.712" r="2" transform="rotate(-90 71.3078 364.712)" stroke="#E7E7EE" stroke-opacity="0.49" stroke-width="2.34615"/>
<circle cx="86.4519" cy="379.135" r="2" transform="rotate(-90 86.4519 379.135)" stroke="#E7E7EE" stroke-opacity="0.49" stroke-width="2.34615"/>
<circle cx="86.4519" cy="364.712" r="2" transform="rotate(-90 86.4519 364.712)" stroke="#E7E7EE" stroke-opacity="0.49" stroke-width="2.34615"/>
<circle cx="12.1731" cy="350.288" r="2" transform="rotate(-90 12.1731 350.288)" stroke="#E7E7EE" stroke-opacity="0.49" stroke-width="2.34615"/>
<circle cx="12.1731" cy="335.865" r="2" transform="rotate(-90 12.1731 335.865)" stroke="#E7E7EE" stroke-opacity="0.49" stroke-width="2.34615"/>
<circle cx="25.8752" cy="350.288" r="2" transform="rotate(-90 25.8752 350.288)" stroke="#E7E7EE" stroke-opacity="0.49" stroke-width="2.34615"/>
<circle cx="25.8752" cy="335.865" r="2" transform="rotate(-90 25.8752 335.865)" stroke="#E7E7EE" stroke-opacity="0.49" stroke-width="2.34615"/>
<circle cx="41.0193" cy="350.288" r="2" transform="rotate(-90 41.0193 350.288)" stroke="#E7E7EE" stroke-opacity="0.49" stroke-width="2.34615"/>
<circle cx="41.0193" cy="335.865" r="2" transform="rotate(-90 41.0193 335.865)" stroke="#E7E7EE" stroke-opacity="0.49" stroke-width="2.34615"/>
<circle cx="56.1633" cy="350.288" r="2" transform="rotate(-90 56.1633 350.288)" stroke="#E7E7EE" stroke-opacity="0.49" stroke-width="2.34615"/>
<circle cx="56.1633" cy="335.865" r="2" transform="rotate(-90 56.1633 335.865)" stroke="#E7E7EE" stroke-opacity="0.49" stroke-width="2.34615"/>
<circle cx="71.3078" cy="350.288" r="2" transform="rotate(-90 71.3078 350.288)" stroke="#E7E7EE" stroke-opacity="0.49" stroke-width="2.34615"/>
<circle cx="71.3078" cy="335.865" r="2" transform="rotate(-90 71.3078 335.865)" stroke="#E7E7EE" stroke-opacity="0.49" stroke-width="2.34615"/>
<circle cx="86.4519" cy="350.288" r="2" transform="rotate(-90 86.4519 350.288)" stroke="#E7E7EE" stroke-opacity="0.49" stroke-width="2.34615"/>
<circle cx="86.4519" cy="335.865" r="2" transform="rotate(-90 86.4519 335.865)" stroke="#E7E7EE" stroke-opacity="0.49" stroke-width="2.34615"/>
<circle cx="12.1731" cy="321.442" r="2" transform="rotate(-90 12.1731 321.442)" stroke="#E7E7EE" stroke-opacity="0.49" stroke-width="2.34615"/>
<circle cx="12.1731" cy="307.019" r="2" transform="rotate(-90 12.1731 307.019)" stroke="#E7E7EE" stroke-opacity="0.49" stroke-width="2.34615"/>
<circle cx="25.8752" cy="321.442" r="2" transform="rotate(-90 25.8752 321.442)" stroke="#E7E7EE" stroke-opacity="0.49" stroke-width="2.34615"/>
<circle cx="25.8752" cy="307.019" r="2" transform="rotate(-90 25.8752 307.019)" stroke="#E7E7EE" stroke-opacity="0.49" stroke-width="2.34615"/>
<circle cx="41.0193" cy="321.442" r="2" transform="rotate(-90 41.0193 321.442)" stroke="#E7E7EE" stroke-opacity="0.49" stroke-width="2.34615"/>
<circle cx="41.0193" cy="307.019" r="2" transform="rotate(-90 41.0193 307.019)" stroke="#E7E7EE" stroke-opacity="0.49" stroke-width="2.34615"/>
<circle cx="56.1633" cy="321.442" r="2" transform="rotate(-90 56.1633 321.442)" stroke="#E7E7EE" stroke-opacity="0.49" stroke-width="2.34615"/>
<circle cx="56.1633" cy="307.019" r="2" transform="rotate(-90 56.1633 307.019)" stroke="#E7E7EE" stroke-opacity="0.49" stroke-width="2.34615"/>
<circle cx="71.3078" cy="321.442" r="2" transform="rotate(-90 71.3078 321.442)" stroke="#E7E7EE" stroke-opacity="0.49" stroke-width="2.34615"/>
<circle cx="71.3078" cy="307.019" r="2" transform="rotate(-90 71.3078 307.019)" stroke="#E7E7EE" stroke-opacity="0.49" stroke-width="2.34615"/>
<circle cx="86.4519" cy="321.442" r="2" transform="rotate(-90 86.4519 321.442)" stroke="#E7E7EE" stroke-opacity="0.49" stroke-width="2.34615"/>
<circle cx="86.4519" cy="307.019" r="2" transform="rotate(-90 86.4519 307.019)" stroke="#E7E7EE" stroke-opacity="0.49" stroke-width="2.34615"/>
<circle cx="12.1731" cy="292.596" r="2" transform="rotate(-90 12.1731 292.596)" stroke="#E7E7EE" stroke-opacity="0.49" stroke-width="2.34615"/>
<circle cx="12.1731" cy="278.173" r="2" transform="rotate(-90 12.1731 278.173)" stroke="#E7E7EE" stroke-opacity="0.49" stroke-width="2.34615"/>
<circle cx="25.8752" cy="292.596" r="2" transform="rotate(-90 25.8752 292.596)" stroke="#E7E7EE" stroke-opacity="0.49" stroke-width="2.34615"/>
<circle cx="25.8752" cy="278.173" r="2" transform="rotate(-90 25.8752 278.173)" stroke="#E7E7EE" stroke-opacity="0.49" stroke-width="2.34615"/>
<circle cx="41.0193" cy="292.596" r="2" transform="rotate(-90 41.0193 292.596)" stroke="#E7E7EE" stroke-opacity="0.49" stroke-width="2.34615"/>
<circle cx="41.0193" cy="278.173" r="2" transform="rotate(-90 41.0193 278.173)" stroke="#E7E7EE" stroke-opacity="0.49" stroke-width="2.34615"/>
<circle cx="56.1633" cy="292.596" r="2" transform="rotate(-90 56.1633 292.596)" stroke="#E7E7EE" stroke-opacity="0.49" stroke-width="2.34615"/>
<circle cx="56.1633" cy="278.173" r="2" transform="rotate(-90 56.1633 278.173)" stroke="#E7E7EE" stroke-opacity="0.49" stroke-width="2.34615"/>
<circle cx="71.3078" cy="292.596" r="2" transform="rotate(-90 71.3078 292.596)" stroke="#E7E7EE" stroke-opacity="0.49" stroke-width="2.34615"/>
<circle cx="71.3078" cy="278.173" r="2" transform="rotate(-90 71.3078 278.173)" stroke="#E7E7EE" stroke-opacity="0.49" stroke-width="2.34615"/>
<circle cx="86.4519" cy="292.596" r="2" transform="rotate(-90 86.4519 292.596)" stroke="#E7E7EE" stroke-opacity="0.49" stroke-width="2.34615"/>
<circle cx="86.4519" cy="278.173" r="2" transform="rotate(-90 86.4519 278.173)" stroke="#E7E7EE" stroke-opacity="0.49" stroke-width="2.34615"/>
</g>
<g filter="url(#filter1_d)">
<circle cx="1362.17" cy="56.8269" r="2" transform="rotate(-90 1362.17 56.8269)" stroke="#E7E7EE" stroke-opacity="0.49" stroke-width="2.34615"/>
<circle cx="1362.17" cy="42.4038" r="2" transform="rotate(-90 1362.17 42.4038)" stroke="#E7E7EE" stroke-opacity="0.49" stroke-width="2.34615"/>
<circle cx="1375.88" cy="56.8269" r="2" transform="rotate(-90 1375.88 56.8269)" stroke="#E7E7EE" stroke-opacity="0.49" stroke-width="2.34615"/>
<circle cx="1375.88" cy="42.4038" r="2" transform="rotate(-90 1375.88 42.4038)" stroke="#E7E7EE" stroke-opacity="0.49" stroke-width="2.34615"/>
<circle cx="1391.02" cy="56.8269" r="2" transform="rotate(-90 1391.02 56.8269)" stroke="#E7E7EE" stroke-opacity="0.49" stroke-width="2.34615"/>
<circle cx="1391.02" cy="42.4038" r="2" transform="rotate(-90 1391.02 42.4038)" stroke="#E7E7EE" stroke-opacity="0.49" stroke-width="2.34615"/>
<circle cx="1406.16" cy="56.8269" r="2" transform="rotate(-90 1406.16 56.8269)" stroke="#E7E7EE" stroke-opacity="0.49" stroke-width="2.34615"/>
<circle cx="1406.16" cy="42.4038" r="2" transform="rotate(-90 1406.16 42.4038)" stroke="#E7E7EE" stroke-opacity="0.49" stroke-width="2.34615"/>
<circle cx="1421.31" cy="56.8269" r="2" transform="rotate(-90 1421.31 56.8269)" stroke="#E7E7EE" stroke-opacity="0.49" stroke-width="2.34615"/>
<circle cx="1421.31" cy="42.4038" r="2" transform="rotate(-90 1421.31 42.4038)" stroke="#E7E7EE" stroke-opacity="0.49" stroke-width="2.34615"/>
<circle cx="1436.45" cy="56.8269" r="2" transform="rotate(-90 1436.45 56.8269)" stroke="#E7E7EE" stroke-opacity="0.49" stroke-width="2.34615"/>
<circle cx="1436.45" cy="42.4038" r="2" transform="rotate(-90 1436.45 42.4038)" stroke="#E7E7EE" stroke-opacity="0.49" stroke-width="2.34615"/>
<circle cx="1362.17" cy="27.9808" r="2" transform="rotate(-90 1362.17 27.9808)" stroke="#E7E7EE" stroke-opacity="0.49" stroke-width="2.34615"/>
<circle cx="1362.17" cy="13.5577" r="2" transform="rotate(-90 1362.17 13.5577)" stroke="#E7E7EE" stroke-opacity="0.49" stroke-width="2.34615"/>
<circle cx="1375.88" cy="27.9808" r="2" transform="rotate(-90 1375.88 27.9808)" stroke="#E7E7EE" stroke-opacity="0.49" stroke-width="2.34615"/>
<circle cx="1375.88" cy="13.5577" r="2" transform="rotate(-90 1375.88 13.5577)" stroke="#E7E7EE" stroke-opacity="0.49" stroke-width="2.34615"/>
<circle cx="1391.02" cy="27.9808" r="2" transform="rotate(-90 1391.02 27.9808)" stroke="#E7E7EE" stroke-opacity="0.49" stroke-width="2.34615"/>
<circle cx="1391.02" cy="13.5577" r="2" transform="rotate(-90 1391.02 13.5577)" stroke="#E7E7EE" stroke-opacity="0.49" stroke-width="2.34615"/>
<circle cx="1406.16" cy="27.9808" r="2" transform="rotate(-90 1406.16 27.9808)" stroke="#E7E7EE" stroke-opacity="0.49" stroke-width="2.34615"/>
<circle cx="1406.16" cy="13.5577" r="2" transform="rotate(-90 1406.16 13.5577)" stroke="#E7E7EE" stroke-opacity="0.49" stroke-width="2.34615"/>
<circle cx="1421.31" cy="27.9808" r="2" transform="rotate(-90 1421.31 27.9808)" stroke="#E7E7EE" stroke-opacity="0.49" stroke-width="2.34615"/>
<circle cx="1421.31" cy="13.5577" r="2" transform="rotate(-90 1421.31 13.5577)" stroke="#E7E7EE" stroke-opacity="0.49" stroke-width="2.34615"/>
<circle cx="1436.45" cy="27.9808" r="2" transform="rotate(-90 1436.45 27.9808)" stroke="#E7E7EE" stroke-opacity="0.49" stroke-width="2.34615"/>
<circle cx="1436.45" cy="13.5577" r="2" transform="rotate(-90 1436.45 13.5577)" stroke="#E7E7EE" stroke-opacity="0.49" stroke-width="2.34615"/>
<circle cx="1362.17" cy="-0.865398" r="2" transform="rotate(-90 1362.17 -0.865398)" stroke="#E7E7EE" stroke-opacity="0.49" stroke-width="2.34615"/>
<circle cx="1375.88" cy="-0.865398" r="2" transform="rotate(-90 1375.88 -0.865398)" stroke="#E7E7EE" stroke-opacity="0.49" stroke-width="2.34615"/>
<circle cx="1391.02" cy="-0.865398" r="2" transform="rotate(-90 1391.02 -0.865398)" stroke="#E7E7EE" stroke-opacity="0.49" stroke-width="2.34615"/>
<circle cx="1406.16" cy="-0.865398" r="2" transform="rotate(-90 1406.16 -0.865398)" stroke="#E7E7EE" stroke-opacity="0.49" stroke-width="2.34615"/>
<circle cx="1421.31" cy="-0.865398" r="2" transform="rotate(-90 1421.31 -0.865398)" stroke="#E7E7EE" stroke-opacity="0.49" stroke-width="2.34615"/>
<circle cx="1436.45" cy="-0.865398" r="2" transform="rotate(-90 1436.45 -0.865398)" stroke="#E7E7EE" stroke-opacity="0.49" stroke-width="2.34615"/>
</g>
<g filter="url(#filter2_d)">
<circle cx="1280.44" cy="887.009" r="2" stroke="#E7E7EE" stroke-opacity="0.49" stroke-width="2.88193"/>
<circle cx="1296.08" cy="887.009" r="2" stroke="#E7E7EE" stroke-opacity="0.49" stroke-width="2.88193"/>
<circle cx="1280.44" cy="901.868" r="2" stroke="#E7E7EE" stroke-opacity="0.49" stroke-width="2.88193"/>
<circle cx="1296.08" cy="901.868" r="2" stroke="#E7E7EE" stroke-opacity="0.49" stroke-width="2.88193"/>
<circle cx="1280.44" cy="918.291" r="2" stroke="#E7E7EE" stroke-opacity="0.49" stroke-width="2.88193"/>
<circle cx="1296.08" cy="918.291" r="2" stroke="#E7E7EE" stroke-opacity="0.49" stroke-width="2.88193"/>
<circle cx="1280.44" cy="934.713" r="2" stroke="#E7E7EE" stroke-opacity="0.49" stroke-width="2.88193"/>
<circle cx="1296.08" cy="934.713" r="2" stroke="#E7E7EE" stroke-opacity="0.49" stroke-width="2.88193"/>
<circle cx="1280.44" cy="951.136" r="2" stroke="#E7E7EE" stroke-opacity="0.49" stroke-width="2.88193"/>
<circle cx="1296.08" cy="951.136" r="2" stroke="#E7E7EE" stroke-opacity="0.49" stroke-width="2.88193"/>
<circle cx="1280.44" cy="967.559" r="2" stroke="#E7E7EE" stroke-opacity="0.49" stroke-width="2.88193"/>
<circle cx="1296.08" cy="967.559" r="2" stroke="#E7E7EE" stroke-opacity="0.49" stroke-width="2.88193"/>
<circle cx="1311.72" cy="887.009" r="2" stroke="#E7E7EE" stroke-opacity="0.49" stroke-width="2.88193"/>
<circle cx="1327.36" cy="887.009" r="2" stroke="#E7E7EE" stroke-opacity="0.49" stroke-width="2.88193"/>
<circle cx="1311.72" cy="901.868" r="2" stroke="#E7E7EE" stroke-opacity="0.49" stroke-width="2.88193"/>
<circle cx="1327.36" cy="901.868" r="2" stroke="#E7E7EE" stroke-opacity="0.49" stroke-width="2.88193"/>
<circle cx="1311.72" cy="918.291" r="2" stroke="#E7E7EE" stroke-opacity="0.49" stroke-width="2.88193"/>
<circle cx="1327.36" cy="918.291" r="2" stroke="#E7E7EE" stroke-opacity="0.49" stroke-width="2.88193"/>
<circle cx="1311.72" cy="934.713" r="2" stroke="#E7E7EE" stroke-opacity="0.49" stroke-width="2.88193"/>
<circle cx="1327.36" cy="934.713" r="2" stroke="#E7E7EE" stroke-opacity="0.49" stroke-width="2.88193"/>
<circle cx="1311.72" cy="951.136" r="2" stroke="#E7E7EE" stroke-opacity="0.49" stroke-width="2.88193"/>
<circle cx="1327.36" cy="951.136" r="2" stroke="#E7E7EE" stroke-opacity="0.49" stroke-width="2.88193"/>
<circle cx="1311.72" cy="967.559" r="2" stroke="#E7E7EE" stroke-opacity="0.49" stroke-width="2.88193"/>
<circle cx="1327.36" cy="967.559" r="2" stroke="#E7E7EE" stroke-opacity="0.49" stroke-width="2.88193"/>
<circle cx="1343" cy="887.009" r="2" stroke="#E7E7EE" stroke-opacity="0.49" stroke-width="2.88193"/>
<circle cx="1358.64" cy="887.009" r="2" stroke="#E7E7EE" stroke-opacity="0.49" stroke-width="2.88193"/>
<circle cx="1343" cy="901.868" r="2" stroke="#E7E7EE" stroke-opacity="0.49" stroke-width="2.88193"/>
<circle cx="1358.64" cy="901.868" r="2" stroke="#E7E7EE" stroke-opacity="0.49" stroke-width="2.88193"/>
<circle cx="1343" cy="918.291" r="2" stroke="#E7E7EE" stroke-opacity="0.49" stroke-width="2.88193"/>
<circle cx="1358.64" cy="918.291" r="2" stroke="#E7E7EE" stroke-opacity="0.49" stroke-width="2.88193"/>
<circle cx="1343" cy="934.713" r="2" stroke="#E7E7EE" stroke-opacity="0.49" stroke-width="2.88193"/>
<circle cx="1358.64" cy="934.713" r="2" stroke="#E7E7EE" stroke-opacity="0.49" stroke-width="2.88193"/>
<circle cx="1343" cy="951.136" r="2" stroke="#E7E7EE" stroke-opacity="0.49" stroke-width="2.88193"/>
<circle cx="1358.64" cy="951.136" r="2" stroke="#E7E7EE" stroke-opacity="0.49" stroke-width="2.88193"/>
<circle cx="1343" cy="967.559" r="2" stroke="#E7E7EE" stroke-opacity="0.49" stroke-width="2.88193"/>
<circle cx="1358.64" cy="967.559" r="2" stroke="#E7E7EE" stroke-opacity="0.49" stroke-width="2.88193"/>
<circle cx="1374.29" cy="887.009" r="2" stroke="#E7E7EE" stroke-opacity="0.49" stroke-width="2.88193"/>
<circle cx="1389.93" cy="887.009" r="2" stroke="#E7E7EE" stroke-opacity="0.49" stroke-width="2.88193"/>
<circle cx="1374.29" cy="901.868" r="2" stroke="#E7E7EE" stroke-opacity="0.49" stroke-width="2.88193"/>
<circle cx="1389.93" cy="901.868" r="2" stroke="#E7E7EE" stroke-opacity="0.49" stroke-width="2.88193"/>
<circle cx="1374.29" cy="918.291" r="2" stroke="#E7E7EE" stroke-opacity="0.49" stroke-width="2.88193"/>
<circle cx="1389.93" cy="918.291" r="2" stroke="#E7E7EE" stroke-opacity="0.49" stroke-width="2.88193"/>
<circle cx="1374.29" cy="934.713" r="2" stroke="#E7E7EE" stroke-opacity="0.49" stroke-width="2.88193"/>
<circle cx="1389.93" cy="934.713" r="2" stroke="#E7E7EE" stroke-opacity="0.49" stroke-width="2.88193"/>
<circle cx="1374.29" cy="951.136" r="2" stroke="#E7E7EE" stroke-opacity="0.49" stroke-width="2.88193"/>
<circle cx="1389.93" cy="951.136" r="2" stroke="#E7E7EE" stroke-opacity="0.49" stroke-width="2.88193"/>
<circle cx="1374.29" cy="967.559" r="2" stroke="#E7E7EE" stroke-opacity="0.49" stroke-width="2.88193"/>
<circle cx="1389.93" cy="967.559" r="2" stroke="#E7E7EE" stroke-opacity="0.49" stroke-width="2.88193"/>
<circle cx="1405.57" cy="887.009" r="2" stroke="#E7E7EE" stroke-opacity="0.49" stroke-width="2.88193"/>
<circle cx="1421.21" cy="887.009" r="2" stroke="#E7E7EE" stroke-opacity="0.49" stroke-width="2.88193"/>
<circle cx="1405.57" cy="901.868" r="2" stroke="#E7E7EE" stroke-opacity="0.49" stroke-width="2.88193"/>
<circle cx="1421.21" cy="901.868" r="2" stroke="#E7E7EE" stroke-opacity="0.49" stroke-width="2.88193"/>
<circle cx="1405.57" cy="918.291" r="2" stroke="#E7E7EE" stroke-opacity="0.49" stroke-width="2.88193"/>
<circle cx="1421.21" cy="918.291" r="2" stroke="#E7E7EE" stroke-opacity="0.49" stroke-width="2.88193"/>
<circle cx="1405.57" cy="934.713" r="2" stroke="#E7E7EE" stroke-opacity="0.49" stroke-width="2.88193"/>
<circle cx="1421.21" cy="934.713" r="2" stroke="#E7E7EE" stroke-opacity="0.49" stroke-width="2.88193"/>
<circle cx="1405.57" cy="951.136" r="2" stroke="#E7E7EE" stroke-opacity="0.49" stroke-width="2.88193"/>
<circle cx="1421.21" cy="951.136" r="2" stroke="#E7E7EE" stroke-opacity="0.49" stroke-width="2.88193"/>
<circle cx="1405.57" cy="967.559" r="2" stroke="#E7E7EE" stroke-opacity="0.49" stroke-width="2.88193"/>
<circle cx="1421.21" cy="967.559" r="2" stroke="#E7E7EE" stroke-opacity="0.49" stroke-width="2.88193"/>
<circle cx="1436.85" cy="887.009" r="2" stroke="#E7E7EE" stroke-opacity="0.49" stroke-width="2.88193"/>
<circle cx="1436.85" cy="901.868" r="2" stroke="#E7E7EE" stroke-opacity="0.49" stroke-width="2.88193"/>
<circle cx="1436.85" cy="918.291" r="2" stroke="#E7E7EE" stroke-opacity="0.49" stroke-width="2.88193"/>
<circle cx="1436.85" cy="934.713" r="2" stroke="#E7E7EE" stroke-opacity="0.49" stroke-width="2.88193"/>
<circle cx="1436.85" cy="951.136" r="2" stroke="#E7E7EE" stroke-opacity="0.49" stroke-width="2.88193"/>
<circle cx="1436.85" cy="967.559" r="2" stroke="#E7E7EE" stroke-opacity="0.49" stroke-width="2.88193"/>
</g>
<g filter="url(#filter3_d)">
<rect x="126.831" y="564.59" width="74" height="74" transform="rotate(17.4909 126.831 564.59)" stroke="#E7E7EE" stroke-opacity="0.15" stroke-width="4"/>
</g>
<g filter="url(#filter4_d)">
<rect x="1189.24" y="688.319" width="74" height="74" transform="rotate(26.3232 1189.24 688.319)" stroke="#E7E7EE" stroke-opacity="0.15" stroke-width="4"/>
</g>
<g filter="url(#filter5_d)">
<rect x="504" y="794" width="35" height="35" stroke="#E7E7EE" stroke-opacity="0.15" stroke-width="4"/>
</g>
<g filter="url(#filter6_d)">
<rect x="931.958" y="680.496" width="35" height="35" rx="17.5" transform="rotate(26.3232 931.958 680.496)" stroke="#E7E7EE" stroke-opacity="0.15" stroke-width="4"/>
</g>
<g filter="url(#filter7_d)">
<path d="M1351.97 541.331C1353.58 543.139 1356.41 543.139 1358.02 541.331L1366.01 532.356C1366.78 531.494 1367.88 531 1369.04 531H1369.58C1373.12 531 1374.96 535.213 1372.54 537.798L1363.88 547.08C1362.43 548.635 1362.44 551.048 1363.89 552.599L1372.9 562.193C1375.32 564.775 1373.49 569 1369.94 569H1369.31C1368.16 569 1367.06 568.511 1366.29 567.655L1358 558.418C1356.4 556.627 1353.59 556.625 1351.98 558.414L1343.65 567.66C1342.89 568.513 1341.79 569 1340.64 569H1340.06C1336.51 569 1334.68 564.771 1337.11 562.19L1346.12 552.603C1347.58 551.05 1347.59 548.633 1346.13 547.076L1337.46 537.801C1335.04 535.217 1336.88 531 1340.42 531H1340.95C1342.1 531 1343.21 531.494 1343.97 532.356L1351.97 541.331Z" fill="#E7E7EE" fill-opacity="0.15"/>
<path d="M1346.13 547.076L1337.46 537.801C1335.04 535.217 1336.88 531 1340.42 531H1340.95C1342.1 531 1343.21 531.494 1343.97 532.356L1351.97 541.331C1353.58 543.139 1356.41 543.139 1358.02 541.331L1366.01 532.356C1366.78 531.494 1367.88 531 1369.04 531H1369.58C1373.12 531 1374.96 535.213 1372.54 537.798L1363.88 547.08C1362.43 548.635 1362.44 551.048 1363.89 552.599L1372.9 562.193C1375.32 564.775 1373.49 569 1369.94 569H1369.31C1368.16 569 1367.06 568.511 1366.29 567.655L1358 558.418C1356.4 556.627 1353.59 556.625 1351.98 558.414L1343.65 567.66C1342.89 568.513 1341.79 569 1340.64 569H1340.06C1336.51 569 1334.68 564.771 1337.11 562.19L1346.12 552.603C1347.58 551.05 1347.59 548.633 1346.13 547.076ZM1359.51 542.661L1367.51 533.686C1367.89 533.25 1368.45 533 1369.04 533H1369.58C1371.38 533 1372.3 535.132 1371.08 536.434L1362.42 545.715C1360.25 548.041 1360.26 551.649 1362.43 553.968L1371.44 563.562C1372.66 564.862 1371.74 567 1369.94 567H1369.31C1368.72 567 1368.17 566.752 1367.78 566.319L1359.49 557.083C1357.09 554.406 1352.9 554.403 1350.49 557.075L1342.17 566.322C1341.78 566.753 1341.22 567 1340.64 567H1340.06C1338.26 567 1337.34 564.86 1338.56 563.56L1347.58 553.973C1349.76 551.652 1349.77 548.038 1347.59 545.71L1338.92 536.435C1337.7 535.134 1338.62 533 1340.42 533H1340.95C1341.53 533 1342.09 533.25 1342.48 533.686L1350.47 542.661C1352.88 545.362 1357.11 545.362 1359.51 542.661Z" stroke="#E7E7EE" stroke-opacity="0.15" stroke-width="4"/>
</g>
<g filter="url(#filter8_d)">
<path d="M289 680.77C289.342 683.199 291.727 684.789 294.1 684.17L305.878 681.097C307.01 680.802 308.215 681.005 309.19 681.654L309.648 681.96C312.63 683.948 311.811 688.53 308.326 689.353L295.814 692.31C293.716 692.805 292.364 694.841 292.72 696.966L294.918 710.11C295.51 713.647 291.591 716.177 288.604 714.186L288.069 713.829C287.099 713.183 286.45 712.154 286.283 711.002L284.488 698.561C284.139 696.148 281.773 694.568 279.411 695.171L267.202 698.287C266.076 698.574 264.88 698.37 263.912 697.724L263.419 697.396C260.43 695.404 261.262 690.81 264.758 689.999L277.744 686.986C279.846 686.498 281.208 684.463 280.855 682.334L278.757 669.645C278.173 666.11 282.089 663.587 285.072 665.576L285.519 665.874C286.493 666.523 287.144 667.558 287.307 668.716L289 680.77Z" fill="#E7E7EE" fill-opacity="0.15"/>
<path d="M294.605 686.105L306.383 683.033C306.962 682.881 307.58 682.985 308.08 683.318L308.539 683.624C310.071 684.646 309.643 686.987 307.866 687.407L295.354 690.363C292.231 691.101 290.218 694.132 290.747 697.296L292.945 710.44C293.247 712.243 291.248 713.545 289.714 712.522L289.178 712.165C288.68 711.833 288.348 711.306 288.263 710.716L286.467 698.276C285.949 694.686 282.431 692.337 278.917 693.233L266.708 696.349C266.131 696.496 265.518 696.392 265.021 696.06L264.528 695.732C262.992 694.708 263.427 692.361 265.21 691.947L278.196 688.935C281.326 688.208 283.353 685.178 282.829 682.007L280.73 669.319C280.432 667.516 282.43 666.218 283.963 667.24L284.409 667.538C284.91 667.871 285.243 668.402 285.326 668.995L287.02 681.048C287.528 684.661 291.074 687.026 294.605 686.105Z" stroke="#E7E7EE" stroke-opacity="0.15" stroke-width="4"/>
</g>
<g filter="url(#filter9_d)">
<path d="M1326.37 325.651L1328.56 284.824L1362.82 307.131L1326.37 325.651Z" stroke="#E7E7EE" stroke-opacity="0.15" stroke-width="5"/>
</g>
<g filter="url(#filter10_d)">
<path d="M197.901 325.305L232.506 335.187L206.645 360.215L197.901 325.305Z" stroke="#E7E7EE" stroke-opacity="0.15" stroke-width="5"/>
</g>
</g>
<defs>
<filter id="filter0_d" x="0" y="266" width="98.625" height="183" filterUnits="userSpaceOnUse" color-interpolation-filters="sRGB">
<feFlood flood-opacity="0" result="BackgroundImageFix"/>
<feColorMatrix in="SourceAlpha" type="matrix" values="0 0 0 0 0 0 0 0 0 0 0 0 0 0 0 0 0 0 127 0"/>
<feOffset/>
<feGaussianBlur stdDeviation="4.5"/>
<feColorMatrix type="matrix" values="0 0 0 0 0.905882 0 0 0 0 0.905882 0 0 0 0 0.933333 0 0 0 0.44 0"/>
<feBlend mode="normal" in2="BackgroundImageFix" result="effect1_dropShadow"/>
<feBlend mode="normal" in="SourceGraphic" in2="effect1_dropShadow" result="shape"/>
</filter>
<filter id="filter1_d" x="1350" y="-114" width="98.625" height="183" filterUnits="userSpaceOnUse" color-interpolation-filters="sRGB">
<feFlood flood-opacity="0" result="BackgroundImageFix"/>
<feColorMatrix in="SourceAlpha" type="matrix" values="0 0 0 0 0 0 0 0 0 0 0 0 0 0 0 0 0 0 127 0"/>
<feOffset/>
<feGaussianBlur stdDeviation="4.5"/>
<feColorMatrix type="matrix" values="0 0 0 0 0.905882 0 0 0 0 0.905882 0 0 0 0 0.933333 0 0 0 0.44 0"/>
<feBlend mode="normal" in2="BackgroundImageFix" result="effect1_dropShadow"/>
<feBlend mode="normal" in="SourceGraphic" in2="effect1_dropShadow" result="shape"/>
</filter>
<filter id="filter2_d" x="1268" y="874.568" width="196.93" height="105.432" filterUnits="userSpaceOnUse" color-interpolation-filters="sRGB">
<feFlood flood-opacity="0" result="BackgroundImageFix"/>
<feColorMatrix in="SourceAlpha" type="matrix" values="0 0 0 0 0 0 0 0 0 0 0 0 0 0 0 0 0 0 127 0"/>
<feOffset/>
<feGaussianBlur stdDeviation="4.5"/>
<feColorMatrix type="matrix" values="0 0 0 0 0.905882 0 0 0 0 0.905882 0 0 0 0 0.933333 0 0 0 0.44 0"/>
<feBlend mode="normal" in2="BackgroundImageFix" result="effect1_dropShadow"/>
<feBlend mode="normal" in="SourceGraphic" in2="effect1_dropShadow" result="shape"/>
</filter>
<filter id="filter3_d" x="93.0815" y="553.082" width="115.837" height="115.837" filterUnits="userSpaceOnUse" color-interpolation-filters="sRGB">
<feFlood flood-opacity="0" result="BackgroundImageFix"/>
<feColorMatrix in="SourceAlpha" type="matrix" values="0 0 0 0 0 0 0 0 0 0 0 0 0 0 0 0 0 0 127 0"/>
<feOffset/>
<feGaussianBlur stdDeviation="4.5"/>
<feColorMatrix type="matrix" values="0 0 0 0 0.905882 0 0 0 0 0.905882 0 0 0 0 0.933333 0 0 0 0.44 0"/>
<feBlend mode="normal" in2="BackgroundImageFix" result="effect1_dropShadow"/>
<feBlend mode="normal" in="SourceGraphic" in2="effect1_dropShadow" result="shape"/>
</filter>
<filter id="filter4_d" x="1144.74" y="676.64" width="122.5" height="122.5" filterUnits="userSpaceOnUse" color-interpolation-filters="sRGB">
<feFlood flood-opacity="0" result="BackgroundImageFix"/>
<feColorMatrix in="SourceAlpha" type="matrix" values="0 0 0 0 0 0 0 0 0 0 0 0 0 0 0 0 0 0 127 0"/>
<feOffset/>
<feGaussianBlur stdDeviation="4.5"/>
<feColorMatrix type="matrix" values="0 0 0 0 0.905882 0 0 0 0 0.905882 0 0 0 0 0.933333 0 0 0 0.44 0"/>
<feBlend mode="normal" in2="BackgroundImageFix" result="effect1_dropShadow"/>
<feBlend mode="normal" in="SourceGraphic" in2="effect1_dropShadow" result="shape"/>
</filter>
<filter id="filter5_d" x="493" y="783" width="57" height="57" filterUnits="userSpaceOnUse" color-interpolation-filters="sRGB">
<feFlood flood-opacity="0" result="BackgroundImageFix"/>
<feColorMatrix in="SourceAlpha" type="matrix" values="0 0 0 0 0 0 0 0 0 0 0 0 0 0 0 0 0 0 127 0"/>
<feOffset/>
<feGaussianBlur stdDeviation="4.5"/>
<feColorMatrix type="matrix" values="0 0 0 0 0.905882 0 0 0 0 0.905882 0 0 0 0 0.933333 0 0 0 0.44 0"/>
<feBlend mode="normal" in2="BackgroundImageFix" result="effect1_dropShadow"/>
<feBlend mode="normal" in="SourceGraphic" in2="effect1_dropShadow" result="shape"/>
</filter>
<filter id="filter6_d" x="904.758" y="668.816" width="70.2499" height="70.2499" filterUnits="userSpaceOnUse" color-interpolation-filters="sRGB">
<feFlood flood-opacity="0" result="BackgroundImageFix"/>
<feColorMatrix in="SourceAlpha" type="matrix" values="0 0 0 0 0 0 0 0 0 0 0 0 0 0 0 0 0 0 127 0"/>
<feOffset/>
<feGaussianBlur stdDeviation="4.5"/>
<feColorMatrix type="matrix" values="0 0 0 0 0.905882 0 0 0 0 0.905882 0 0 0 0 0.933333 0 0 0 0.44 0"/>
<feBlend mode="normal" in2="BackgroundImageFix" result="effect1_dropShadow"/>
<feBlend mode="normal" in="SourceGraphic" in2="effect1_dropShadow" result="shape"/>
</filter>
<filter id="filter7_d" x="1327" y="522" width="56" height="56" filterUnits="userSpaceOnUse" color-interpolation-filters="sRGB">
<feFlood flood-opacity="0" result="BackgroundImageFix"/>
<feColorMatrix in="SourceAlpha" type="matrix" values="0 0 0 0 0 0 0 0 0 0 0 0 0 0 0 0 0 0 127 0"/>
<feOffset/>
<feGaussianBlur stdDeviation="4.5"/>
<feColorMatrix type="matrix" values="0 0 0 0 0.905882 0 0 0 0 0.905882 0 0 0 0 0.933333 0 0 0 0.44 0"/>
<feBlend mode="normal" in2="BackgroundImageFix" result="effect1_dropShadow"/>
<feBlend mode="normal" in="SourceGraphic" in2="effect1_dropShadow" result="shape"/>
</filter>
<filter id="filter8_d" x="251" y="654.094" width="71.3718" height="71.3718" filterUnits="userSpaceOnUse" color-interpolation-filters="sRGB">
<feFlood flood-opacity="0" result="BackgroundImageFix"/>
<feColorMatrix in="SourceAlpha" type="matrix" values="0 0 0 0 0 0 0 0 0 0 0 0 0 0 0 0 0 0 127 0"/>
<feOffset/>
<feGaussianBlur stdDeviation="4.5"/>
<feColorMatrix type="matrix" values="0 0 0 0 0.905882 0 0 0 0 0.905882 0 0 0 0 0.933333 0 0 0 0.44 0"/>
<feBlend mode="normal" in2="BackgroundImageFix" result="effect1_dropShadow"/>
<feBlend mode="normal" in="SourceGraphic" in2="effect1_dropShadow" result="shape"/>
</filter>
<filter id="filter9_d" x="1295.21" y="260.145" width="81.6066" height="78.6956" filterUnits="userSpaceOnUse" color-interpolation-filters="sRGB">
<feFlood flood-opacity="0" result="BackgroundImageFix"/>
<feColorMatrix in="SourceAlpha" type="matrix" values="0 0 0 0 0 0 0 0 0 0 0 0 0 0 0 0 0 0 127 0"/>
<feOffset/>
<feGaussianBlur stdDeviation="4.5"/>
<feColorMatrix type="matrix" values="0 0 0 0 0.905882 0 0 0 0 0.905882 0 0 0 0 0.933333 0 0 0 0.44 0"/>
<feBlend mode="normal" in2="BackgroundImageFix" result="effect1_dropShadow"/>
<feBlend mode="normal" in="SourceGraphic" in2="effect1_dropShadow" result="shape"/>
</filter>
<filter id="filter10_d" x="185.423" y="303.317" width="66.3572" height="70.7063" filterUnits="userSpaceOnUse" color-interpolation-filters="sRGB">
<feFlood flood-opacity="0" result="BackgroundImageFix"/>
<feColorMatrix in="SourceAlpha" type="matrix" values="0 0 0 0 0 0 0 0 0 0 0 0 0 0 0 0 0 0 127 0"/>
<feOffset/>
<feGaussianBlur stdDeviation="4.5"/>
<feColorMatrix type="matrix" values="0 0 0 0 0.905882 0 0 0 0 0.905882 0 0 0 0 0.933333 0 0 0 0.44 0"/>
<feBlend mode="normal" in2="BackgroundImageFix" result="effect1_dropShadow"/>
<feBlend mode="normal" in="SourceGraphic" in2="effect1_dropShadow" result="shape"/>
</filter>
</defs>
</svg>
