<svg width="1348" height="569" viewBox="0 0 1348 569" fill="none" xmlns="http://www.w3.org/2000/svg">
<g opacity="0.4" filter="url(#filter0_d)">
<rect x="72.3533" y="216.786" width="74" height="74" transform="rotate(54.9325 72.3533 216.786)" stroke="#E7E7EE" stroke-opacity="0.15" stroke-width="4"/>
</g>
<g opacity="0.4" filter="url(#filter1_d)">
<rect x="348.079" y="511.417" width="32.6935" height="32.6935" transform="rotate(104.522 348.079 511.417)" stroke="#E7E7EE" stroke-opacity="0.15" stroke-width="4"/>
</g>
<g filter="url(#filter2_d)">
<rect x="156.433" y="16.786" width="35" height="35" rx="17.5" transform="rotate(54.9325 156.433 16.786)" stroke="#E7E7EE" stroke-opacity="0.15" stroke-width="4"/>
</g>
<g opacity="0.7" filter="url(#filter3_d)">
<path d="M466.798 25.7273C467.346 28.0861 469.83 29.4413 472.11 28.6249L483.425 24.5735C484.512 24.184 485.715 24.278 486.73 24.8316L487.208 25.0923C490.315 26.7866 489.909 31.3643 486.554 32.4789L474.507 36.4807C472.488 37.1515 471.336 39.2712 471.871 41.3305L475.183 54.0646C476.074 57.4919 472.441 60.3228 469.33 58.6257L468.772 58.3216C467.762 57.7705 467.033 56.816 466.769 55.6969L463.915 43.6191C463.362 41.2766 460.897 39.9296 458.626 40.729L446.892 44.8606C445.809 45.2418 444.615 45.1453 443.606 44.5953L443.093 44.3152C439.979 42.6171 440.395 38.0267 443.763 36.9234L456.271 32.8251C458.296 32.1615 459.457 30.0411 458.924 27.9775L455.751 15.6818C454.867 12.2564 458.498 9.43262 461.606 11.128L462.071 11.3817C463.086 11.9354 463.817 12.8959 464.078 14.0212L466.798 25.7273Z" fill="#E7E7EE" fill-opacity="0.15"/>
<path d="M464.85 26.18C465.668 29.7036 469.379 31.7274 472.784 30.5079L484.099 26.4564C484.649 26.2595 485.258 26.3067 485.773 26.5874L486.251 26.8481C487.828 27.7082 487.613 30.0196 485.924 30.5809L473.877 34.5827C470.858 35.5855 469.135 38.7553 469.936 41.8338L473.247 54.568C473.696 56.2939 471.867 57.7314 470.288 56.8699L469.73 56.5658C469.218 56.2863 468.849 55.8028 468.715 55.237L465.861 43.1591C465.035 39.6599 461.354 37.6484 457.962 38.8425L446.227 42.9741C445.68 43.1668 445.075 43.1183 444.564 42.8394L444.05 42.5594C442.47 41.6973 442.69 39.3796 444.385 38.824L456.893 34.7257C459.921 33.7337 461.657 30.5628 460.861 27.4777L457.688 15.1821C457.242 13.4571 459.07 12.0231 460.648 12.8838L461.113 13.1375C461.628 13.4182 461.998 13.9049 462.13 14.4738L464.85 26.18Z" stroke="#E7E7EE" stroke-opacity="0.15" stroke-width="4"/>
</g>
<g opacity="0.7" filter="url(#filter4_d)">
<path d="M929.075 538.747C929.418 540.224 930.974 541.073 932.402 540.562L939.489 538.024C940.17 537.78 940.923 537.839 941.559 538.186L941.858 538.349C943.804 539.41 943.55 542.278 941.448 542.976L933.903 545.482C932.639 545.902 931.917 547.23 932.253 548.519L934.327 556.495C934.885 558.642 932.61 560.415 930.661 559.352L930.312 559.161C929.679 558.816 929.222 558.218 929.057 557.517L927.269 549.953C926.923 548.486 925.379 547.642 923.957 548.143L916.607 550.73C915.929 550.969 915.181 550.909 914.55 550.564L914.228 550.389C912.278 549.325 912.539 546.45 914.648 545.759L922.482 543.192C923.75 542.777 924.477 541.449 924.144 540.156L922.156 532.455C921.603 530.31 923.876 528.542 925.823 529.603L926.115 529.762C926.75 530.109 927.208 530.711 927.371 531.415L929.075 538.747Z" fill="#E7E7EE" fill-opacity="0.15"/>
<path d="M927.127 539.2C927.741 541.842 930.523 543.359 933.076 542.445L940.163 539.907C940.306 539.856 940.466 539.868 940.601 539.942L940.901 540.105C941.317 540.332 941.254 540.933 940.818 541.078L933.273 543.584C931.009 544.336 929.717 546.714 930.317 549.023L932.391 556.998C932.507 557.444 932.035 557.823 931.618 557.596L931.269 557.405C931.135 557.332 931.038 557.205 931.003 557.057L929.216 549.493C928.596 546.869 925.836 545.361 923.293 546.256L915.943 548.844C915.8 548.894 915.642 548.882 915.507 548.808L915.186 548.633C914.769 548.406 914.833 547.803 915.27 547.66L923.104 545.093C925.375 544.349 926.677 541.97 926.08 539.657L924.093 531.956C923.978 531.511 924.449 531.132 924.866 531.359L925.157 531.518C925.292 531.592 925.389 531.72 925.423 531.868L927.127 539.2Z" stroke="#E7E7EE" stroke-opacity="0.15" stroke-width="4"/>
</g>
<g opacity="0.4" filter="url(#filter5_d)">
<rect x="1336.29" y="491.988" width="49.1681" height="49.1681" transform="rotate(115.695 1336.29 491.988)" stroke="#E7E7EE" stroke-opacity="0.15" stroke-width="4"/>
</g>
<g opacity="0.4" filter="url(#filter6_d)">
<rect x="1045.39" y="16.4868" width="49.1681" height="49.1681" transform="rotate(84.0634 1045.39 16.4868)" stroke="#E7E7EE" stroke-opacity="0.15" stroke-width="4"/>
</g>
<g filter="url(#filter7_d)">
<rect x="1196.95" y="95.2147" width="22.5841" height="22.5841" rx="11.292" transform="rotate(115.695 1196.95 95.2147)" stroke="#E7E7EE" stroke-opacity="0.15" stroke-width="4"/>
</g>
<g opacity="0.7" filter="url(#filter8_d)">
<path d="M1295.79 270.156C1294.57 271.268 1294.59 273.197 1295.84 274.281L1302.02 279.662C1302.61 280.179 1302.95 280.926 1302.96 281.714L1302.97 282.085C1302.99 284.497 1300.14 285.78 1298.36 284.155L1291.96 278.322C1290.89 277.344 1289.25 277.365 1288.2 278.369L1281.73 284.578C1279.99 286.249 1277.1 285.031 1277.07 282.615L1277.06 282.182C1277.06 281.398 1277.38 280.647 1277.96 280.117L1284.19 274.398C1285.4 273.289 1285.38 271.375 1284.15 270.29L1277.79 264.686C1277.2 264.169 1276.86 263.427 1276.85 262.644L1276.85 262.245C1276.82 259.828 1279.69 258.547 1281.47 260.182L1288.07 266.258C1289.14 267.242 1290.78 267.226 1291.83 266.222L1298.09 260.241C1299.83 258.575 1302.72 259.794 1302.75 262.208L1302.75 262.569C1302.76 263.357 1302.43 264.111 1301.85 264.641L1295.79 270.156Z" fill="#E7E7EE" fill-opacity="0.15"/>
<path d="M1294.45 268.678C1292.34 270.594 1292.38 273.919 1294.53 275.789L1300.7 281.17L1302.02 279.662L1300.7 281.17C1300.87 281.312 1300.96 281.518 1300.96 281.736L1300.97 282.107C1300.97 282.777 1300.19 283.12 1299.7 282.678L1293.31 276.845C1291.46 275.157 1288.62 275.193 1286.82 276.926L1280.35 283.135C1279.87 283.589 1279.08 283.264 1279.07 282.593L1279.06 282.161C1279.06 281.943 1279.15 281.736 1279.31 281.591L1285.54 275.872C1287.63 273.96 1287.6 270.659 1285.47 268.789L1279.11 263.185C1278.95 263.043 1278.85 262.838 1278.85 262.622L1278.85 262.223C1278.84 261.552 1279.63 261.21 1280.11 261.654L1286.71 267.73C1288.56 269.428 1291.4 269.401 1293.22 267.668L1299.47 261.687C1299.95 261.234 1300.74 261.559 1300.75 262.23L1300.75 262.591C1300.76 262.809 1300.66 263.017 1300.5 263.162L1294.45 268.678Z" stroke="#E7E7EE" stroke-opacity="0.15" stroke-width="4"/>
</g>
<defs>
<filter id="filter0_d" x="0" y="205" width="126.655" height="126.655" filterUnits="userSpaceOnUse" color-interpolation-filters="sRGB">
<feFlood flood-opacity="0" result="BackgroundImageFix"/>
<feColorMatrix in="SourceAlpha" type="matrix" values="0 0 0 0 0 0 0 0 0 0 0 0 0 0 0 0 0 0 127 0"/>
<feOffset/>
<feGaussianBlur stdDeviation="4.5"/>
<feColorMatrix type="matrix" values="0 0 0 0 0.905882 0 0 0 0 0.905882 0 0 0 0 0.933333 0 0 0 0.44 0"/>
<feBlend mode="normal" in2="BackgroundImageFix" result="effect1_dropShadow"/>
<feBlend mode="normal" in="SourceGraphic" in2="effect1_dropShadow" result="shape"/>
</filter>
<filter id="filter1_d" x="296.794" y="491.781" width="62.7221" height="62.7221" filterUnits="userSpaceOnUse" color-interpolation-filters="sRGB">
<feFlood flood-opacity="0" result="BackgroundImageFix"/>
<feColorMatrix in="SourceAlpha" type="matrix" values="0 0 0 0 0 0 0 0 0 0 0 0 0 0 0 0 0 0 127 0"/>
<feOffset/>
<feGaussianBlur stdDeviation="4.5"/>
<feColorMatrix type="matrix" values="0 0 0 0 0.905882 0 0 0 0 0.905882 0 0 0 0 0.933333 0 0 0 0.44 0"/>
<feBlend mode="normal" in2="BackgroundImageFix" result="effect1_dropShadow"/>
<feBlend mode="normal" in="SourceGraphic" in2="effect1_dropShadow" result="shape"/>
</filter>
<filter id="filter2_d" x="116" y="5" width="72.3276" height="72.3276" filterUnits="userSpaceOnUse" color-interpolation-filters="sRGB">
<feFlood flood-opacity="0" result="BackgroundImageFix"/>
<feColorMatrix in="SourceAlpha" type="matrix" values="0 0 0 0 0 0 0 0 0 0 0 0 0 0 0 0 0 0 127 0"/>
<feOffset/>
<feGaussianBlur stdDeviation="4.5"/>
<feColorMatrix type="matrix" values="0 0 0 0 0.905882 0 0 0 0 0.905882 0 0 0 0 0.933333 0 0 0 0.44 0"/>
<feBlend mode="normal" in2="BackgroundImageFix" result="effect1_dropShadow"/>
<feBlend mode="normal" in="SourceGraphic" in2="effect1_dropShadow" result="shape"/>
</filter>
<filter id="filter3_d" x="430.531" y="0.012207" width="69.5561" height="69.5561" filterUnits="userSpaceOnUse" color-interpolation-filters="sRGB">
<feFlood flood-opacity="0" result="BackgroundImageFix"/>
<feColorMatrix in="SourceAlpha" type="matrix" values="0 0 0 0 0 0 0 0 0 0 0 0 0 0 0 0 0 0 127 0"/>
<feOffset/>
<feGaussianBlur stdDeviation="4.5"/>
<feColorMatrix type="matrix" values="0 0 0 0 0.905882 0 0 0 0 0.905882 0 0 0 0 0.933333 0 0 0 0.44 0"/>
<feBlend mode="normal" in2="BackgroundImageFix" result="effect1_dropShadow"/>
<feBlend mode="normal" in="SourceGraphic" in2="effect1_dropShadow" result="shape"/>
</filter>
<filter id="filter4_d" x="903.905" y="520.286" width="48.2759" height="48.383" filterUnits="userSpaceOnUse" color-interpolation-filters="sRGB">
<feFlood flood-opacity="0" result="BackgroundImageFix"/>
<feColorMatrix in="SourceAlpha" type="matrix" values="0 0 0 0 0 0 0 0 0 0 0 0 0 0 0 0 0 0 127 0"/>
<feOffset/>
<feGaussianBlur stdDeviation="4.5"/>
<feColorMatrix type="matrix" values="0 0 0 0 0.905882 0 0 0 0 0.905882 0 0 0 0 0.933333 0 0 0 0.44 0"/>
<feBlend mode="normal" in2="BackgroundImageFix" result="effect1_dropShadow"/>
<feBlend mode="normal" in="SourceGraphic" in2="effect1_dropShadow" result="shape"/>
</filter>
<filter id="filter5_d" x="1259" y="459" width="88.9634" height="88.9634" filterUnits="userSpaceOnUse" color-interpolation-filters="sRGB">
<feFlood flood-opacity="0" result="BackgroundImageFix"/>
<feColorMatrix in="SourceAlpha" type="matrix" values="0 0 0 0 0 0 0 0 0 0 0 0 0 0 0 0 0 0 127 0"/>
<feOffset/>
<feGaussianBlur stdDeviation="4.5"/>
<feColorMatrix type="matrix" values="0 0 0 0 0.905882 0 0 0 0 0.905882 0 0 0 0 0.933333 0 0 0 0.44 0"/>
<feBlend mode="normal" in2="BackgroundImageFix" result="effect1_dropShadow"/>
<feBlend mode="normal" in="SourceGraphic" in2="effect1_dropShadow" result="shape"/>
</filter>
<filter id="filter6_d" x="985.291" y="5.29065" width="76.382" height="76.382" filterUnits="userSpaceOnUse" color-interpolation-filters="sRGB">
<feFlood flood-opacity="0" result="BackgroundImageFix"/>
<feColorMatrix in="SourceAlpha" type="matrix" values="0 0 0 0 0 0 0 0 0 0 0 0 0 0 0 0 0 0 127 0"/>
<feOffset/>
<feGaussianBlur stdDeviation="4.5"/>
<feColorMatrix type="matrix" values="0 0 0 0 0.905882 0 0 0 0 0.905882 0 0 0 0 0.933333 0 0 0 0.44 0"/>
<feBlend mode="normal" in2="BackgroundImageFix" result="effect1_dropShadow"/>
<feBlend mode="normal" in="SourceGraphic" in2="effect1_dropShadow" result="shape"/>
</filter>
<filter id="filter7_d" x="1159.59" y="78.1989" width="44.5902" height="44.5902" filterUnits="userSpaceOnUse" color-interpolation-filters="sRGB">
<feFlood flood-opacity="0" result="BackgroundImageFix"/>
<feColorMatrix in="SourceAlpha" type="matrix" values="0 0 0 0 0 0 0 0 0 0 0 0 0 0 0 0 0 0 127 0"/>
<feOffset/>
<feGaussianBlur stdDeviation="4.5"/>
<feColorMatrix type="matrix" values="0 0 0 0 0.905882 0 0 0 0 0.905882 0 0 0 0 0.933333 0 0 0 0.44 0"/>
<feBlend mode="normal" in2="BackgroundImageFix" result="effect1_dropShadow"/>
<feBlend mode="normal" in="SourceGraphic" in2="effect1_dropShadow" result="shape"/>
</filter>
<filter id="filter8_d" x="1267.85" y="250.449" width="44.1217" height="43.9012" filterUnits="userSpaceOnUse" color-interpolation-filters="sRGB">
<feFlood flood-opacity="0" result="BackgroundImageFix"/>
<feColorMatrix in="SourceAlpha" type="matrix" values="0 0 0 0 0 0 0 0 0 0 0 0 0 0 0 0 0 0 127 0"/>
<feOffset/>
<feGaussianBlur stdDeviation="4.5"/>
<feColorMatrix type="matrix" values="0 0 0 0 0.905882 0 0 0 0 0.905882 0 0 0 0 0.933333 0 0 0 0.44 0"/>
<feBlend mode="normal" in2="BackgroundImageFix" result="effect1_dropShadow"/>
<feBlend mode="normal" in="SourceGraphic" in2="effect1_dropShadow" result="shape"/>
</filter>
</defs>
</svg>
