<svg width="648" height="374" viewBox="0 0 648 374" fill="none" xmlns="http://www.w3.org/2000/svg">
<path d="M326.638 59.8501C277.467 58.6413 230.636 47.4183 185.909 35.1369C141.182 22.8555 96.8963 9.24704 48.9027 2.741C18.034 -1.44413 -17.2641 -2.0351 -42.1384 9.66609C-66.0706 20.9482 -73.8049 40.3696 -77.9684 58.4049C-81.091 71.9811 -82.9372 86.2611 -74.3596 98.9669C-68.4107 107.788 -57.8425 115.202 -50.5337 123.653C-25.1123 153.051 -50.4122 163.295 -77.9685 192C-90.8843 205.463 -105.882 218.325 -115.857 232.648C-125.833 246.971 -130.445 263.405 -121.723 278.029C-113.069 292.535 -92.457 303.408 -70.1354 311.064C-24.7858 326.612 28.6325 331.066 80.7667 333.585C196.112 339.167 326.638 398.5 435.062 360.342C477.867 359.445 520.854 358.537 562.959 353.857C586.344 351.257 610.489 347.131 627.462 337.203C649.009 324.561 654.35 303.152 639.915 287.303C615.694 260.715 548.744 254.107 531.794 225.574C522.472 209.87 532.045 192.372 545.584 177.808C574.637 146.556 623.329 119.146 625.897 83.4244C627.66 58.8938 604.252 34.3256 568.057 22.7158C530.115 10.5472 477.51 12.0783 449.536 32.2196C420.695 52.9358 370.05 60.9139 326.638 59.8501Z" fill="#FDFDFD"/>
<path d="M331.171 349.561C330.634 347.619 330.096 345.655 329.021 343.965C328.025 342.532 326.841 341.238 325.501 340.118C321.605 336.587 316.821 333.003 311.656 333.894C310.059 334.247 308.515 334.809 307.066 335.568C306.314 335.917 305.556 336.265 304.782 336.56C302.604 337.47 300.196 337.68 297.892 337.161C296.71 336.845 295.608 336.276 294.442 335.922C293.888 335.756 293.322 335.634 292.749 335.557C293.876 335.054 294.969 334.478 296.022 333.835C301.816 330.293 306.438 323.892 305.793 317.046C305.572 314.744 304.782 312.539 303.998 310.366L301.934 304.668C301.042 302.199 300.117 299.683 298.489 297.633C296.677 295.348 294.098 293.797 291.432 292.643C285.708 290.159 279.452 289.284 273.277 288.437L272.847 288.378V221.775C272.847 220.636 272.394 219.545 271.587 218.74C270.781 217.935 269.688 217.482 268.547 217.482H260.432C260.073 215.293 259.715 213.108 259.357 210.926C258.336 204.696 257.277 198.354 254.401 192.747C252.52 189.077 249.527 185.573 245.49 184.854C244.697 184.783 243.918 184.602 243.174 184.318C241.992 183.738 241.347 182.451 240.438 181.501C238.095 179.049 234.285 179.011 231.146 177.745C228.373 176.645 226.104 174.574 223.578 172.98C221.052 171.387 217.914 170.255 215.119 171.29C215.119 171.494 215.081 171.698 215.06 171.897L213.265 171.07C211.33 170.174 209.357 169.257 207.804 167.787C205.81 165.909 204.746 163.419 203.918 160.774C203.832 160.5 203.752 160.237 203.666 159.942C207.101 156.443 209.427 152.011 210.352 147.199L210.787 148.61C210.885 148.927 211 149.239 211.131 149.544C211.353 150.133 211.723 150.656 212.206 151.062C212.344 151.17 212.496 151.258 212.657 151.325C212.806 151.384 212.961 151.423 213.12 151.443C213.343 151.471 213.569 151.454 213.786 151.395C214.149 151.282 214.483 151.09 214.762 150.832C215.041 150.574 215.259 150.256 215.398 149.903C215.484 149.692 215.547 149.473 215.587 149.249C215.607 149.114 215.62 148.977 215.624 148.841C215.624 148.798 215.624 148.755 215.624 148.712C215.624 148.669 215.624 148.524 215.624 148.433C215.624 148.342 215.624 148.336 215.624 148.283C215.624 148.229 215.624 148.106 215.597 148.014V147.875C215.597 147.768 215.565 147.66 215.544 147.558C215.522 147.456 215.544 147.499 215.544 147.473C215.517 147.338 215.484 147.199 215.458 147.065C215.458 147.033 215.458 146.995 215.458 146.963C215.458 146.931 215.409 146.743 215.382 146.63C215.355 146.517 215.345 146.485 215.329 146.41V146.378C215.275 146.163 215.226 145.954 215.178 145.739C214.787 143.877 214.688 141.966 214.882 140.073C215.204 137.296 215.718 134.544 216.42 131.837L216.532 131.349C216.575 131.161 216.618 130.973 216.656 130.78C216.742 130.394 216.828 130.008 216.909 129.616L217.102 128.629L217.247 127.749V127.636C217.549 125.642 217.612 123.619 217.435 121.611C217.188 118.804 216.317 116.148 214.41 114.034C213.06 112.537 211.282 111.432 210.029 109.86C208.858 108.39 208.197 106.576 206.982 105.133C203.628 101.136 195.018 98.0557 189.735 97.5192C183.683 96.9075 173.907 98.4528 169.027 102.021C167.221 103.335 165.985 105.24 164.727 107.043C162.416 110.397 159.794 113.745 156.09 115.628C154.693 116.336 153.091 116.873 152.162 118.107C151.609 118.943 151.25 119.893 151.114 120.886C150.402 124.38 150.031 127.934 150.006 131.499C150.006 131.945 150.006 132.39 150.006 132.841C150.018 134.177 150.303 135.498 150.845 136.72C150.931 136.902 151.028 137.079 151.13 137.257L151.194 137.369C151.844 138.297 152.419 139.275 152.914 140.293C153.037 140.579 153.126 140.878 153.177 141.184C153.27 141.97 153.219 142.766 153.027 143.534C153.027 143.652 152.979 143.77 152.957 143.888L152.909 144.119C152.909 144.2 152.909 144.28 152.866 144.355C152.823 144.586 152.785 144.817 152.753 145.042C152.671 145.663 152.712 146.293 152.871 146.898C152.945 147.236 153.089 147.554 153.295 147.831C153.5 148.108 153.763 148.339 154.064 148.508C154.37 148.655 154.696 148.756 155.032 148.809C155.37 148.868 155.714 148.905 156.047 148.98C156.476 149.078 156.89 149.231 157.278 149.436C157.65 149.614 157.999 149.838 158.316 150.102C158.472 150.244 158.621 150.394 158.762 150.552C159.045 150.877 159.301 151.225 159.525 151.593C159.639 151.783 159.747 151.976 159.847 152.173C160.232 152.949 160.54 153.762 160.766 154.598C160.906 155.097 161.024 155.601 161.126 156.106C161.175 156.331 161.218 156.556 161.255 156.776C161.293 156.996 161.331 157.222 161.363 157.442C161.51 157.433 161.654 157.405 161.793 157.356C162.583 157.072 163.024 156.154 163.271 155.263C163.314 155.113 163.351 154.968 163.384 154.823C163.507 154.287 163.636 153.697 163.76 153.133C165.878 157.625 169.294 161.381 173.568 163.918C173.719 164.363 173.864 164.803 173.993 165.254C174.697 167.685 175.036 170.228 173.816 172.353C172.945 173.86 171.483 174.789 169.849 175.433C169.614 175.119 169.311 174.862 168.962 174.681C167.549 173.973 165.851 174.832 164.663 175.889C162.513 177.831 160.761 180.616 157.934 181.254C156.913 181.49 155.784 181.442 154.935 182.064C154.373 182.592 153.903 183.208 153.543 183.889C152.93 184.768 152.105 185.48 151.144 185.958C150.183 186.436 149.117 186.665 148.045 186.625C147.061 186.577 145.895 186.351 145.223 187.07C144.723 187.607 144.686 188.455 144.148 188.964C143.428 189.673 142.246 189.329 141.241 189.286C139.327 189.206 137.548 190.44 136.457 192.023C135.366 193.606 134.845 195.5 134.307 197.388V197.421C134.17 197.521 134.038 197.63 133.915 197.748C133.394 198.302 132.99 198.955 132.727 199.669C128.381 209.548 125.816 220.116 125.149 230.886C125.16 231.41 125.042 231.93 124.805 232.399C124.565 232.705 124.301 232.992 124.015 233.257C123.76 233.569 123.57 233.929 123.457 234.316C123.343 234.703 123.309 235.109 123.355 235.509C123.402 235.909 123.529 236.296 123.728 236.647C123.927 236.997 124.195 237.304 124.515 237.55C124.67 237.27 124.863 237.013 125.09 236.788C125.031 237.035 124.977 237.276 124.94 237.496C124.724 239.061 124.704 240.647 124.881 242.218C125.389 249.672 125.904 257.121 126.423 264.565C126.568 266.674 126.713 268.777 126.907 270.881C127.283 274.951 127.82 279.006 128.519 283.044C128.551 283.227 128.589 283.415 128.637 283.581C124.257 284.971 120.361 287.482 118.721 291.672C118.152 293.121 117.894 294.698 117.195 296.088C116.426 297.612 115.163 298.83 114.325 300.321C112.879 302.886 112.815 306.03 113.341 308.906C114.357 314.513 117.394 319.525 121.403 323.603C121.226 323.603 121.043 323.603 120.866 323.603C119.556 323.747 118.298 324.198 117.195 324.917C108.714 329.864 103.866 340.477 105.634 350.167C105.984 352.062 106.591 353.982 107.859 355.426C108.914 356.573 110.269 357.402 111.772 357.819C112.712 358.101 113.68 358.281 114.658 358.355C121.269 358.892 127.67 355.834 134.297 355.576C136.492 355.541 138.687 355.643 140.87 355.882C144.062 356.147 147.26 356.315 150.463 356.386C155.671 356.51 158.6 355.125 161.922 351.241C162.738 350.274 163.42 349.202 163.948 348.053C166.775 347.893 169.898 347.646 172.155 347.463L172.187 347.774C172.311 348.848 172.499 350.082 173.359 350.758C173.843 351.091 174.392 351.316 174.971 351.418C180.399 352.748 185.892 354.1 191.482 354.1C194.105 354.048 196.723 353.847 199.323 353.5L209.142 352.367C212.004 352.729 214.827 353.344 217.58 354.202C220.418 355.163 223.068 356.59 225.841 357.722C232.291 360.33 239.224 361.263 246.092 362.176C247.264 362.331 248.608 362.439 249.473 361.639C250.591 360.566 250.22 358.774 249.903 357.272C249.774 356.654 249.677 356.037 249.602 355.415C254.237 356.635 258.772 358.206 263.167 360.115L263.936 360.453C264.162 361.623 265.242 362.557 266.279 363.817C266.62 364.35 267.018 364.843 267.467 365.288C267.98 365.62 268.563 365.829 269.171 365.899C276.422 367.248 283.825 367.582 291.169 366.892C292.671 366.688 294.191 366.635 295.705 366.736C296.817 366.888 297.913 367.133 298.983 367.471L305.201 369.253C309.786 370.562 314.478 371.887 319.234 371.592C320.199 371.532 321.157 371.394 322.099 371.179C325.861 370.31 329.365 368.212 331.171 364.837C333.724 360.249 332.547 354.605 331.171 349.561Z" fill="url(#paint0_linear)"/>
<path d="M157.192 348.515C156.058 345.939 154.983 342.978 156.118 340.402C156.858 338.885 158.129 337.692 159.692 337.049C161.237 336.419 162.867 336.018 164.529 335.857C169.744 335.175 175.022 335.103 180.255 335.643C180.636 338.658 179.83 341.717 179.137 344.63C178.508 347.313 178.148 347.71 175.374 347.85C173.579 347.946 157.617 349.465 157.192 348.515Z" fill="#FBBEBE"/>
<path d="M205.053 331.141C247.499 331.141 281.908 321.532 281.908 309.679C281.908 297.826 247.499 288.217 205.053 288.217C162.606 288.217 128.197 297.826 128.197 309.679C128.197 321.532 162.606 331.141 205.053 331.141Z" fill="#464353"/>
<path opacity="0.1" d="M205.053 331.141C247.499 331.141 281.908 321.532 281.908 309.679C281.908 297.826 247.499 288.217 205.053 288.217C162.606 288.217 128.197 297.826 128.197 309.679C128.197 321.532 162.606 331.141 205.053 331.141Z" fill="black"/>
<path d="M218.833 196.38C216.199 201.462 211.823 205.43 206.504 207.562C203.363 208.704 200.058 209.331 196.717 209.418C193.067 209.584 189.343 209.348 185.914 208.103C181.313 206.44 177.492 203.038 174.627 199.073C171.763 195.108 169.79 190.58 168.076 186.013C167.173 183.636 166.313 181.104 166.738 178.593C169.506 177.965 172.537 177.042 173.966 174.59C175.186 172.487 174.848 169.965 174.144 167.561C173.945 166.88 173.714 166.204 173.483 165.555C172.945 163.999 171.091 161.042 172.408 159.711C173.23 158.869 176.675 158.44 177.863 157.893C181.523 156.208 184.898 153.772 188.918 152.972C192.396 152.28 195.986 152.929 199.458 153.648C199.918 153.715 200.361 153.874 200.758 154.115C201.212 154.497 201.547 154.999 201.726 155.564C202.715 157.968 203.295 160.624 204.091 163.129C204.918 165.753 205.982 168.216 207.976 170.078C209.53 171.532 211.507 172.444 213.442 173.329L218.204 175.508C219.051 175.824 219.819 176.32 220.456 176.962C221.079 177.816 221.451 178.827 221.531 179.881C222.384 185.527 221.441 191.298 218.833 196.38Z" fill="#FBBEBE"/>
<path opacity="0.1" d="M204.069 163.129C200.277 167.071 195.282 169.644 189.867 170.446C184.452 171.248 178.924 170.234 174.149 167.561C173.95 166.88 173.719 166.204 173.488 165.555C172.951 163.999 171.096 161.042 172.413 159.711C173.235 158.869 176.681 158.44 177.868 157.893C181.528 156.208 184.904 153.772 188.924 152.972C192.401 152.28 195.991 152.929 199.463 153.648C199.924 153.715 200.366 153.874 200.764 154.115C201.217 154.497 201.553 154.999 201.731 155.564C202.693 157.968 203.274 160.624 204.069 163.129Z" fill="black"/>
<path d="M186.242 169.638C199.896 169.638 210.965 158.587 210.965 144.956C210.965 131.325 199.896 120.275 186.242 120.275C172.588 120.275 161.519 131.325 161.519 144.956C161.519 158.587 172.588 169.638 186.242 169.638Z" fill="#FBBEBE"/>
<path d="M261.566 225.059L259.534 212.771C258.508 206.606 257.449 200.323 254.579 194.77C252.692 191.132 249.699 187.666 245.662 186.947C244.867 186.876 244.086 186.696 243.341 186.41C242.158 185.842 241.513 184.565 240.605 183.62C238.262 181.195 234.446 181.158 231.307 179.924C228.534 178.85 226.266 176.785 223.74 175.207C221.214 173.63 218.07 172.524 215.275 173.533C214.823 178.335 214.345 183.245 212.303 187.618C210.973 190.465 209.024 192.979 206.596 194.976C204.168 196.974 201.324 198.405 198.271 199.164C195.218 199.923 192.034 199.992 188.951 199.364C185.868 198.737 182.965 197.429 180.453 195.537C175.665 191.937 172.596 186.384 171.166 180.573C170.817 179.156 170.419 177.53 169.113 176.881C167.699 176.173 166.001 177.031 164.813 178.072C162.664 179.999 160.906 182.757 158.079 183.406C157.058 183.642 155.929 183.594 155.08 184.211C154.516 184.731 154.043 185.342 153.683 186.019C153.064 186.891 152.238 187.597 151.278 188.071C150.318 188.545 149.255 188.773 148.185 188.734C147.201 188.685 146.035 188.46 145.363 189.174C144.863 189.71 144.825 190.547 144.288 191.046C143.562 191.749 142.385 191.406 141.375 191.368C139.462 191.288 137.683 192.511 136.586 194.051C135.49 195.591 134.974 197.496 134.437 199.341C140.311 212.401 145.685 225.477 151.56 238.537C151.835 239.029 151.981 239.583 151.984 240.147C151.867 240.732 151.617 241.282 151.253 241.756C148.373 246.376 148.464 252.187 148.781 257.617C149.098 263.047 149.485 268.783 147.056 273.649C146.395 274.985 145.535 276.209 144.906 277.545C143.433 280.571 142.901 290.25 143.761 293.502H265.269C262.952 287.144 263.834 274.384 264.317 267.634C264.656 262.913 263.78 258.196 263.404 253.475C262.581 243.833 263.162 234.684 261.566 225.059Z" fill="black"/>
<path d="M125.128 239.116C124.913 240.669 124.891 242.242 125.063 243.801L126.606 265.944C126.751 268.031 126.896 270.113 127.09 272.195C127.461 276.235 128.014 280.243 128.702 284.246C128.718 284.814 128.958 285.354 129.371 285.745C129.785 286.136 130.336 286.348 130.906 286.333C137.704 287.771 144.729 287.712 151.667 287.321C162.255 286.73 172.827 285.384 183.431 285.614C186.161 285.673 189.343 285.614 190.998 283.468C192.654 281.322 191.692 277.85 189.531 276.117C187.37 274.384 184.436 273.971 181.663 273.971C177.992 273.934 174.321 274.454 170.661 274.239C167.302 274.041 164.018 273.231 160.761 272.42L151.624 270.151C151.974 267.388 153.027 264.785 154.027 262.161C155.822 257.51 157.499 252.702 157.531 247.717C157.563 242.733 155.682 237.491 151.592 234.636C148.228 232.291 143.896 231.857 139.795 231.953C136.812 232.039 131.658 231.326 128.933 232.49C126.778 233.434 125.531 237.008 125.128 239.116Z" fill="#FBBEBE"/>
<path d="M267.784 289.746C269.574 289.064 271.546 289.311 273.465 289.569C279.64 290.411 285.907 291.275 291.631 293.738C294.318 294.886 296.876 296.421 298.693 298.68C300.305 300.713 301.246 303.203 302.138 305.655L304.202 311.299C304.987 313.446 305.782 315.635 306.002 317.915C306.647 324.67 302.02 331.039 296.199 334.548C290.379 338.057 283.526 339.308 276.851 340.617C270.176 341.926 263.474 343.375 256.825 344.909C253.725 345.713 250.578 346.331 247.404 346.76C240.288 347.565 232.85 346.379 226.089 348.729C223.401 349.668 220.762 351.064 217.973 351.713C216.12 352.102 214.247 352.387 212.362 352.566L199.565 354.025C196.963 354.373 194.343 354.573 191.718 354.626C186.129 354.626 180.631 353.306 175.202 351.986C174.625 351.885 174.076 351.664 173.59 351.337C172.73 350.661 172.542 349.465 172.418 348.381C171.87 343.584 171.39 338.782 170.978 333.974C170.849 332.413 170.752 330.723 171.607 329.408C172.682 327.798 174.778 327.294 176.691 326.983C184.804 325.658 193.023 325.088 201.242 325.282C204.365 322.165 209.513 322.149 213.603 320.453C215.108 319.763 216.564 318.973 217.962 318.087C225.278 313.825 233.454 311.246 241.895 310.537C243.548 310.487 245.19 310.253 246.791 309.84C249.957 308.858 252.843 306.186 256.095 306.841C256.498 305.73 256.777 304.244 257.707 303.482C258.169 303.09 258.739 302.827 259.163 302.409C260.061 301.502 260.142 300.075 260.007 298.808C259.873 297.542 259.572 296.244 259.9 295.009C260.036 294.542 260.237 294.096 260.496 293.684C262.109 290.905 264.543 289.478 267.784 289.746Z" fill="#464353"/>
<path opacity="0.05" d="M267.784 289.746C269.574 289.064 271.546 289.311 273.465 289.569C279.64 290.411 285.907 291.275 291.631 293.738C294.318 294.886 296.876 296.421 298.693 298.68C300.305 300.713 301.246 303.203 302.138 305.655L304.202 311.299C304.987 313.446 305.782 315.635 306.002 317.915C306.647 324.67 302.02 331.039 296.199 334.548C290.379 338.057 283.526 339.308 276.851 340.617C270.176 341.926 263.474 343.375 256.825 344.909C253.725 345.713 250.578 346.331 247.404 346.76C240.288 347.565 232.85 346.379 226.089 348.729C223.401 349.668 220.762 351.064 217.973 351.713C216.12 352.102 214.247 352.387 212.362 352.566L199.565 354.025C196.963 354.373 194.343 354.573 191.718 354.626C186.129 354.626 180.631 353.306 175.202 351.986C174.625 351.885 174.076 351.664 173.59 351.337C172.73 350.661 172.542 349.465 172.418 348.381C171.87 343.584 171.39 338.782 170.978 333.974C170.849 332.413 170.752 330.723 171.607 329.408C172.682 327.798 174.778 327.294 176.691 326.983C184.804 325.658 193.023 325.088 201.242 325.282C204.365 322.165 209.513 322.149 213.603 320.453C215.108 319.763 216.564 318.973 217.962 318.087C225.278 313.825 233.454 311.246 241.895 310.537C243.548 310.487 245.19 310.253 246.791 309.84C249.957 308.858 252.843 306.186 256.095 306.841C256.498 305.73 256.777 304.244 257.707 303.482C258.169 303.09 258.739 302.827 259.163 302.409C260.061 301.502 260.142 300.075 260.007 298.808C259.873 297.542 259.572 296.244 259.9 295.009C260.036 294.542 260.237 294.096 260.496 293.684C262.109 290.905 264.543 289.478 267.784 289.746Z" fill="black"/>
<path d="M162.137 351.831C158.81 355.678 155.881 357.052 150.673 356.928C147.47 356.853 144.27 356.687 141.074 356.429C138.89 356.193 136.693 356.091 134.496 356.123C127.864 356.381 121.462 359.412 114.846 358.881C113.868 358.804 112.901 358.625 111.96 358.345C110.459 357.932 109.103 357.111 108.042 355.973C106.774 354.54 106.167 352.641 105.817 350.763C104.049 341.137 108.897 330.653 117.383 325.754C118.49 325.04 119.749 324.594 121.059 324.45C122.344 324.445 123.614 324.724 124.779 325.266L124.859 325.298C128.307 326.714 131.438 328.801 134.071 331.436C134.471 331.893 134.947 332.276 135.479 332.568C136.01 332.769 136.572 332.874 137.14 332.88L144.202 333.325C145.399 333.361 146.588 333.524 147.749 333.813C149.03 334.26 150.276 334.798 151.479 335.423C155.279 337.118 159.493 337.569 163.599 338.224C163.994 338.246 164.372 338.396 164.674 338.653C164.838 338.857 164.952 339.095 165.007 339.351C165.584 341.507 165.624 343.771 165.124 345.946C164.624 348.122 163.598 350.142 162.137 351.831Z" fill="#3F3D56"/>
<path opacity="0.1" d="M124.859 325.304C122.119 327.915 119.742 330.882 117.792 334.125C114.662 339.475 112.695 345.424 112.019 351.584C111.763 353.831 111.743 356.099 111.96 358.35C110.459 357.937 109.103 357.116 108.042 355.978C106.774 354.546 106.167 352.646 105.817 350.769C104.049 341.143 108.897 330.658 117.383 325.76C118.49 325.046 119.749 324.599 121.059 324.456C122.344 324.451 123.614 324.729 124.779 325.271L124.859 325.304Z" fill="black"/>
<path d="M261.636 338.653C265.586 338.546 270.02 338.347 272.922 341.003C275.69 343.514 276.055 347.656 276.238 351.386L276.448 355.716C276.512 357.035 276.566 358.398 276.034 359.622C275.088 361.768 272.492 362.803 270.122 362.68C267.752 362.557 265.575 361.521 263.409 360.587C257.529 358.058 251.406 356.133 245.136 354.841C245.34 351.847 245.68 348.867 246.157 345.902C246.485 343.847 246.538 340.408 247.914 338.701C249.371 336.898 251.268 337.875 253.246 338.208C256.021 338.63 258.831 338.78 261.636 338.653Z" fill="#FBBEBE"/>
<path d="M157.241 295.144C157.241 295.68 156.397 295.144 156.322 294.57C155.731 290.229 152.28 286.65 148.26 284.912C144.24 283.173 139.661 283.082 135.307 283.495C128.724 284.117 121.334 286.634 118.926 292.777C118.356 294.215 118.098 295.771 117.399 297.15C116.625 298.663 115.362 299.871 114.524 301.341C113.078 303.884 113.019 307.002 113.54 309.877C114.943 317.55 120.2 324.112 126.568 328.657C132.937 333.202 140.381 335.917 147.803 338.363C167.429 344.825 187.565 349.627 207.998 352.716C211.309 353.215 214.652 353.677 217.822 354.739C220.66 355.689 223.315 357.111 226.089 358.227C232.538 360.813 239.476 361.736 246.35 362.642C247.522 362.793 248.866 362.9 249.731 362.106C250.849 361.07 250.478 359.268 250.161 357.781C248.994 352.13 249.973 346.248 252.907 341.277C254.058 339.345 255.552 337.365 255.337 335.128C255.079 332.52 252.477 330.674 249.887 330.256C247.296 329.837 244.663 330.454 242.062 330.792C241.164 330.911 240.186 330.986 239.401 330.53C239.015 330.269 238.664 329.959 238.359 329.607C236.567 327.881 234.273 326.766 231.807 326.422C229.341 326.078 226.829 326.522 224.632 327.691C223.67 328.228 222.213 327.031 221.214 326.581L209.911 321.472C196.926 315.608 183.877 309.717 170.14 306.004C169.044 305.788 168.002 305.356 167.076 304.732C166.394 304.195 165.905 303.466 165.276 302.87C163.905 301.577 161.997 301.062 160.353 300.144C158.708 299.227 156.865 296.984 157.241 295.144Z" fill="#464353"/>
<path d="M331.488 365.266C329.683 368.609 326.178 370.691 322.416 371.549C321.472 371.762 320.512 371.898 319.546 371.957C314.79 372.252 310.092 370.938 305.508 369.639L299.284 367.89C298.214 367.554 297.117 367.31 296.006 367.16C294.492 367.059 292.973 367.112 291.47 367.316C284.114 367.999 276.699 367.667 269.434 366.329C268.826 366.263 268.243 366.055 267.73 365.722C267.282 365.283 266.883 364.795 266.543 364.268C264.85 362.235 263.028 361.049 265.032 358.366C266.188 356.81 268.332 356.032 269.23 354.245C270.127 352.459 269.552 349.921 269.02 348.075C268.295 345.526 265.908 344.426 265.054 342.087C264.414 340.322 265.489 338.272 267.107 337.312C268.725 336.351 270.724 336.276 272.589 336.523C274.454 336.77 276.281 337.296 278.157 337.44C283.671 337.88 289.309 335.042 294.603 336.641C295.769 336.995 296.871 337.558 298.053 337.87C300.359 338.384 302.767 338.176 304.949 337.274C305.723 336.984 306.481 336.636 307.233 336.292C308.684 335.538 310.23 334.98 311.828 334.634C316.993 333.749 321.782 337.317 325.679 340.799C327.016 341.908 328.2 343.189 329.199 344.609C330.274 346.283 330.844 348.231 331.349 350.151C332.773 355.115 333.95 360.706 331.488 365.266Z" fill="#3F3D56"/>
<path opacity="0.1" d="M331.488 365.266C329.683 368.609 326.178 370.691 322.416 371.549C323.88 368.711 324.539 365.527 324.324 362.342C324.002 357.239 321.755 352.432 318.89 348.193C317.128 345.584 315.124 343.146 312.903 340.912C311.194 339.195 309.093 337.832 307.255 336.26C308.706 335.506 310.251 334.948 311.85 334.602C317.015 333.717 321.803 337.285 325.7 340.767C327.038 341.875 328.221 343.156 329.22 344.577C330.295 346.251 330.865 348.198 331.37 350.119C332.773 355.115 333.95 360.705 331.488 365.266Z" fill="black"/>
<path d="M134.13 199.739C133.607 200.286 133.201 200.934 132.937 201.643C128.593 211.418 126.027 221.887 125.359 232.56C125.371 233.08 125.251 233.595 125.01 234.057C124.772 234.364 124.508 234.649 124.22 234.91C123.958 235.219 123.763 235.579 123.646 235.967C123.529 236.355 123.493 236.763 123.541 237.165C123.588 237.568 123.718 237.956 123.921 238.306C124.125 238.657 124.398 238.962 124.725 239.202C125.612 237.534 127.735 236.992 129.621 236.847C138.656 236.133 147.481 240.329 156.542 240.012C155.903 237.807 154.984 235.688 154.462 233.456C152.157 223.546 157.907 212.755 154.382 203.21C153.678 201.3 152.5 199.422 150.646 198.585C149.879 198.275 149.075 198.063 148.255 197.952C145.965 197.539 141.407 195.773 139.193 196.482C138.376 196.745 138.054 197.512 137.377 197.973C136.35 198.633 134.985 198.875 134.13 199.739Z" fill="black"/>
<path d="M268.757 219.269H157.472C155.106 219.269 153.188 221.184 153.188 223.546V291.184C153.188 293.546 155.106 295.46 157.472 295.46H268.757C271.123 295.46 273.041 293.546 273.041 291.184V223.546C273.041 221.184 271.123 219.269 268.757 219.269Z" fill="#3F3D56"/>
<path d="M212.846 260.584C214.627 260.584 216.071 259.143 216.071 257.365C216.071 255.587 214.627 254.145 212.846 254.145C211.065 254.145 209.621 255.587 209.621 257.365C209.621 259.143 211.065 260.584 212.846 260.584Z" fill="white"/>
<path d="M169.162 104.897C167.356 106.201 166.12 108.073 164.862 109.871C162.546 113.192 159.923 116.508 156.22 118.359C154.817 119.062 153.215 119.593 152.286 120.816C151.734 121.644 151.375 122.585 151.238 123.569C150.528 127.03 150.157 130.552 150.13 134.085C150.13 135.845 150.206 137.659 150.985 139.258C151.721 140.76 153.049 142.032 153.323 143.668C153.532 144.945 153.059 146.217 152.893 147.499C152.726 148.782 153.016 150.3 154.204 150.912C154.844 151.152 155.513 151.309 156.193 151.379C159.767 152.173 160.965 156.358 161.508 159.819C162.723 159.749 163.271 158.359 163.524 157.227L167.248 140.696C167.651 138.904 168.323 136.827 170.113 136.2C171.311 135.786 172.623 136.173 173.875 136.28C178.793 136.682 182.953 132.889 187.763 131.843C189.303 131.532 190.877 131.428 192.444 131.531C196.238 131.719 200.651 133.275 201.457 136.811C201.592 137.385 201.672 138.072 202.21 138.356C202.747 138.641 203.311 138.399 203.876 138.356C206.283 138.115 207.702 140.819 208.396 143.03L210.922 151.078C211.298 152.296 211.932 153.729 213.254 153.884C214.474 154.035 215.512 152.881 215.694 151.738C215.877 150.595 215.479 149.41 215.216 148.261C214.028 142.976 215.845 137.568 216.952 132.272C218.059 126.976 218.258 120.892 214.544 116.814C213.195 115.338 211.422 114.238 210.164 112.682C208.992 111.223 208.331 109.431 207.117 107.998C203.757 104.044 195.142 100.991 189.859 100.486C183.823 99.8317 174.042 101.361 169.162 104.897Z" fill="#3F3D56"/>
<g opacity="0.1">
<path opacity="0.1" d="M213.276 150.129C211.954 149.968 211.319 148.519 210.943 147.322C210.101 144.636 209.259 141.953 208.417 139.274C207.724 137.058 206.305 134.354 203.897 134.601C203.333 134.66 202.726 134.88 202.231 134.601C201.737 134.322 201.613 133.629 201.479 133.055C200.672 129.514 196.26 127.963 192.466 127.776C190.898 127.673 189.325 127.776 187.784 128.081C182.974 129.155 178.814 132.91 173.897 132.519C172.628 132.417 171.317 132.03 170.134 132.444C168.323 133.066 167.673 135.126 167.27 136.94L163.545 153.466C163.293 154.603 162.744 155.993 161.53 156.057C160.992 152.602 159.788 148.417 156.214 147.623C155.535 147.548 154.867 147.391 154.226 147.156C153.758 146.901 153.392 146.494 153.188 146.002C153.092 146.501 152.979 147 152.914 147.499C152.753 148.776 153.038 150.3 154.226 150.912C154.866 151.152 155.534 151.309 156.214 151.379C159.788 152.173 160.987 156.358 161.53 159.819C162.744 159.749 163.293 158.359 163.545 157.227L167.27 140.696C167.673 138.904 168.345 136.827 170.134 136.2C171.333 135.786 172.644 136.173 173.897 136.28C178.814 136.682 182.974 132.889 187.784 131.843C189.324 131.532 190.898 131.428 192.466 131.531C196.26 131.719 200.672 133.275 201.479 136.811C201.613 137.385 201.694 138.072 202.231 138.356C202.769 138.641 203.333 138.399 203.897 138.356C206.305 138.115 207.724 140.819 208.417 143.03C209.256 145.716 210.098 148.399 210.943 151.078C211.319 152.296 211.954 153.729 213.276 153.884C214.496 154.035 215.533 152.881 215.716 151.738C215.798 150.777 215.689 149.808 215.393 148.889C215.202 149.281 214.898 149.607 214.522 149.828C214.145 150.048 213.712 150.153 213.276 150.129Z" fill="black"/>
<path opacity="0.1" d="M153.328 139.912C153.054 138.276 151.716 137.004 150.99 135.502C150.524 134.489 150.254 133.396 150.195 132.283C150.195 132.884 150.141 133.485 150.136 134.091C150.136 135.851 150.211 137.664 150.99 139.263C151.587 140.481 152.57 141.554 153.065 142.794C153.326 141.857 153.415 140.881 153.328 139.912Z" fill="black"/>
<path opacity="0.1" d="M216.974 128.495C215.995 133.173 214.469 137.938 214.942 142.627C215.248 139.167 216.259 135.684 216.974 132.25C217.57 129.643 217.78 126.962 217.597 124.293C217.48 125.706 217.272 127.109 216.974 128.495Z" fill="black"/>
</g>
<g opacity="0.8">
<path opacity="0.8" d="M267.381 155.864H603.322" stroke="#3F3D56" stroke-width="3" stroke-miterlimit="10"/>
<path opacity="0.8" d="M297.226 155.859C297.226 155.859 313.29 158.086 304.971 140.878C296.651 123.671 327.544 126.928 327.544 126.928" stroke="#3F3D56" stroke-width="3" stroke-miterlimit="10"/>
<path opacity="0.8" d="M404.217 155.859C404.217 155.859 420.281 153.638 411.961 170.845C403.642 188.052 434.534 184.795 434.534 184.795" stroke="#3F3D56" stroke-width="3" stroke-miterlimit="10"/>
<path opacity="0.8" d="M558.267 155.859C558.267 155.859 542.197 153.638 550.522 170.845C558.847 188.052 527.949 184.795 527.949 184.795" stroke="#3F3D56" stroke-width="3" stroke-miterlimit="10"/>
<path opacity="0.8" d="M527.949 184.79H439.307" stroke="#3F3D56" stroke-width="3" stroke-miterlimit="10"/>
<path opacity="0.8" d="M267.381 165.656C272.798 165.656 277.19 161.272 277.19 155.864C277.19 150.456 272.798 146.072 267.381 146.072C261.964 146.072 257.573 150.456 257.573 155.864C257.573 161.272 261.964 165.656 267.381 165.656Z" fill="black"/>
<path opacity="0.8" d="M327.71 136.58C333.127 136.58 337.519 132.196 337.519 126.788C337.519 121.38 333.127 116.996 327.71 116.996C322.293 116.996 317.902 121.38 317.902 126.788C317.902 132.196 322.293 136.58 327.71 136.58Z" fill="#3ACC6C"/>
<path opacity="0.8" d="M327.71 165.656C333.127 165.656 337.519 161.272 337.519 155.864C337.519 150.456 333.127 146.072 327.71 146.072C322.293 146.072 317.902 150.456 317.902 155.864C317.902 161.272 322.293 165.656 327.71 165.656Z" fill="black"/>
<path opacity="0.8" d="M366.643 165.656C372.061 165.656 376.452 161.272 376.452 155.864C376.452 150.456 372.061 146.072 366.643 146.072C361.226 146.072 356.835 150.456 356.835 155.864C356.835 161.272 361.226 165.656 366.643 165.656Z" fill="black"/>
<path opacity="0.8" d="M434.696 194.437C440.113 194.437 444.504 190.053 444.504 184.645C444.504 179.237 440.113 174.853 434.696 174.853C429.279 174.853 424.887 179.237 424.887 184.645C424.887 190.053 429.279 194.437 434.696 194.437Z" fill="#FF6584"/>
<path opacity="0.8" d="M486.119 194.437C491.536 194.437 495.928 190.053 495.928 184.645C495.928 179.237 491.536 174.853 486.119 174.853C480.702 174.853 476.311 179.237 476.311 184.645C476.311 190.053 480.702 194.437 486.119 194.437Z" fill="#FF6584"/>
<path opacity="0.8" d="M483.437 165.656C488.854 165.656 493.246 161.272 493.246 155.864C493.246 150.456 488.854 146.072 483.437 146.072C478.02 146.072 473.629 150.456 473.629 155.864C473.629 161.272 478.02 165.656 483.437 165.656Z" fill="black"/>
<path opacity="0.8" d="M600.839 165.656C606.256 165.656 610.647 161.272 610.647 155.864C610.647 150.456 606.256 146.072 600.839 146.072C595.421 146.072 591.03 150.456 591.03 155.864C591.03 161.272 595.421 165.656 600.839 165.656Z" fill="black"/>
<path opacity="0.8" d="M552.812 165.656C558.229 165.656 562.62 161.272 562.62 155.864C562.62 150.456 558.229 146.072 552.812 146.072C547.395 146.072 543.003 150.456 543.003 155.864C543.003 161.272 547.395 165.656 552.812 165.656Z" fill="black"/>
<path opacity="0.8" d="M283.811 65.814H250.903V88.4567H283.811V65.814Z" fill="black"/>
<path opacity="0.8" d="M344.285 65.814H311.377V88.4567H344.285V65.814Z" fill="#3ACC6C"/>
<path opacity="0.8" d="M451.013 65.814H418.104V88.4567H451.013V65.814Z" fill="#FF6584"/>
</g>
<g opacity="0.1">
<path opacity="0.1" d="M136.409 160.624C136.409 160.624 96.2236 143.754 90.9566 174.193C90.9566 174.193 88.2102 178.936 92.0315 182.853C92.0315 182.853 92.8538 180.75 96.7342 182.923C98.1202 183.688 99.5924 184.286 101.12 184.704C103.183 185.272 105.375 185.156 107.365 184.372C107.365 184.372 120.581 183.658 131.696 166.397C131.696 166.397 136.463 163.457 136.699 162.351L128.734 162.888C128.734 162.888 129.347 168.709 126.047 172.202C126.047 172.202 128.971 163.167 127.568 162.915C127.283 162.861 123.36 163.376 123.36 163.376C123.36 163.376 124.375 173.501 119.06 178.738C119.06 178.738 123.994 168.441 121.849 163.558L115.97 164.691C115.97 164.691 117.582 175.341 111.767 181.533C111.767 181.533 116.55 170.587 114.701 165.029L109.074 166.917C109.074 166.917 110.429 177.332 105.565 182.477C105.565 182.477 109.81 169.273 107.811 167.454C107.811 167.454 102.748 169.504 101.668 170.673C101.668 170.673 102.469 178.185 99.3785 180.895C99.3785 180.895 101.276 171.773 100.335 171.398C100.335 171.398 94.4554 175.819 92.6603 179.634C92.6603 179.634 94.8961 173.807 99.5989 170.512C99.5989 170.512 95.6486 169.847 92.612 171.494C92.612 171.494 94.6435 167.626 101.023 169.461C101.023 169.461 105.747 166.193 106.693 166.241C106.693 166.241 100.658 163.558 96.2989 163.891C96.2989 163.891 100.975 161.208 108.166 165.689L113.782 163.666C113.782 163.666 105.989 159.679 102.087 159.695C102.087 159.695 107.279 157.689 115.239 163.269L120.989 162.099C120.989 162.099 114.54 158.155 110.192 157.238C110.192 157.238 115.405 156.412 122.65 161.825L126.579 161.498C126.579 161.498 121.823 158.697 120.382 158.016C118.942 157.334 119.006 156.894 119.006 156.894C122.424 157.479 125.613 158.998 128.218 161.284C128.218 161.284 136.377 161.123 136.409 160.624Z" fill="black"/>
</g>
<g opacity="0.1">
<path opacity="0.1" d="M134.926 130.383C134.926 130.383 120.694 97.5084 100.19 112.586C100.19 112.586 95.8581 113.841 95.8903 118.327C95.8903 118.327 97.5779 117.543 98.6475 121.047C99.0396 122.29 99.581 123.481 100.26 124.594C101.157 126.106 102.526 127.284 104.156 127.947C104.156 127.947 112.417 135.041 128.879 131.108C128.879 131.108 133.394 132.068 134.162 131.553L129.132 127.33C129.132 127.33 126.17 131.14 122.204 131.322C122.204 131.322 129.1 127.62 128.412 126.67C128.272 126.477 125.644 124.556 125.644 124.556C125.644 124.556 120.473 131.145 114.357 131.247C114.357 131.247 123.166 127.931 124.676 123.816L120.538 121.133C120.538 121.133 115.319 128.382 108.332 128.757C108.332 128.757 117.421 124.975 119.495 120.618L115.072 118.541C115.072 118.541 109.934 125.517 104.124 125.78C104.124 125.78 114.185 120.35 114.029 118.134C114.029 118.134 109.853 116.47 108.526 116.567C108.526 116.567 104.726 121.476 101.335 121.337C101.335 121.337 107.671 116.996 107.327 116.24C107.327 116.24 101.308 115.521 98.067 116.776C98.067 116.776 102.721 114.587 107.392 115.306C107.392 115.306 105.425 112.661 102.689 111.926C102.689 111.926 106.107 110.783 108.848 115.494C108.848 115.494 113.513 116.245 114.062 116.803C114.062 116.803 112.014 111.765 109.225 109.495C109.225 109.495 113.524 110.568 115.244 117.313L119.737 119.303C119.737 119.303 117.383 112.5 115.051 110.295C115.051 110.295 119.28 112.054 120.828 119.899L124.913 122.469C124.913 122.469 123.333 116.46 121.274 113.439C121.274 113.439 124.843 115.918 126.052 123.252L128.578 125.291C128.578 125.291 127.347 120.924 126.88 119.7C126.412 118.477 126.703 118.252 126.703 118.252C128.4 120.552 129.422 123.28 129.653 126.128C129.653 126.128 134.619 130.657 134.926 130.383Z" fill="black"/>
</g>
<defs>
<linearGradient id="paint0_linear" x1="219.026" y1="371.651" x2="219.026" y2="97.3635" gradientUnits="userSpaceOnUse">
<stop stop-color="#808080" stop-opacity="0.25"/>
<stop offset="0.54" stop-color="#808080" stop-opacity="0.12"/>
<stop offset="1" stop-color="#808080" stop-opacity="0.1"/>
</linearGradient>
</defs>
</svg>
