<svg width="1780" height="6724" viewBox="0 0 1780 6724" fill="none" xmlns="http://www.w3.org/2000/svg">
<g filter="url(#filter0_f_44_121)">
<path d="M797.581 262.847L697.075 157.698L285.916 587.851L386.421 693L797.581 262.847Z" fill="#212121"/>
<path d="M771.475 320.2L843.917 244.412L798.233 196.617L877.202 114L976.402 217.783L824.991 376.189L771.475 320.2Z" fill="#212121"/>
<path d="M972.486 587.851L749.286 354.34L697.075 403.5L843.917 557.126L798.233 604.921L877.202 687.538L972.486 587.851Z" fill="#212121"/>
<path d="M702.949 644.522L792.359 550.981L677.496 430.811L588.085 524.353L702.949 644.522Z" fill="#212121"/>
<path d="M599.18 591.948L560.022 550.981L511.074 604.921L548.927 644.522L599.18 591.948Z" fill="#212121"/>
<path d="M433.411 376.189L282 217.783L371.411 126.973L521.516 284.013L433.411 376.189Z" fill="#212121"/>
<path d="M548.927 248.508L498.674 195.934L548.927 144.725L598.527 196.617L548.927 248.508Z" fill="#212121"/>
<path d="M771.475 320.2L843.917 244.412L798.233 196.617L877.202 114L976.402 217.783L824.991 376.189L771.475 320.2Z" fill="#212121"/>
<path d="M972.486 587.851L749.286 354.34L697.075 403.5L843.917 557.126L798.233 604.921L877.202 687.538L972.486 587.851Z" fill="#212121"/>
<path d="M599.18 591.948L560.022 550.981L511.074 604.921L548.927 644.522L599.18 591.948Z" fill="#212121"/>
<path d="M548.927 248.508L498.674 195.934L548.927 144.725L598.527 196.617L548.927 248.508Z" fill="#212121"/>
</g>
<g filter="url(#filter1_f_44_121)">
<path d="M1155.04 1193.22L1285.59 1129.07L999.298 607.414L868.754 671.569L1155.04 1193.22Z" fill="#212121"/>
<path d="M1108.22 1151.05L1158.66 1242.96L1218 1213.8L1272.98 1313.99L1144.14 1377.31L1038.71 1185.21L1108.22 1151.05Z" fill="#212121"/>
<path d="M792.443 1262.08L1082.35 1119.61L1051.21 1055.01L860.477 1148.74L828.667 1090.78L726.097 1141.19L792.443 1262.08Z" fill="#212121"/>
<path d="M819.613 987.994L881.87 1101.43L1031.06 1028.11L968.806 914.674L819.613 987.994Z" fill="#212121"/>
<path d="M901.009 904.887L951.87 879.892L915.184 816.967L866.018 841.13L901.009 904.887Z" fill="#212121"/>
<path d="M1156.69 811.826L1353.35 715.177L1413 827.793L1218.03 923.609L1156.69 811.826Z" fill="#212121"/>
<path d="M1243.63 960.443L1308.9 928.366L1342.59 991.712L1278.17 1023.37L1243.63 960.443Z" fill="#212121"/>
<path d="M1108.22 1151.05L1158.66 1242.96L1218 1213.8L1272.98 1313.99L1144.14 1377.31L1038.71 1185.21L1108.22 1151.05Z" fill="#212121"/>
<path d="M792.443 1262.08L1082.35 1119.61L1051.21 1055.01L860.477 1148.74L828.667 1090.78L726.097 1141.19L792.443 1262.08Z" fill="#212121"/>
<path d="M901.009 904.887L951.87 879.892L915.184 816.967L866.018 841.13L901.009 904.887Z" fill="#212121"/>
<path d="M1243.63 960.443L1308.9 928.366L1342.59 991.712L1278.17 1023.37L1243.63 960.443Z" fill="#212121"/>
</g>
<g filter="url(#filter2_f_44_121)">
<path d="M1403.04 1883.22L1533.59 1819.07L1247.3 1297.41L1116.75 1361.57L1403.04 1883.22Z" fill="#212121"/>
<path d="M1356.22 1841.05L1406.66 1932.96L1466 1903.8L1520.98 2003.99L1392.14 2067.31L1286.71 1875.21L1356.22 1841.05Z" fill="#212121"/>
<path d="M1040.44 1952.08L1330.35 1809.61L1299.21 1745.01L1108.48 1838.74L1076.67 1780.78L974.097 1831.19L1040.44 1952.08Z" fill="#212121"/>
<path d="M1067.61 1677.99L1129.87 1791.43L1279.06 1718.11L1216.81 1604.67L1067.61 1677.99Z" fill="#212121"/>
<path d="M1149.01 1594.89L1199.87 1569.89L1163.18 1506.97L1114.02 1531.13L1149.01 1594.89Z" fill="#212121"/>
<path d="M1404.69 1501.83L1601.35 1405.18L1661 1517.79L1466.03 1613.61L1404.69 1501.83Z" fill="#212121"/>
<path d="M1491.63 1650.44L1556.9 1618.37L1590.59 1681.71L1526.17 1713.37L1491.63 1650.44Z" fill="#212121"/>
<path d="M1356.22 1841.05L1406.66 1932.96L1466 1903.8L1520.98 2003.99L1392.14 2067.31L1286.71 1875.21L1356.22 1841.05Z" fill="#212121"/>
<path d="M1040.44 1952.08L1330.35 1809.61L1299.21 1745.01L1108.48 1838.74L1076.67 1780.78L974.097 1831.19L1040.44 1952.08Z" fill="#212121"/>
<path d="M1149.01 1594.89L1199.87 1569.89L1163.18 1506.97L1114.02 1531.13L1149.01 1594.89Z" fill="#212121"/>
<path d="M1491.63 1650.44L1556.9 1618.37L1590.59 1681.71L1526.17 1713.37L1491.63 1650.44Z" fill="#212121"/>
</g>
<g filter="url(#filter3_f_44_121)">
<path d="M786.043 2353.22L916.586 2289.07L630.298 1767.41L499.754 1831.57L786.043 2353.22Z" fill="#212121"/>
<path d="M739.219 2311.05L789.66 2402.96L848.999 2373.8L903.984 2473.99L775.136 2537.31L669.709 2345.21L739.219 2311.05Z" fill="#212121"/>
<path d="M423.443 2422.08L713.352 2279.61L682.206 2215.01L491.477 2308.74L459.667 2250.78L357.097 2301.19L423.443 2422.08Z" fill="#212121"/>
<path d="M450.613 2147.99L512.87 2261.43L662.063 2188.11L599.806 2074.67L450.613 2147.99Z" fill="#212121"/>
<path d="M532.009 2064.89L582.87 2039.89L546.184 1976.97L497.018 2001.13L532.009 2064.89Z" fill="#212121"/>
<path d="M787.687 1971.83L984.35 1875.18L1044 1987.79L849.034 2083.61L787.687 1971.83Z" fill="#212121"/>
<path d="M874.631 2120.44L939.903 2088.37L973.591 2151.71L909.167 2183.37L874.631 2120.44Z" fill="#212121"/>
<path d="M739.219 2311.05L789.66 2402.96L848.999 2373.8L903.984 2473.99L775.136 2537.31L669.709 2345.21L739.219 2311.05Z" fill="#212121"/>
<path d="M423.443 2422.08L713.352 2279.61L682.206 2215.01L491.477 2308.74L459.667 2250.78L357.097 2301.19L423.443 2422.08Z" fill="#212121"/>
<path d="M532.009 2064.89L582.87 2039.89L546.184 1976.97L497.018 2001.13L532.009 2064.89Z" fill="#212121"/>
<path d="M874.631 2120.44L939.903 2088.37L973.591 2151.71L909.167 2183.37L874.631 2120.44Z" fill="#212121"/>
</g>
<g filter="url(#filter4_f_44_121)">
<path d="M543.043 1664.22L673.586 1600.07L387.298 1078.41L256.754 1142.57L543.043 1664.22Z" fill="#212121"/>
<path d="M496.219 1622.05L546.66 1713.96L605.999 1684.8L660.984 1784.99L532.136 1848.31L426.709 1656.21L496.219 1622.05Z" fill="#212121"/>
<path d="M180.443 1733.08L470.352 1590.61L439.206 1526.01L248.477 1619.74L216.667 1561.78L114.097 1612.19L180.443 1733.08Z" fill="#212121"/>
<path d="M207.613 1458.99L269.87 1572.43L419.063 1499.11L356.806 1385.67L207.613 1458.99Z" fill="#212121"/>
<path d="M289.009 1375.89L339.87 1350.89L303.184 1287.97L254.018 1312.13L289.009 1375.89Z" fill="#212121"/>
<path d="M544.687 1282.83L741.35 1186.18L801.002 1298.79L606.034 1394.61L544.687 1282.83Z" fill="#212121"/>
<path d="M631.631 1431.44L696.903 1399.37L730.591 1462.71L666.167 1494.37L631.631 1431.44Z" fill="#212121"/>
<path d="M496.219 1622.05L546.66 1713.96L605.999 1684.8L660.984 1784.99L532.136 1848.31L426.709 1656.21L496.219 1622.05Z" fill="#212121"/>
<path d="M180.443 1733.08L470.352 1590.61L439.206 1526.01L248.477 1619.74L216.667 1561.78L114.097 1612.19L180.443 1733.08Z" fill="#212121"/>
<path d="M289.009 1375.89L339.87 1350.89L303.184 1287.97L254.018 1312.13L289.009 1375.89Z" fill="#212121"/>
<path d="M631.631 1431.44L696.903 1399.37L730.591 1462.71L666.167 1494.37L631.631 1431.44Z" fill="#212121"/>
</g>
<g filter="url(#filter5_f_44_121)">
<path d="M797.581 2163.85L697.075 2058.7L285.916 2488.85L386.421 2594L797.581 2163.85Z" fill="#212121"/>
<path d="M771.475 2221.2L843.917 2145.41L798.233 2097.62L877.202 2015L976.402 2118.78L824.991 2277.19L771.475 2221.2Z" fill="#212121"/>
<path d="M972.486 2488.85L749.286 2255.34L697.075 2304.5L843.917 2458.13L798.233 2505.92L877.202 2588.54L972.486 2488.85Z" fill="#212121"/>
<path d="M702.949 2545.52L792.359 2451.98L677.496 2331.81L588.085 2425.35L702.949 2545.52Z" fill="#212121"/>
<path d="M599.18 2492.95L560.022 2451.98L511.074 2505.92L548.927 2545.52L599.18 2492.95Z" fill="#212121"/>
<path d="M433.411 2277.19L282 2118.78L371.411 2027.97L521.516 2185.01L433.411 2277.19Z" fill="#212121"/>
<path d="M548.927 2149.51L498.674 2096.93L548.927 2045.73L598.527 2097.62L548.927 2149.51Z" fill="#212121"/>
<path d="M771.475 2221.2L843.917 2145.41L798.233 2097.62L877.202 2015L976.402 2118.78L824.991 2277.19L771.475 2221.2Z" fill="#212121"/>
<path d="M972.486 2488.85L749.286 2255.34L697.075 2304.5L843.917 2458.13L798.233 2505.92L877.202 2588.54L972.486 2488.85Z" fill="#212121"/>
<path d="M599.18 2492.95L560.022 2451.98L511.074 2505.92L548.927 2545.52L599.18 2492.95Z" fill="#212121"/>
<path d="M548.927 2149.51L498.674 2096.93L548.927 2045.73L598.527 2097.62L548.927 2149.51Z" fill="#212121"/>
</g>
<g filter="url(#filter6_f_44_121)">
<path d="M1155.04 3094.22L1285.59 3030.07L999.298 2508.41L868.754 2572.57L1155.04 3094.22Z" fill="#212121"/>
<path d="M1108.22 3052.05L1158.66 3143.96L1218 3114.8L1272.98 3214.99L1144.14 3278.31L1038.71 3086.21L1108.22 3052.05Z" fill="#212121"/>
<path d="M792.443 3163.08L1082.35 3020.61L1051.21 2956.01L860.477 3049.74L828.667 2991.78L726.097 3042.19L792.443 3163.08Z" fill="#212121"/>
<path d="M819.613 2888.99L881.87 3002.43L1031.06 2929.11L968.806 2815.67L819.613 2888.99Z" fill="#212121"/>
<path d="M901.009 2805.89L951.87 2780.89L915.184 2717.97L866.018 2742.13L901.009 2805.89Z" fill="#212121"/>
<path d="M1156.69 2712.83L1353.35 2616.18L1413 2728.79L1218.03 2824.61L1156.69 2712.83Z" fill="#212121"/>
<path d="M1243.63 2861.44L1308.9 2829.37L1342.59 2892.71L1278.17 2924.37L1243.63 2861.44Z" fill="#212121"/>
<path d="M1108.22 3052.05L1158.66 3143.96L1218 3114.8L1272.98 3214.99L1144.14 3278.31L1038.71 3086.21L1108.22 3052.05Z" fill="#212121"/>
<path d="M792.443 3163.08L1082.35 3020.61L1051.21 2956.01L860.477 3049.74L828.667 2991.78L726.097 3042.19L792.443 3163.08Z" fill="#212121"/>
<path d="M901.009 2805.89L951.87 2780.89L915.184 2717.97L866.018 2742.13L901.009 2805.89Z" fill="#212121"/>
<path d="M1243.63 2861.44L1308.9 2829.37L1342.59 2892.71L1278.17 2924.37L1243.63 2861.44Z" fill="#212121"/>
</g>
<g filter="url(#filter7_f_44_121)">
<path d="M1403.04 3784.22L1533.59 3720.07L1247.3 3198.41L1116.75 3262.57L1403.04 3784.22Z" fill="#212121"/>
<path d="M1356.22 3742.05L1406.66 3833.96L1466 3804.8L1520.98 3904.99L1392.14 3968.31L1286.71 3776.21L1356.22 3742.05Z" fill="#212121"/>
<path d="M1040.44 3853.08L1330.35 3710.61L1299.21 3646.01L1108.48 3739.74L1076.67 3681.78L974.097 3732.19L1040.44 3853.08Z" fill="#212121"/>
<path d="M1067.61 3578.99L1129.87 3692.43L1279.06 3619.11L1216.81 3505.67L1067.61 3578.99Z" fill="#212121"/>
<path d="M1149.01 3495.89L1199.87 3470.89L1163.18 3407.97L1114.02 3432.13L1149.01 3495.89Z" fill="#212121"/>
<path d="M1404.69 3402.83L1601.35 3306.18L1661 3418.79L1466.03 3514.61L1404.69 3402.83Z" fill="#212121"/>
<path d="M1491.63 3551.44L1556.9 3519.37L1590.59 3582.71L1526.17 3614.37L1491.63 3551.44Z" fill="#212121"/>
<path d="M1356.22 3742.05L1406.66 3833.96L1466 3804.8L1520.98 3904.99L1392.14 3968.31L1286.71 3776.21L1356.22 3742.05Z" fill="#212121"/>
<path d="M1040.44 3853.08L1330.35 3710.61L1299.21 3646.01L1108.48 3739.74L1076.67 3681.78L974.097 3732.19L1040.44 3853.08Z" fill="#212121"/>
<path d="M1149.01 3495.89L1199.87 3470.89L1163.18 3407.97L1114.02 3432.13L1149.01 3495.89Z" fill="#212121"/>
<path d="M1491.63 3551.44L1556.9 3519.37L1590.59 3582.71L1526.17 3614.37L1491.63 3551.44Z" fill="#212121"/>
</g>
<g filter="url(#filter8_f_44_121)">
<path d="M786.043 4254.22L916.586 4190.07L630.298 3668.41L499.754 3732.57L786.043 4254.22Z" fill="#212121"/>
<path d="M739.219 4212.05L789.66 4303.96L848.999 4274.8L903.984 4374.99L775.136 4438.31L669.709 4246.21L739.219 4212.05Z" fill="#212121"/>
<path d="M423.443 4323.08L713.352 4180.61L682.206 4116.01L491.477 4209.74L459.667 4151.78L357.097 4202.19L423.443 4323.08Z" fill="#212121"/>
<path d="M450.613 4048.99L512.87 4162.43L662.063 4089.11L599.806 3975.67L450.613 4048.99Z" fill="#212121"/>
<path d="M532.009 3965.89L582.87 3940.89L546.184 3877.97L497.018 3902.13L532.009 3965.89Z" fill="#212121"/>
<path d="M787.687 3872.83L984.35 3776.18L1044 3888.79L849.034 3984.61L787.687 3872.83Z" fill="#212121"/>
<path d="M874.631 4021.44L939.903 3989.37L973.591 4052.71L909.167 4084.37L874.631 4021.44Z" fill="#212121"/>
<path d="M739.219 4212.05L789.66 4303.96L848.999 4274.8L903.984 4374.99L775.136 4438.31L669.709 4246.21L739.219 4212.05Z" fill="#212121"/>
<path d="M423.443 4323.08L713.352 4180.61L682.206 4116.01L491.477 4209.74L459.667 4151.78L357.097 4202.19L423.443 4323.08Z" fill="#212121"/>
<path d="M532.009 3965.89L582.87 3940.89L546.184 3877.97L497.018 3902.13L532.009 3965.89Z" fill="#212121"/>
<path d="M874.631 4021.44L939.903 3989.37L973.591 4052.71L909.167 4084.37L874.631 4021.44Z" fill="#212121"/>
</g>
<g filter="url(#filter9_f_44_121)">
<path d="M543.043 3565.22L673.586 3501.07L387.298 2979.41L256.754 3043.57L543.043 3565.22Z" fill="#212121"/>
<path d="M496.219 3523.05L546.66 3614.96L605.999 3585.8L660.984 3685.99L532.136 3749.31L426.709 3557.21L496.219 3523.05Z" fill="#212121"/>
<path d="M180.443 3634.08L470.352 3491.61L439.206 3427.01L248.477 3520.74L216.667 3462.78L114.097 3513.19L180.443 3634.08Z" fill="#212121"/>
<path d="M207.613 3359.99L269.87 3473.43L419.063 3400.11L356.806 3286.67L207.613 3359.99Z" fill="#212121"/>
<path d="M289.009 3276.89L339.87 3251.89L303.184 3188.97L254.018 3213.13L289.009 3276.89Z" fill="#212121"/>
<path d="M544.687 3183.83L741.35 3087.18L801.002 3199.79L606.034 3295.61L544.687 3183.83Z" fill="#212121"/>
<path d="M631.631 3332.44L696.903 3300.37L730.591 3363.71L666.167 3395.37L631.631 3332.44Z" fill="#212121"/>
<path d="M496.219 3523.05L546.66 3614.96L605.999 3585.8L660.984 3685.99L532.136 3749.31L426.709 3557.21L496.219 3523.05Z" fill="#212121"/>
<path d="M180.443 3634.08L470.352 3491.61L439.206 3427.01L248.477 3520.74L216.667 3462.78L114.097 3513.19L180.443 3634.08Z" fill="#212121"/>
<path d="M289.009 3276.89L339.87 3251.89L303.184 3188.97L254.018 3213.13L289.009 3276.89Z" fill="#212121"/>
<path d="M631.631 3332.44L696.903 3300.37L730.591 3363.71L666.167 3395.37L631.631 3332.44Z" fill="#212121"/>
</g>
<g filter="url(#filter10_f_44_121)">
<path d="M981.734 6460.73L1082.24 6565.88L1493.4 6135.73L1392.89 6030.58L981.734 6460.73Z" fill="#212121"/>
<path d="M1007.84 6403.38L935.397 6479.17L981.081 6526.96L902.113 6609.58L802.912 6505.8L954.323 6347.39L1007.84 6403.38Z" fill="#212121"/>
<path d="M806.828 6135.73L1030.03 6369.24L1082.24 6320.08L935.397 6166.45L981.081 6118.66L902.113 6036.04L806.828 6135.73Z" fill="#212121"/>
<path d="M1076.37 6079.06L986.955 6172.6L1101.82 6292.77L1191.23 6199.23L1076.37 6079.06Z" fill="#212121"/>
<path d="M1180.13 6131.63L1219.29 6172.6L1268.24 6118.66L1230.39 6079.06L1180.13 6131.63Z" fill="#212121"/>
<path d="M1345.9 6347.39L1497.31 6505.8L1407.9 6596.61L1257.8 6439.57L1345.9 6347.39Z" fill="#212121"/>
<path d="M1230.39 6475.07L1280.64 6527.65L1230.39 6578.86L1180.79 6526.96L1230.39 6475.07Z" fill="#212121"/>
<path d="M1007.84 6403.38L935.397 6479.17L981.081 6526.96L902.113 6609.58L802.912 6505.8L954.323 6347.39L1007.84 6403.38Z" fill="#212121"/>
<path d="M806.828 6135.73L1030.03 6369.24L1082.24 6320.08L935.397 6166.45L981.081 6118.66L902.113 6036.04L806.828 6135.73Z" fill="#212121"/>
<path d="M1180.13 6131.63L1219.29 6172.6L1268.24 6118.66L1230.39 6079.06L1180.13 6131.63Z" fill="#212121"/>
<path d="M1230.39 6475.07L1280.64 6527.65L1230.39 6578.86L1180.79 6526.96L1230.39 6475.07Z" fill="#212121"/>
</g>
<g filter="url(#filter11_f_44_121)">
<path d="M624.272 5530.36L493.728 5594.51L780.017 6116.17L910.561 6052.01L624.272 5530.36Z" fill="#212121"/>
<path d="M671.095 5572.53L620.654 5480.62L561.316 5509.78L506.33 5409.59L635.179 5346.27L740.606 5538.37L671.095 5572.53Z" fill="#212121"/>
<path d="M986.871 5461.5L696.963 5603.97L728.108 5668.57L918.838 5574.84L950.648 5632.8L1053.22 5582.39L986.871 5461.5Z" fill="#212121"/>
<path d="M959.701 5735.59L897.445 5622.15L748.252 5695.47L810.508 5808.91L959.701 5735.59Z" fill="#212121"/>
<path d="M878.306 5818.69L827.444 5843.69L864.131 5906.61L913.296 5882.45L878.306 5818.69Z" fill="#212121"/>
<path d="M622.628 5911.75L425.965 6008.4L366.312 5895.79L561.28 5799.97L622.628 5911.75Z" fill="#212121"/>
<path d="M535.684 5763.14L470.412 5795.22L436.723 5731.87L501.147 5700.21L535.684 5763.14Z" fill="#212121"/>
<path d="M671.095 5572.53L620.654 5480.62L561.316 5509.78L506.33 5409.59L635.179 5346.27L740.606 5538.37L671.095 5572.53Z" fill="#212121"/>
<path d="M986.871 5461.5L696.963 5603.97L728.108 5668.57L918.838 5574.84L950.648 5632.8L1053.22 5582.39L986.871 5461.5Z" fill="#212121"/>
<path d="M878.306 5818.69L827.444 5843.69L864.131 5906.61L913.296 5882.45L878.306 5818.69Z" fill="#212121"/>
<path d="M535.684 5763.14L470.412 5795.22L436.723 5731.87L501.147 5700.21L535.684 5763.14Z" fill="#212121"/>
</g>
<g filter="url(#filter12_f_44_121)">
<path d="M376.272 4840.36L245.728 4904.51L532.017 5426.17L662.561 5362.01L376.272 4840.36Z" fill="#212121"/>
<path d="M423.095 4882.53L372.654 4790.62L313.316 4819.78L258.33 4719.59L387.179 4656.27L492.606 4848.37L423.095 4882.53Z" fill="#212121"/>
<path d="M738.871 4771.5L448.963 4913.97L480.108 4978.57L670.838 4884.84L702.648 4942.8L805.218 4892.39L738.871 4771.5Z" fill="#212121"/>
<path d="M711.701 5045.59L649.445 4932.15L500.252 5005.47L562.508 5118.91L711.701 5045.59Z" fill="#212121"/>
<path d="M630.306 5128.69L579.444 5153.69L616.131 5216.61L665.296 5192.45L630.306 5128.69Z" fill="#212121"/>
<path d="M374.628 5221.75L177.965 5318.4L118.312 5205.79L313.28 5109.97L374.628 5221.75Z" fill="#212121"/>
<path d="M287.684 5073.14L222.412 5105.22L188.723 5041.87L253.147 5010.21L287.684 5073.14Z" fill="#212121"/>
<path d="M423.095 4882.53L372.654 4790.62L313.316 4819.78L258.33 4719.59L387.179 4656.27L492.606 4848.37L423.095 4882.53Z" fill="#212121"/>
<path d="M738.871 4771.5L448.963 4913.97L480.108 4978.57L670.838 4884.84L702.648 4942.8L805.218 4892.39L738.871 4771.5Z" fill="#212121"/>
<path d="M630.306 5128.69L579.444 5153.69L616.131 5216.61L665.296 5192.45L630.306 5128.69Z" fill="#212121"/>
<path d="M287.684 5073.14L222.412 5105.22L188.723 5041.87L253.147 5010.21L287.684 5073.14Z" fill="#212121"/>
</g>
<g filter="url(#filter13_f_44_121)">
<path d="M993.272 4370.36L862.728 4434.51L1149.02 4956.17L1279.56 4892.01L993.272 4370.36Z" fill="#212121"/>
<path d="M1040.1 4412.53L989.654 4320.62L930.316 4349.78L875.33 4249.59L1004.18 4186.27L1109.61 4378.37L1040.1 4412.53Z" fill="#212121"/>
<path d="M1355.87 4301.5L1065.96 4443.97L1097.11 4508.57L1287.84 4414.84L1319.65 4472.8L1422.22 4422.39L1355.87 4301.5Z" fill="#212121"/>
<path d="M1328.7 4575.59L1266.44 4462.15L1117.25 4535.47L1179.51 4648.91L1328.7 4575.59Z" fill="#212121"/>
<path d="M1247.31 4658.69L1196.44 4683.69L1233.13 4746.61L1282.3 4722.45L1247.31 4658.69Z" fill="#212121"/>
<path d="M991.628 4751.75L794.965 4848.4L735.312 4735.79L930.28 4639.97L991.628 4751.75Z" fill="#212121"/>
<path d="M904.684 4603.14L839.412 4635.22L805.723 4571.87L870.147 4540.21L904.684 4603.14Z" fill="#212121"/>
<path d="M1040.1 4412.53L989.654 4320.62L930.316 4349.78L875.33 4249.59L1004.18 4186.27L1109.61 4378.37L1040.1 4412.53Z" fill="#212121"/>
<path d="M1355.87 4301.5L1065.96 4443.97L1097.11 4508.57L1287.84 4414.84L1319.65 4472.8L1422.22 4422.39L1355.87 4301.5Z" fill="#212121"/>
<path d="M1247.31 4658.69L1196.44 4683.69L1233.13 4746.61L1282.3 4722.45L1247.31 4658.69Z" fill="#212121"/>
<path d="M904.684 4603.14L839.412 4635.22L805.723 4571.87L870.147 4540.21L904.684 4603.14Z" fill="#212121"/>
</g>
<g filter="url(#filter14_f_44_121)">
<path d="M1236.27 5059.36L1105.73 5123.51L1392.02 5645.17L1522.56 5581.01L1236.27 5059.36Z" fill="#212121"/>
<path d="M1283.1 5101.53L1232.65 5009.62L1173.32 5038.78L1118.33 4938.59L1247.18 4875.27L1352.61 5067.37L1283.1 5101.53Z" fill="#212121"/>
<path d="M1598.87 4990.5L1308.96 5132.97L1340.11 5197.57L1530.84 5103.84L1562.65 5161.8L1665.22 5111.39L1598.87 4990.5Z" fill="#212121"/>
<path d="M1571.7 5264.59L1509.44 5151.15L1360.25 5224.47L1422.51 5337.91L1571.7 5264.59Z" fill="#212121"/>
<path d="M1490.31 5347.69L1439.44 5372.69L1476.13 5435.61L1525.3 5411.45L1490.31 5347.69Z" fill="#212121"/>
<path d="M1234.63 5440.75L1037.96 5537.4L978.312 5424.79L1173.28 5328.97L1234.63 5440.75Z" fill="#212121"/>
<path d="M1147.68 5292.14L1082.41 5324.22L1048.72 5260.87L1113.15 5229.21L1147.68 5292.14Z" fill="#212121"/>
<path d="M1283.1 5101.53L1232.65 5009.62L1173.32 5038.78L1118.33 4938.59L1247.18 4875.27L1352.61 5067.37L1283.1 5101.53Z" fill="#212121"/>
<path d="M1598.87 4990.5L1308.96 5132.97L1340.11 5197.57L1530.84 5103.84L1562.65 5161.8L1665.22 5111.39L1598.87 4990.5Z" fill="#212121"/>
<path d="M1490.31 5347.69L1439.44 5372.69L1476.13 5435.61L1525.3 5411.45L1490.31 5347.69Z" fill="#212121"/>
<path d="M1147.68 5292.14L1082.41 5324.22L1048.72 5260.87L1113.15 5229.21L1147.68 5292.14Z" fill="#212121"/>
</g>
<defs>
<filter id="filter0_f_44_121" x="168" y="0" width="922.402" height="807" filterUnits="userSpaceOnUse" color-interpolation-filters="sRGB">
<feFlood flood-opacity="0" result="BackgroundImageFix"/>
<feBlend mode="normal" in="SourceGraphic" in2="BackgroundImageFix" result="shape"/>
<feGaussianBlur stdDeviation="57" result="effect1_foregroundBlur_44_121"/>
</filter>
<filter id="filter1_f_44_121" x="612.097" y="488.446" width="914.905" height="1002.87" filterUnits="userSpaceOnUse" color-interpolation-filters="sRGB">
<feFlood flood-opacity="0" result="BackgroundImageFix"/>
<feBlend mode="normal" in="SourceGraphic" in2="BackgroundImageFix" result="shape"/>
<feGaussianBlur stdDeviation="57" result="effect1_foregroundBlur_44_121"/>
</filter>
<filter id="filter2_f_44_121" x="860.097" y="1178.45" width="914.905" height="1002.87" filterUnits="userSpaceOnUse" color-interpolation-filters="sRGB">
<feFlood flood-opacity="0" result="BackgroundImageFix"/>
<feBlend mode="normal" in="SourceGraphic" in2="BackgroundImageFix" result="shape"/>
<feGaussianBlur stdDeviation="57" result="effect1_foregroundBlur_44_121"/>
</filter>
<filter id="filter3_f_44_121" x="243.097" y="1648.45" width="914.905" height="1002.87" filterUnits="userSpaceOnUse" color-interpolation-filters="sRGB">
<feFlood flood-opacity="0" result="BackgroundImageFix"/>
<feBlend mode="normal" in="SourceGraphic" in2="BackgroundImageFix" result="shape"/>
<feGaussianBlur stdDeviation="57" result="effect1_foregroundBlur_44_121"/>
</filter>
<filter id="filter4_f_44_121" x="0.0966797" y="959.446" width="914.905" height="1002.87" filterUnits="userSpaceOnUse" color-interpolation-filters="sRGB">
<feFlood flood-opacity="0" result="BackgroundImageFix"/>
<feBlend mode="normal" in="SourceGraphic" in2="BackgroundImageFix" result="shape"/>
<feGaussianBlur stdDeviation="57" result="effect1_foregroundBlur_44_121"/>
</filter>
<filter id="filter5_f_44_121" x="168" y="1901" width="922.402" height="807" filterUnits="userSpaceOnUse" color-interpolation-filters="sRGB">
<feFlood flood-opacity="0" result="BackgroundImageFix"/>
<feBlend mode="normal" in="SourceGraphic" in2="BackgroundImageFix" result="shape"/>
<feGaussianBlur stdDeviation="57" result="effect1_foregroundBlur_44_121"/>
</filter>
<filter id="filter6_f_44_121" x="612.097" y="2389.45" width="914.905" height="1002.87" filterUnits="userSpaceOnUse" color-interpolation-filters="sRGB">
<feFlood flood-opacity="0" result="BackgroundImageFix"/>
<feBlend mode="normal" in="SourceGraphic" in2="BackgroundImageFix" result="shape"/>
<feGaussianBlur stdDeviation="57" result="effect1_foregroundBlur_44_121"/>
</filter>
<filter id="filter7_f_44_121" x="860.097" y="3079.45" width="914.905" height="1002.87" filterUnits="userSpaceOnUse" color-interpolation-filters="sRGB">
<feFlood flood-opacity="0" result="BackgroundImageFix"/>
<feBlend mode="normal" in="SourceGraphic" in2="BackgroundImageFix" result="shape"/>
<feGaussianBlur stdDeviation="57" result="effect1_foregroundBlur_44_121"/>
</filter>
<filter id="filter8_f_44_121" x="243.097" y="3549.45" width="914.905" height="1002.87" filterUnits="userSpaceOnUse" color-interpolation-filters="sRGB">
<feFlood flood-opacity="0" result="BackgroundImageFix"/>
<feBlend mode="normal" in="SourceGraphic" in2="BackgroundImageFix" result="shape"/>
<feGaussianBlur stdDeviation="57" result="effect1_foregroundBlur_44_121"/>
</filter>
<filter id="filter9_f_44_121" x="0.0966797" y="2860.45" width="914.905" height="1002.87" filterUnits="userSpaceOnUse" color-interpolation-filters="sRGB">
<feFlood flood-opacity="0" result="BackgroundImageFix"/>
<feBlend mode="normal" in="SourceGraphic" in2="BackgroundImageFix" result="shape"/>
<feGaussianBlur stdDeviation="57" result="effect1_foregroundBlur_44_121"/>
</filter>
<filter id="filter10_f_44_121" x="688.912" y="5916.58" width="922.402" height="807" filterUnits="userSpaceOnUse" color-interpolation-filters="sRGB">
<feFlood flood-opacity="0" result="BackgroundImageFix"/>
<feBlend mode="normal" in="SourceGraphic" in2="BackgroundImageFix" result="shape"/>
<feGaussianBlur stdDeviation="57" result="effect1_foregroundBlur_44_121"/>
</filter>
<filter id="filter11_f_44_121" x="252.312" y="5232.27" width="914.905" height="1002.87" filterUnits="userSpaceOnUse" color-interpolation-filters="sRGB">
<feFlood flood-opacity="0" result="BackgroundImageFix"/>
<feBlend mode="normal" in="SourceGraphic" in2="BackgroundImageFix" result="shape"/>
<feGaussianBlur stdDeviation="57" result="effect1_foregroundBlur_44_121"/>
</filter>
<filter id="filter12_f_44_121" x="4.3125" y="4542.27" width="914.905" height="1002.87" filterUnits="userSpaceOnUse" color-interpolation-filters="sRGB">
<feFlood flood-opacity="0" result="BackgroundImageFix"/>
<feBlend mode="normal" in="SourceGraphic" in2="BackgroundImageFix" result="shape"/>
<feGaussianBlur stdDeviation="57" result="effect1_foregroundBlur_44_121"/>
</filter>
<filter id="filter13_f_44_121" x="621.312" y="4072.27" width="914.905" height="1002.87" filterUnits="userSpaceOnUse" color-interpolation-filters="sRGB">
<feFlood flood-opacity="0" result="BackgroundImageFix"/>
<feBlend mode="normal" in="SourceGraphic" in2="BackgroundImageFix" result="shape"/>
<feGaussianBlur stdDeviation="57" result="effect1_foregroundBlur_44_121"/>
</filter>
<filter id="filter14_f_44_121" x="864.312" y="4761.27" width="914.905" height="1002.87" filterUnits="userSpaceOnUse" color-interpolation-filters="sRGB">
<feFlood flood-opacity="0" result="BackgroundImageFix"/>
<feBlend mode="normal" in="SourceGraphic" in2="BackgroundImageFix" result="shape"/>
<feGaussianBlur stdDeviation="57" result="effect1_foregroundBlur_44_121"/>
</filter>
</defs>
</svg>
