<svg width="41" height="38" viewBox="0 0 41 38" fill="none" xmlns="http://www.w3.org/2000/svg">
<path fill-rule="evenodd" clip-rule="evenodd" d="M12.1583 1.94662C12.5961 0.77572 13.7122 0 14.9591 0H26.0408C27.2877 0 28.4039 0.77572 28.8416 1.94664L40.8068 33.9466C41.5402 35.9078 40.0947 38 38.0059 38H30.9126C29.6658 38 28.5497 37.2242 28.1119 36.0534L20.4999 15.696L16.6473 26H20.5667C21.8137 26 22.9298 26.7758 23.3676 27.9466L25.611 33.9466C26.3445 35.9078 24.8989 38 22.8104 38H2.99399C0.905455 38 -0.540176 35.9078 0.193169 33.9466L12.1583 1.94662ZM15.6501 4L4.4328 34H21.3714L19.8757 30H13.7696C13.1156 30 12.5031 29.6784 12.1305 29.1392C11.758 28.6 11.6727 27.912 11.9024 27.2978L18.6328 9.29776C18.9247 8.51714 19.6687 8 20.4999 8C21.3313 8 22.0753 8.51714 22.3673 9.29776L31.6038 34H36.5671L25.3498 4H15.6501Z" fill="white"/>
</svg>
