<svg width="45" height="44" viewBox="0 0 45 44" fill="none" xmlns="http://www.w3.org/2000/svg">
<g opacity="0.75">
<path d="M14.6686 32.7918H24.1645C29.0942 32.7918 32.0564 30.3105 32.0564 26.2443C32.0564 23.233 29.9769 21.0086 26.8535 20.6861V20.4129C29.127 20.0303 30.9033 17.8715 30.9033 15.4504C30.9033 11.8979 28.2936 9.6845 23.9569 9.6845H14.6686V32.7918ZM18.2566 19.4701V12.7287H23.1207C25.7795 12.7287 27.3344 13.9775 27.3344 16.1089C27.3344 18.3005 25.6839 19.4701 22.514 19.4701H18.2566ZM18.2566 29.7503V22.3039H23.2354C26.613 22.3039 28.392 23.5691 28.392 25.9875C28.392 28.4359 26.6786 29.7503 23.4431 29.7503H18.2566Z" fill="white"/>
<path d="M0.835938 10.9306C0.835938 8.03161 1.98755 5.25138 4.03743 3.20149C6.08732 1.15161 8.86755 0 11.7665 0H33.6277C36.5267 0 39.3069 1.15161 41.3568 3.20149C43.4067 5.25138 44.5583 8.03161 44.5583 10.9306V32.7918C44.5583 35.6907 43.4067 38.471 41.3568 40.5209C39.3069 42.5707 36.5267 43.7223 33.6277 43.7223H11.7665C8.86755 43.7223 6.08732 42.5707 4.03743 40.5209C1.98755 38.471 0.835938 35.6907 0.835938 32.7918V10.9306ZM11.7665 2.73265C9.5923 2.73265 7.50712 3.59636 5.96971 5.13377C4.43229 6.67118 3.56858 8.75636 3.56858 10.9306V32.7918C3.56858 34.966 4.43229 37.0512 5.96971 38.5886C7.50712 40.126 9.5923 40.9897 11.7665 40.9897H33.6277C35.8019 40.9897 37.8871 40.126 39.4245 38.5886C40.9619 37.0512 41.8256 34.966 41.8256 32.7918V10.9306C41.8256 8.75636 40.9619 6.67118 39.4245 5.13377C37.8871 3.59636 35.8019 2.73265 33.6277 2.73265H11.7665Z" fill="white"/>
</g>
</svg>
