<svg width="27" height="30" viewBox="0 0 27 30" fill="none" xmlns="http://www.w3.org/2000/svg">
<path d="M23.9927 5.94434C23.9704 5.85559 23.8862 5.66829 23.5796 5.39062C23.1703 5.02009 22.4794 4.60599 21.4585 4.22314C19.4212 3.45917 16.5577 3 13.5 3C10.4423 3 7.57876 3.45917 5.5415 4.22314C4.5206 4.60599 3.82969 5.02009 3.42041 5.39062C3.01079 5.76153 3 5.97196 3 6L3.00732 6.05566C3.02961 6.14441 3.11377 6.33171 3.42041 6.60938C3.82969 6.97991 4.5206 7.39401 5.5415 7.77686C7.57876 8.54083 10.4423 9 13.5 9C16.5577 9 19.4212 8.54083 21.4585 7.77686C22.4794 7.39401 23.1703 6.97991 23.5796 6.60938C23.9892 6.23847 24 6.02804 24 6L23.9927 5.94434ZM26.9927 6.2168C26.9213 7.28458 26.3294 8.16843 25.5938 8.83447C24.8083 9.54557 23.7412 10.1254 22.5117 10.5864C20.0481 11.5102 16.8074 12 13.5 12C10.1926 12 6.95187 11.5102 4.48828 10.5864C3.25881 10.1254 2.19171 9.54557 1.40625 8.83447C0.670581 8.16843 0.0787304 7.28458 0.00732422 6.2168L0 6C0 4.8346 0.621358 3.87613 1.40625 3.16553C2.19171 2.45443 3.25881 1.87463 4.48828 1.41357C6.95187 0.489767 10.1926 0 13.5 0C16.8074 0 20.0481 0.489767 22.5117 1.41357C23.7412 1.87463 24.8083 2.45443 25.5938 3.16553C26.3786 3.87613 27 4.8346 27 6L26.9927 6.2168Z" fill="white"/>
<path d="M0 15V6C0 5.17157 0.671573 4.5 1.5 4.5C2.32843 4.5 3 5.17157 3 6V15L3.00732 15.0557C3.02961 15.1444 3.11377 15.3317 3.42041 15.6094C3.82969 15.9799 4.5206 16.394 5.5415 16.7769C7.57876 17.5408 10.4423 18 13.5 18C16.5577 18 19.4212 17.5408 21.4585 16.7769C22.4794 16.394 23.1703 15.9799 23.5796 15.6094C23.8862 15.3317 23.9704 15.1444 23.9927 15.0557L24 15V6C24 5.17157 24.6716 4.5 25.5 4.5C26.3284 4.5 27 5.17157 27 6V15C27 16.1654 26.3786 17.1239 25.5938 17.8345C24.8083 18.5456 23.7412 19.1254 22.5117 19.5864C20.0481 20.5102 16.8074 21 13.5 21C10.1926 21 6.95187 20.5102 4.48828 19.5864C3.25881 19.1254 2.19171 18.5456 1.40625 17.8345C0.621358 17.1239 0 16.1654 0 15Z" fill="white"/>
<path d="M0 24V15C0 14.1716 0.671573 13.5 1.5 13.5C2.32843 13.5 3 14.1716 3 15V24L3.00732 24.0557C3.02961 24.1444 3.11377 24.3317 3.42041 24.6094C3.82969 24.9799 4.5206 25.394 5.5415 25.7769C7.57876 26.5408 10.4423 27 13.5 27L14.6367 26.9795C17.261 26.8813 19.676 26.4453 21.4585 25.7769C22.4794 25.394 23.1703 24.9799 23.5796 24.6094C23.8862 24.3317 23.9704 24.1444 23.9927 24.0557L24 24V15C24 14.1716 24.6716 13.5 25.5 13.5C26.3284 13.5 27 14.1716 27 15V24C27 25.1654 26.3786 26.1239 25.5938 26.8345C24.8083 27.5456 23.7412 28.1254 22.5117 28.5864C20.2022 29.4525 17.2097 29.9369 14.1196 29.9941L13.5 30C10.1926 30 6.95187 29.5102 4.48828 28.5864C3.25881 28.1254 2.19171 27.5456 1.40625 26.8345C0.621358 26.1239 0 25.1654 0 24Z" fill="white"/>
</svg>
