<svg width="29" height="30" viewBox="0 0 29 30" fill="none" xmlns="http://www.w3.org/2000/svg">
<path d="M26.1 13.4976C26.1 7.86127 21.071 2.99947 14.5 2.99947C11.4235 2.99947 8.47244 4.26297 6.29702 6.51301C4.1216 8.76305 2.9 11.8153 2.9 14.9973C2.9 18.1794 4.1216 21.2316 6.29702 23.4817C8.47244 25.7317 11.4235 26.9952 14.5 26.9952C14.544 26.9952 14.5879 26.997 14.6317 27.0011C14.7222 27.0097 14.8138 26.9886 14.8922 26.941C14.9704 26.8934 15.0324 26.8218 15.0692 26.736C15.1061 26.6501 15.1159 26.5542 15.0976 26.4621C15.0845 26.3969 15.0537 26.3391 15.0154 26.2864C14.2776 25.7996 13.6961 25.0947 13.3516 24.2579C12.9714 23.3344 12.9005 22.3059 13.1505 21.3361C13.4006 20.3665 13.9568 19.5113 14.7308 18.9063C15.4989 18.3061 16.4378 17.9861 17.4 17.9968H21.025C22.4214 17.9968 23.7328 17.4836 24.6755 16.6172C25.6119 15.7565 26.1 14.6289 26.1 13.4976ZM29 13.4976C29 15.5455 28.1135 17.4706 26.6027 18.8595C25.0978 20.2426 23.0883 20.9963 21.025 20.9963H17.3773C17.0539 20.9909 16.7377 21.0978 16.4796 21.2995C16.2215 21.5012 16.0362 21.7861 15.9528 22.1094C15.8695 22.4327 15.8927 22.7755 16.0194 23.0833C16.1144 23.314 16.2635 23.5147 16.4513 23.6692L16.6523 23.8083L16.7982 23.905C16.845 23.9399 16.8902 23.9772 16.9327 24.0177C17.4449 24.5066 17.7971 25.1498 17.9381 25.8558C18.079 26.5617 18.0016 27.2958 17.7186 27.9545C17.4355 28.6131 16.9602 29.1642 16.3592 29.529C15.7861 29.8767 15.1263 30.0359 14.4646 29.9932C10.6317 29.9836 6.95756 28.4063 4.24663 25.6024C1.52735 22.7899 0 18.9749 0 14.9973C0 11.0198 1.52735 7.20484 4.24663 4.39229C6.96591 1.57974 10.6544 5.927e-08 14.5 0C22.342 0 29 5.8823 29 13.4976Z" fill="white"/>
<path d="M6.525 12.7477C6.525 11.9522 6.83075 11.1895 7.37461 10.627C7.91846 10.0645 8.65587 9.74828 9.425 9.74828C10.1941 9.74828 10.9315 10.0645 11.4754 10.627C12.0192 11.1895 12.325 11.9522 12.325 12.7477C12.325 13.5433 12.0192 14.306 11.4754 14.8685C10.9315 15.431 10.1941 15.7472 9.425 15.7472C8.65587 15.7472 7.91846 15.431 7.37461 14.8685C6.83075 14.306 6.525 13.5433 6.525 12.7477Z" fill="white"/>
<path d="M12.325 8.24854C12.325 7.45303 12.6308 6.69033 13.1746 6.12782C13.7185 5.56531 14.4559 5.24907 15.225 5.24907C15.9941 5.24907 16.7315 5.56531 17.2754 6.12782C17.8192 6.69033 18.125 7.45303 18.125 8.24854C18.125 9.04405 17.8192 9.80675 17.2754 10.3693C16.7315 10.9318 15.9941 11.248 15.225 11.248C14.4559 11.248 13.7185 10.9318 13.1746 10.3693C12.6308 9.80675 12.325 9.04405 12.325 8.24854Z" fill="white"/>
<path d="M18.125 12.7477C18.125 11.9522 18.4308 11.1895 18.9746 10.627C19.5185 10.0645 20.2559 9.74828 21.025 9.74828C21.7941 9.74828 22.5315 10.0645 23.0754 10.627C23.6192 11.1895 23.925 11.9522 23.925 12.7477C23.925 13.5433 23.6192 14.306 23.0754 14.8685C22.5315 15.431 21.7941 15.7472 21.025 15.7472C20.2559 15.7472 19.5185 15.431 18.9746 14.8685C18.4308 14.306 18.125 13.5433 18.125 12.7477Z" fill="white"/>
</svg>
