<svg width="39" height="31" viewBox="0 0 39 31" fill="none" xmlns="http://www.w3.org/2000/svg">
<path d="M8.37121 7.78622C9.13273 7.13697 10.3671 7.13697 11.1286 7.78622C11.8902 8.43547 11.8902 9.48787 11.1286 10.1371L4.70731 15.6117L11.1286 21.0863C11.8902 21.7356 11.8902 22.788 11.1286 23.4372C10.3671 24.0865 9.13273 24.0865 8.37121 23.4372L0.571146 16.7872C-0.190382 16.1379 -0.190382 15.0855 0.571146 14.4363L8.37121 7.78622Z" fill="white"/>
<path d="M27.8714 7.78622C28.6329 7.13697 29.8673 7.13697 30.6288 7.78622L38.4289 14.4363C39.1904 15.0855 39.1904 16.1379 38.4289 16.7872L30.6288 23.4372C29.8673 24.0865 28.6329 24.0865 27.8714 23.4372C27.1098 22.788 27.1098 21.7356 27.8714 21.0863L34.2927 15.6117L27.8714 10.1371C27.1098 9.48787 27.1098 8.43547 27.8714 7.78622Z" fill="white"/>
<path d="M21.5087 1.90903C21.7699 1.01839 22.8273 0.477044 23.872 0.699485C24.9167 0.922145 25.5516 1.82367 25.2907 2.71431L17.4907 29.3145C17.2295 30.2052 16.1721 30.7465 15.1274 30.5241C14.0827 30.3014 13.4478 29.3999 13.7087 28.5092L21.5087 1.90903Z" fill="white"/>
</svg>
