<svg width="41" height="42" viewBox="0 0 41 42" fill="none" xmlns="http://www.w3.org/2000/svg">
<path d="M36.5636 20.0436C36.473 18.1607 36.0663 16.3055 35.3605 14.5601C34.5539 12.5654 33.373 10.7518 31.8827 9.2251C30.3923 7.69837 28.6219 6.48873 26.6747 5.66242C24.9708 4.93944 23.1598 4.52277 21.3217 4.43003L20.5321 4.40996C18.4242 4.40996 16.3369 4.8361 14.3895 5.66242C12.4423 6.48873 10.6719 7.69837 9.18153 9.2251C7.69115 10.7518 6.5103 12.5654 5.70367 14.5601C4.89703 16.555 4.48103 18.6932 4.48103 20.8525L4.50062 21.6614C4.59115 23.5443 4.99791 25.3995 5.70367 27.1449C6.5103 29.1397 7.69115 30.9532 9.18153 32.4799C10.6719 34.0066 12.4423 35.2163 14.3895 36.0426C16.3369 36.8689 18.4242 37.2951 20.5321 37.2951L21.3217 37.275C23.1598 37.1823 24.9708 36.7656 26.6747 36.0426C28.6219 35.2163 30.3923 34.0066 31.8827 32.4799C33.373 30.9532 34.5539 29.1397 35.3605 27.1449C36.1672 25.15 36.5832 23.0118 36.5832 20.8525L36.5636 20.0436ZM40.5724 21.8641C40.4592 24.2176 39.9517 26.5369 39.0696 28.7185C38.0613 31.2121 36.5828 33.4778 34.7198 35.3863C32.8568 37.2948 30.645 38.8092 28.2108 39.8421C26.0811 40.7458 23.8171 41.2656 21.5196 41.3816L20.5321 41.4057C17.8973 41.4057 15.2876 40.875 12.8534 39.8421C10.4192 38.8092 8.20742 37.2948 6.34438 35.3863C4.48133 33.4778 3.0029 31.2121 1.9946 28.7185C1.11246 26.5369 0.604983 24.2176 0.491774 21.8641L0.468262 20.8525C0.468262 18.1534 0.9863 15.4801 1.9946 12.9865C3.0029 10.493 4.48133 8.22724 6.34438 6.31875C8.20742 4.41027 10.4192 2.89578 12.8534 1.86288C15.2876 0.82999 17.8973 0.299316 20.5321 0.299316L21.5196 0.323402C23.8171 0.439372 26.0811 0.959222 28.2108 1.86288C30.645 2.89578 32.8568 4.41027 34.7198 6.31875C36.5828 8.22724 38.0613 10.493 39.0696 12.9865C40.0779 15.4801 40.5959 18.1534 40.5959 20.8525L40.5724 21.8641Z" fill="white"/>
<path d="M13.2276 2.0082C14.0788 1.28157 15.3455 1.39929 16.055 2.27114C26.2741 14.8332 30.5113 24.4661 31.5594 36.7038C31.6562 37.8345 30.8391 38.8325 29.7352 38.9317C28.6317 39.0303 27.6591 38.1935 27.5623 37.063C26.6038 25.8706 22.8152 17.0058 12.9709 4.90452C12.2616 4.03256 12.3765 2.73492 13.2276 2.0082Z" fill="white"/>
<path d="M38.4124 20.0314C39.5204 20.0448 40.4083 20.9758 40.3953 22.1108C40.3818 23.2454 39.4731 24.1533 38.3654 24.14C30.089 24.0403 24.9366 25.4868 21.0525 27.6867C17.0949 29.9283 14.3091 33.0109 10.7149 36.6927C9.93138 37.4954 8.66131 37.4954 7.87777 36.6927C7.09432 35.8901 7.09426 34.589 7.87777 33.7864C11.3056 30.275 14.5398 26.6781 19.1088 24.0899C23.7518 21.46 29.6351 19.9256 38.4124 20.0314Z" fill="white"/>
<path d="M32.1107 6.43316C32.9592 5.7031 34.2254 5.81495 34.9381 6.68405C35.6508 7.55322 35.5397 8.85027 34.6912 9.58037C23.126 19.532 12.8983 20.3387 2.67528 20.3387C1.56719 20.3387 0.6689 19.4185 0.6689 18.2834C0.6689 17.1482 1.56719 16.228 2.67528 16.228C12.5161 16.228 21.6058 15.4726 32.1107 6.43316Z" fill="white"/>
</svg>
