<svg width="39" height="31" viewBox="0 0 39 31" fill="none" xmlns="http://www.w3.org/2000/svg">
<path d="M35.1402 5.8817C35.1402 5.37878 34.9389 4.8966 34.581 4.54097C34.2678 4.22971 33.857 4.03771 33.4199 3.99468L33.2317 3.98542H6.51276C6.0066 3.98542 5.52131 4.18535 5.1634 4.54097C4.80548 4.89659 4.60427 5.37878 4.60427 5.8817V24.8445C4.60427 25.3474 4.80548 25.8296 5.1634 26.1852C5.52131 26.5408 6.0066 26.7407 6.51276 26.7407H33.2317C33.7378 26.7407 34.2231 26.5408 34.581 26.1852C34.9389 25.8296 35.1402 25.3474 35.1402 24.8445V5.8817ZM38.9571 24.8445C38.9571 26.3532 38.3535 27.7998 37.2798 28.8666C36.206 29.9335 34.7502 30.5333 33.2317 30.5333H6.51276C4.99427 30.5333 3.5384 29.9335 2.46467 28.8666C1.39093 27.7998 0.78728 26.3532 0.78728 24.8445V5.8817C0.78728 4.37293 1.39093 2.92638 2.46467 1.85952C3.5384 0.792658 4.99427 0.192871 6.51276 0.192871H33.2317C34.7502 0.192871 36.206 0.792658 37.2798 1.85952C38.3535 2.92638 38.9571 4.37293 38.9571 5.8817V24.8445Z" fill="white"/>
<path d="M35.99 4.30394C36.867 3.72301 38.0519 3.95847 38.6366 4.82986C39.2213 5.70125 38.9843 6.87853 38.1073 7.45946L20.9308 18.8371C20.2898 19.2618 19.4547 19.2618 18.8136 18.8371L1.63716 7.45946C0.760148 6.87853 0.523175 5.70125 1.10785 4.82986C1.69252 3.95847 2.87738 3.72301 3.75439 4.30394L19.8722 14.9798L35.99 4.30394Z" fill="white"/>
</svg>
