<svg width="27" height="38" viewBox="0 0 27 38" fill="none" xmlns="http://www.w3.org/2000/svg">
<path d="M11.5714 26.6H7.71428C5.58402 26.6 3.85711 28.3013 3.85711 30.4C3.85711 32.4988 5.58402 34.2 7.71428 34.2C9.84461 34.2 11.5714 32.4988 11.5714 30.4V26.6ZM23.1429 19C23.1429 16.9012 21.4161 15.2 19.2857 15.2C17.1554 15.2 15.4286 16.9012 15.4286 19L15.4289 19.0491C15.4556 21.1252 17.172 22.8 19.2857 22.8C21.4161 22.8 23.1429 21.0988 23.1429 19ZM3.85711 19C3.85711 21.0988 5.58402 22.8 7.71428 22.8H11.5714V15.2H7.71428C5.58402 15.2 3.85711 16.9012 3.85711 19ZM23.1429 7.59999C23.1429 5.50129 21.416 3.79997 19.2857 3.79997H15.4286V11.4H19.2857L19.3356 11.3997C21.4429 11.3734 23.1429 9.6823 23.1429 7.59999ZM3.85711 7.59999C3.85711 9.69866 5.58404 11.4 7.71428 11.4H11.5714V3.79997H7.71428C5.58404 3.79997 3.85711 5.50131 3.85711 7.59999ZM27 7.59999C27 9.86992 25.9898 11.9073 24.3883 13.2999C25.9899 14.6925 27 16.73 27 19C27 23.1975 23.5463 26.6 19.2857 26.6C17.8806 26.6 16.5632 26.2298 15.4286 25.5832V30.4C15.4286 34.5975 11.9749 38 7.71428 38C3.45382 38 5.96398e-07 34.5975 0 30.4C0 28.13 1.01012 26.0926 2.61165 24.7C1.01012 23.3074 1.93518e-07 21.27 0 19C0 16.73 1.01015 14.6925 2.61171 13.2999C1.01017 11.9073 6.45077e-08 9.86992 0 7.59999C0 3.40263 3.4538 0 7.71428 0H19.2857C23.5463 3.52629e-07 27 3.40265 27 7.59999Z" fill="white"/>
</svg>
