<svg width="39" height="44" viewBox="0 0 39 44" fill="none" xmlns="http://www.w3.org/2000/svg">
<path d="M4.97015 4.78692C5.08175 2.81258 5.55337 1.95403 6.90583 1.26459C8.36105 0.52253 10.6562 0.867862 13.357 2.23548C14.5202 2.82481 14.6387 2.83681 16.6773 2.57544C19.3871 2.22789 22.8756 2.22911 25.3767 2.57862C27.2681 2.84293 27.3923 2.82972 28.5584 2.23916C32.3919 0.297859 35.4185 0.424878 36.5145 2.57298C37.0615 3.6452 37.163 6.42742 36.7389 8.72213C36.5037 9.99429 36.5286 10.1531 37.0952 10.988C41.0813 16.862 38.2092 26.3835 31.3787 29.9368C30.8561 30.2088 30.4156 30.3771 30.0566 30.5141C28.9544 30.935 28.6197 31.0629 29.0249 33.0003C29.22 33.9321 29.455 36.249 29.5474 38.1492C29.7143 41.5839 29.7118 41.6078 29.1094 42.3085C28.2895 43.2617 27.1076 43.2778 26.3069 42.3467C25.7846 41.7395 25.7336 41.4528 25.7336 39.11C25.7336 35.6479 25.3541 33.3468 24.4575 31.3749C23.3912 29.0283 24.1817 28.1534 26.62 27.629C30.0093 26.8999 32.6564 24.8082 34.1318 21.6935C35.5346 18.7326 35.7461 14.6409 33.2099 12.1524C32.4887 11.2953 32.4385 10.519 32.9535 8.17806C33.1459 7.30312 33.3073 6.17436 33.3121 5.66945C33.3194 4.87208 33.2467 4.75168 32.757 4.75168C32.4471 4.75168 31.263 5.20249 30.126 5.7534L28.3113 6.63296C28.1463 6.7129 27.9617 6.74365 27.7796 6.72276C23.1653 6.1931 18.7807 6.18492 14.1437 6.72483C13.961 6.7461 13.7756 6.71536 13.61 6.63501L11.7963 5.75488C10.6592 5.20297 9.47512 4.75168 9.16529 4.75168C8.44891 4.75168 8.43814 5.28056 9.09111 8.4228C9.48999 10.3419 9.7584 10.7695 8.60532 12.3039C6.87694 14.604 6.44521 17.4602 7.37206 20.461C8.54021 24.2426 11.4008 26.7973 15.4224 27.6497C17.8467 28.1635 18.4803 28.834 17.5546 31.6139C16.8259 33.8016 16.3651 34.3655 15.3061 34.3655C13.8812 34.3655 12.9886 33.1312 13.4798 31.8395C13.6962 31.2703 13.6318 31.2095 12.297 30.7227C8.22229 29.2371 5.10573 25.9072 3.68084 21.5165C2.57951 18.1232 3.0641 13.7063 4.8309 11.0367C5.43247 10.1277 5.44178 10.0506 5.16105 8.31046C5.00221 7.32539 4.91631 5.73995 4.97015 4.78692Z" fill="white"/>
<path d="M3.54727 29.6108C2.9601 28.7301 1.7701 28.4921 0.889333 29.0793C0.00858623 29.6664 -0.229425 30.8565 0.357746 31.7372C0.791238 32.3875 1.30983 32.9217 1.75022 33.3619C1.83141 33.4432 1.9103 33.5216 1.98733 33.5981C2.35623 33.9645 2.68195 34.2881 3.00909 34.6722C3.73265 35.5214 4.45449 36.6653 4.86473 38.7165C5.04747 39.6302 5.70421 40.1224 6.06811 40.3374C6.46275 40.5705 6.89394 40.7079 7.24878 40.7974C7.97464 40.9805 8.85579 41.0756 9.69203 41.1309C10.61 41.1919 11.6047 41.2116 12.4942 41.217C12.4948 42.2748 13.3527 43.1323 14.4108 43.1323C15.4694 43.1323 16.3275 42.2742 16.3275 41.2157V39.299C16.3275 38.2404 15.4694 37.3823 14.4108 37.3823C14.2302 37.3823 14.0347 37.3829 13.8276 37.3837C12.7028 37.3871 11.2366 37.3915 9.94539 37.306C9.32272 37.2648 8.81086 37.2064 8.4355 37.1349C7.85747 34.8657 6.92365 33.356 5.9272 32.1862C5.48671 31.6693 5.03058 31.217 4.65957 30.849C4.59011 30.7802 4.52364 30.7142 4.46079 30.6514C4.03271 30.2234 3.75268 29.919 3.54727 29.6108Z" fill="white"/>
</svg>
