<svg width="41" height="40" viewBox="0 0 41 40" fill="none" xmlns="http://www.w3.org/2000/svg">
<g opacity="0.75">
<path d="M28.3662 19.1154L28.6552 19.6105L28.9603 19.9458L30.405 27.9292L30.2284 28.2804L9.50485 36.9824L9.39258 36.3758L17.9965 16.3851L18.4138 16.2893L18.6869 15.97L28.3662 19.1154ZM18.804 16.9273L18.5741 16.9799L18.5092 16.9947L10.3993 35.8372L29.649 27.7541L28.2948 20.2706L28.0765 20.0307L27.8865 19.7053L18.92 16.7914L18.804 16.9273Z" fill="white"/>
<path d="M9.43863 36.9822L18.3423 16.121L0.0537109 10.1331L9.43863 36.9822Z" fill="white"/>
<path d="M25.2754 0.405273L18.3423 16.1506L28.7993 19.4721L28.8485 19.3443L25.341 0.548993L25.2754 0.405273Z" fill="white"/>
<path d="M28.4595 19.3233L30.0219 28.0325L30.7394 28.0164L40.4808 23.7661L40.9113 23.3972L40.4011 22.9642L28.9378 19.0828L28.4595 19.3233Z" fill="white"/>
<path d="M32.0096 39.3169L30.0156 28.0535L40.9109 23.363L32.0096 39.3169ZM30.8128 28.4925L32.3596 37.2298L39.2646 24.854L30.8128 28.4925Z" fill="white"/>
<path d="M40.9109 23.3633L28.7061 19.3361L25.3462 0.405273L40.9109 23.3633ZM29.1121 18.9766L39.7569 22.4889L26.1818 2.46572L29.1121 18.9766Z" fill="white"/>
</g>
</svg>
