<svg width="46" height="39" viewBox="0 0 46 39" fill="none" xmlns="http://www.w3.org/2000/svg">
<g opacity="0.75">
<path d="M7.79119 25.867H11.9393C16.2007 25.867 18.3237 27.9802 18.3237 32.2012C18.3237 34.204 17.7312 35.823 16.5305 37.032C15.3299 38.2411 13.7943 38.8561 11.9135 38.8561H7.79119V25.867ZM10.3522 28.1221V36.58H11.7486C12.9647 36.58 13.9128 36.1857 14.6085 35.4077C15.3041 34.6192 15.6494 33.5679 15.6494 32.2327C15.6494 30.9449 15.2835 29.9356 14.5673 29.2102C13.8407 28.4848 12.908 28.1273 11.7486 28.1273H10.3522V28.1221ZM20.3488 25.867H24.6103C25.914 25.867 26.9239 26.1351 27.635 26.6713C28.3461 27.2074 28.6914 27.9486 28.6914 28.9001C28.6914 29.6044 28.4698 30.2247 28.0318 30.7504C27.5938 31.276 27.0425 31.644 26.3726 31.849V31.8858C27.2073 32.0015 27.8824 32.3326 28.3977 32.8951C28.9078 33.4575 29.1655 34.1567 29.1655 34.9977C29.1655 36.1805 28.779 37.1161 28.0009 37.8153C27.2228 38.5144 26.1665 38.8613 24.8267 38.8613H20.3488V25.867ZM22.9047 27.9328V31.1446H24.1208C24.7082 31.1446 25.1616 30.9922 25.5017 30.6873C25.8418 30.3824 26.0067 29.9619 26.0067 29.4152C26.0067 28.4217 25.3368 27.9223 23.9919 27.9223L22.9047 27.9328ZM22.9047 33.2157V36.7745H24.4248C25.0689 36.7745 25.5739 36.6115 25.9346 36.2908C26.2953 35.9702 26.4808 35.5181 26.4808 34.9452C26.4808 34.3985 26.3004 33.9727 25.9346 33.6678C25.5687 33.3629 25.0586 33.2105 24.3887 33.2105L22.9047 33.2157ZM33.5197 36.601H38.6107V38.8561H30.6289V37.8889C30.6289 37.2108 30.7422 36.5905 30.9741 36.0385C31.206 35.4866 31.5203 34.9557 31.9223 34.4721C32.3293 33.9885 32.9477 33.426 33.7979 32.7742C34.576 32.1486 35.1119 31.5914 35.4262 31.1131C35.7406 30.6295 35.89 30.1196 35.89 29.5729C35.89 28.4007 35.3026 27.8225 34.1225 27.8225C33.092 27.8225 32.1078 28.2693 31.1648 29.1629V26.7449C32.216 26.0089 33.3857 25.6462 34.6997 25.6462C35.9003 25.6462 36.8484 25.9774 37.5441 26.6397C38.2397 27.3021 38.5953 28.2114 38.5953 29.3784C38.5953 30.0302 38.4974 30.6137 38.2912 31.1289C38.0954 31.6493 37.7966 32.1381 37.4153 32.606C37.0339 33.0633 36.4259 33.6152 35.5808 34.2618C34.7718 34.8873 34.2256 35.3709 33.9474 35.7126C33.6691 36.0543 33.5197 36.3382 33.5197 36.601Z" fill="white"/>
<path d="M0 0.861328H8.92999V2.22805H0V0.861328ZM10.1976 0.861328V2.22805H22.9304C22.9304 2.22805 21.601 0.861328 19.9314 0.861328H10.1976ZM25.4657 0.861328V2.23856H33.1899L32.7364 0.861328H25.4657ZM45.9227 0.861328H38.7241L38.2706 2.23856H45.9227V0.861328ZM0 3.5422H8.92999V4.90891H0V3.5422ZM10.1976 4.91417H24.4608C24.4608 4.91417 24.3269 3.83131 23.9971 3.54745H10.1976V4.91417ZM25.4657 4.91417H34.0556L33.6691 3.5422H25.4657V4.91417ZM45.9227 4.91417V3.5422H37.8017L37.405 4.91417H45.9227ZM2.59191 6.13896H6.45659V7.50568H2.59191V6.13896ZM12.7998 6.13896H16.6645V7.50568H12.7998V6.13896ZM24.332 7.50568C24.332 7.50568 24.5948 6.78027 24.5948 6.13896H20.4622V7.50568H24.332ZM28.0679 6.13896V7.50568H34.9264L34.4729 6.13896H28.0679ZM36.5341 7.50568H43.4699V6.13896H36.9927L36.5341 7.50568ZM2.59191 8.80406H6.45659V10.1708H2.59191V8.80406ZM12.7998 10.1708H22.7295C22.7295 10.1708 23.5333 9.44536 23.7961 8.80406H12.7998V10.1708ZM35.7354 9.96577L35.4056 8.80406H28.0679V10.1708H31.9326V9.38229L32.2005 10.1708H39.3373L39.5949 9.38229V10.1708H43.4699V8.80406H36.1219L35.7354 9.96577ZM2.59191 11.4692H6.45659V12.8359H2.59191V11.4692ZM12.7998 12.8464H23.7961C23.5333 12.1946 22.7295 11.4797 22.7295 11.4797H12.7998V12.8464ZM28.0679 11.4692H31.9326V12.8359H28.0679V11.4692ZM38.9302 11.4692H32.6591L33.1332 12.8464H38.4716L38.9302 11.4692ZM39.5331 11.4692H43.3978V12.8359H39.5331V11.4692ZM2.59191 14.1395H6.45659V15.5062H2.59191V14.1395ZM12.7998 14.1395H16.6645V15.5062H12.7998V14.1395ZM24.332 14.1395H20.4673V15.5062H24.6C24.5948 14.8597 24.332 14.1395 24.332 14.1395ZM28.0679 14.1395H31.9326V15.5062H28.0679V14.1395ZM38.0645 14.1395H33.53L33.9989 15.5115H37.6008L38.0645 14.1395ZM39.5331 14.1395H43.3978V15.5062H39.5331V14.1395ZM0.0669879 16.7363H8.99698V18.103H0.0669879V16.7363ZM24.4712 16.7363H10.1976V18.103H23.9971C24.265 17.8191 24.4712 16.7363 24.4712 16.7363ZM25.5378 16.7363H31.9326V18.103H25.5378V16.7363ZM37.1215 16.7363H34.3957L34.8697 18.103H36.6578L37.1215 16.7363ZM39.5331 16.7363H46V18.103H39.5331V16.7363ZM0.0669879 19.4171H8.99698V20.7839H0.0669879V19.4171ZM22.9356 19.4171H10.1976V20.7839H19.9314C21.6628 20.7786 22.9356 19.4171 22.9356 19.4171ZM25.5378 19.4171H31.9326V20.7839H25.5378V19.4171ZM35.7921 20.7786L36.2713 19.4171H35.2562L35.7354 20.7786H35.7921ZM39.5331 19.4171H46V20.7839H39.5331V19.4171Z" fill="white"/>
</g>
</svg>
