<svg width="47" height="47" viewBox="0 0 47 47" fill="none" xmlns="http://www.w3.org/2000/svg">
<path d="M41.2932 13.1411C41.2932 11.1077 40.4849 9.15827 39.0471 7.72049C37.6093 6.28271 35.6598 5.47439 33.6265 5.47439H13.1821C11.1487 5.47439 9.19928 6.28271 7.7615 7.72049C6.32372 9.15827 5.51541 11.1077 5.51541 13.1411V33.5855C5.51541 35.6188 6.32372 37.5683 7.7615 39.0061C9.19928 40.4439 11.1488 41.2522 13.1821 41.2522H33.6265C35.6598 41.2522 37.6093 40.4439 39.0471 39.0061C40.4849 37.5683 41.2932 35.6188 41.2932 33.5855V13.1411ZM46.4043 33.5855C46.4043 36.9744 45.0571 40.2235 42.6608 42.6198C40.2645 45.0161 37.0154 46.3633 33.6265 46.3633H13.1821C9.7932 46.3633 6.54408 45.0161 4.14779 42.6198C1.75149 40.2235 0.404297 36.9744 0.404297 33.5855V13.1411C0.404297 9.75218 1.75149 6.50307 4.14779 4.10677C6.54409 1.71047 9.7932 0.363281 13.1821 0.363281H33.6265C37.0154 0.363281 40.2645 1.71047 42.6608 4.10677C45.0571 6.50307 46.4043 9.75218 46.4043 13.1411V33.5855Z" fill="white"/>
<path d="M28.5154 23.3633C28.5154 22.0077 27.9765 20.7081 27.018 19.7496C26.0595 18.791 24.7598 18.2522 23.4043 18.2522C22.0487 18.2522 20.7491 18.791 19.7906 19.7496C18.8321 20.7081 18.2932 22.0077 18.2932 23.3633C18.2932 24.7188 18.8321 26.0185 19.7906 26.977C20.7491 27.9355 22.0487 28.4744 23.4043 28.4744C24.7598 28.4744 26.0595 27.9355 27.018 26.977C27.9765 26.0185 28.5154 24.7188 28.5154 23.3633ZM33.6265 23.3633C33.6265 26.0744 32.5488 28.6737 30.6317 30.5907C28.7147 32.5078 26.1154 33.5855 23.4043 33.5855C20.6932 33.5855 18.0939 32.5078 16.1769 30.5907C14.2598 28.6737 13.1821 26.0744 13.1821 23.3633C13.1821 20.6522 14.2598 18.0529 16.1769 16.1359C18.0939 14.2188 20.6932 13.1411 23.4043 13.1411C26.1154 13.1411 28.7147 14.2188 30.6317 16.1359C32.5488 18.0529 33.6265 20.6522 33.6265 23.3633Z" fill="white"/>
<path d="M32.3487 11.8882V11.8633C32.3487 10.4519 33.4929 9.30773 34.9043 9.30773C36.3157 9.30773 37.4599 10.4519 37.4599 11.8633V11.8882C37.4599 13.2996 36.3157 14.4438 34.9043 14.4438C33.4929 14.4438 32.3487 13.2996 32.3487 11.8882Z" fill="white"/>
</svg>
