<svg width="29" height="40" viewBox="0 0 29 40" fill="none" xmlns="http://www.w3.org/2000/svg">
<path opacity="0.75" d="M10.7865 39.874C17.8682 40.3355 28.743 39.6193 29 36.2103C29 36.2103 28.5057 37.5014 23.1469 38.5283C20.1876 39.0712 16.7812 39.3806 13.3027 39.3806C10.4535 39.3806 7.65282 39.1725 4.91378 38.7711L5.22715 38.8084C5.22715 38.8071 6.13317 39.57 10.7865 39.874ZM18.4333 0C18.4333 0 22.5202 4.15719 14.5588 10.5497C8.17467 15.6778 13.1034 18.6026 14.5574 21.9436C10.8311 18.5213 8.09731 15.5138 9.93032 12.7116C12.6235 8.59712 20.0827 6.60322 18.4333 0ZM22.8821 29.307C30.26 25.4073 26.8484 21.6582 24.4686 22.165C24.1421 22.2277 23.8589 22.3077 23.5849 22.4077L23.6242 22.3957C23.7802 22.173 23.9953 22.0009 24.2457 21.9036L24.2549 21.9009C28.9659 20.2164 32.5887 26.869 22.7339 29.5044C22.7942 29.4497 22.844 29.3844 22.8795 29.311L22.8821 29.307ZM10.0628 22.017C10.0628 22.017 2.91556 23.7441 7.5335 24.3696C8.77649 24.4737 10.224 24.5323 11.6847 24.5323C13.5518 24.5323 15.3966 24.435 17.2152 24.2469L16.987 24.2656C19.9464 24.0122 22.9149 23.4707 22.9149 23.4707C22.2186 23.7801 21.6273 24.1069 21.0674 24.479L21.1159 24.4496C13.8586 26.3915 -0.161764 25.4886 3.87533 23.5027C5.65459 22.5651 7.76033 22.0156 9.99195 22.0156C10.0169 22.0156 10.0418 22.0156 10.0667 22.0156L10.0628 22.017ZM26.5101 34.1738C26.5101 34.1738 27.6233 35.106 25.2868 35.8249C20.8432 37.1946 6.79138 37.6067 2.89064 35.8796C1.48769 35.2581 4.11921 34.3965 4.94525 34.2164C5.3268 34.1177 5.76604 34.0604 6.21708 34.0604C6.24724 34.0604 6.27609 34.0604 6.30625 34.0617H6.30231C4.74071 32.9427 -3.78453 36.257 1.97151 37.2066C17.6689 39.7954 30.5813 36.0396 26.5101 34.1738ZM16.3288 19.1255C16.7405 19.6283 16.991 20.2831 16.991 20.9953C16.991 21.9543 16.5373 22.8065 15.8372 23.3413L15.8293 23.3467C15.8293 23.3467 20.6452 20.8166 18.4333 17.6504C16.3669 14.6975 14.783 13.2304 23.3607 8.17033C23.3607 8.169 9.89886 11.5886 16.3288 19.1255ZM8.39756 26.5556C8.39756 26.5556 6.71271 27.8239 9.28523 28.096C10.4115 28.2401 11.7135 28.3214 13.0352 28.3214C15.4294 28.3214 17.7619 28.052 20.0041 27.5412L19.7916 27.5812C20.2427 28.0107 20.7816 28.3521 21.3769 28.5735L21.4096 28.5842C12.1042 31.353 1.73681 28.8002 8.39625 26.5542L8.39756 26.5556ZM9.34029 30.9342C9.34029 30.9342 7.83769 31.8238 10.4102 32.1238C11.3529 32.2665 12.4399 32.3479 13.5465 32.3479C15.3219 32.3479 17.0487 32.1385 18.7047 31.7411L18.5526 31.7717C19.1649 32.1518 19.8769 32.5146 20.6203 32.8147L20.7173 32.8494C13.0181 36.205 3.2958 32.6533 9.34161 30.9342H9.34029Z" fill="white"/>
</svg>
