<svg width="41" height="40" viewBox="0 0 41 40" fill="none" xmlns="http://www.w3.org/2000/svg">
<path opacity="0.75" d="M0.217773 4.67974C0.217773 2.33209 2.16849 0.428955 4.57483 0.428955H35.6966C38.103 0.428955 40.0537 2.3321 40.0537 4.67974V9.53778C40.0537 10.5439 39.2176 11.3595 38.1864 11.3595C37.1551 11.3595 36.3191 10.5439 36.3191 9.53778V4.67974C36.3191 4.34436 36.0405 4.07248 35.6966 4.07248H4.57483C4.23107 4.07248 3.95239 4.34436 3.95239 4.67974V35.0425C3.95239 35.3779 4.23107 35.6497 4.57483 35.6497H38.1864C39.2176 35.6497 40.0537 36.4654 40.0537 37.4715C40.0537 38.4776 39.2176 39.2933 38.1864 39.2933H4.57483C2.16849 39.2933 0.217773 37.3901 0.217773 35.0425V4.67974ZM20.7582 14.3958C21.7894 14.3958 22.6255 15.2115 22.6255 16.2176V25.9337C22.6255 28.3743 21.9383 30.2048 20.522 31.3562C19.1703 32.4551 17.5311 32.6135 16.4011 32.6135C15.3698 32.6135 14.5338 31.7978 14.5338 30.7917C14.5338 29.7856 15.3698 28.9699 16.4011 28.9699C17.263 28.9699 17.8023 28.8247 18.1311 28.5572C18.3954 28.3423 18.8909 27.7438 18.8909 25.9337V16.2176C18.8909 15.2115 19.7269 14.3958 20.7582 14.3958ZM28.2914 16.4122C29.3338 15.2014 30.9679 14.3958 33.2069 14.3958C35.2856 14.3958 36.8539 15.0897 37.911 16.1807C38.6193 16.9119 38.586 18.0649 37.8366 18.756C37.0872 19.4472 35.9053 19.4147 35.1969 18.6835C34.9233 18.4012 34.3781 18.0393 33.2069 18.0393C31.9603 18.0393 31.4158 18.4483 31.1511 18.7556C30.8252 19.134 30.7171 19.6085 30.7171 19.8611C30.7171 20.1137 30.8252 20.5882 31.1511 20.9666C31.4158 21.2739 31.9603 21.6829 33.2069 21.6829C33.3954 21.6829 33.5774 21.7101 33.7487 21.7608C35.3996 21.99 36.6475 22.7092 37.5 23.6992C38.4812 24.8389 38.8088 26.1863 38.8088 27.1482C38.8088 28.1101 38.4812 29.4574 37.5 30.5971C36.4575 31.808 34.8235 32.6135 32.5845 32.6135C30.5058 32.6135 28.9375 31.9195 27.8803 30.8286C27.172 30.0975 27.2054 28.9444 27.9548 28.2531C28.7042 27.5621 29.8861 27.5946 30.5944 28.3258C30.868 28.608 31.4133 28.9699 32.5845 28.9699C33.8311 28.9699 34.3756 28.5609 34.6402 28.2536C34.9661 27.8752 35.0742 27.4008 35.0742 27.1482C35.0742 26.8955 34.9661 26.4212 34.6402 26.0427C34.3756 25.7354 33.8311 25.3264 32.5845 25.3264C32.396 25.3264 32.214 25.2992 32.0427 25.2484C30.3917 25.0191 29.1439 24.3001 28.2914 23.31C27.3102 22.1703 26.9825 20.823 26.9825 19.8611C26.9825 18.8992 27.3102 17.552 28.2914 16.4122Z" fill="white"/>
</svg>
