<svg width="44" height="44" viewBox="0 0 44 44" fill="none" xmlns="http://www.w3.org/2000/svg">
<path opacity="0.75" d="M17.6999 32.7871L32.8655 24.1881L25.9757 20.2472L10.8203 28.9168L17.6999 32.7871ZM33.5629 15.1988L26.6659 11.2579V19.0604L33.5643 23.0027L33.5629 15.1988ZM34.2516 6.1302L27.356 10.071L34.2516 14.0119L41.1457 10.0696L34.2516 6.1302ZM13.0139 26.0793L17.0156 23.7905V6.6012L10.1171 10.5449V27.7343L13.0139 26.0793ZM9.42697 1.47494L2.53141 5.41722L9.42697 9.35951L16.3182 5.41722L9.42697 1.47494ZM1.83982 6.60264V33.1803L17.0112 41.8542V33.9739L9.07755 29.5146C9.05145 29.4958 9.03115 29.4757 9.00361 29.4584C8.98331 29.4397 8.96011 29.4253 8.93981 29.4094L8.93836 29.4051C8.91661 29.3835 8.89777 29.3604 8.88182 29.3345L8.88037 29.3331C8.86007 29.3144 8.84412 29.2927 8.82962 29.2683L8.82817 29.2668H8.82382C8.81222 29.2452 8.80062 29.2164 8.78903 29.1876L8.78758 29.1818C8.77743 29.1602 8.76583 29.1357 8.75568 29.1084L8.75423 29.1041C8.74843 29.0753 8.74263 29.0392 8.73973 29.0032V29.0004C8.73538 28.9787 8.73103 28.9528 8.72813 28.9269V28.9255V10.5478L4.73085 8.25762L1.83982 6.60264ZM33.5643 33.1789V25.3692L18.3929 33.9739V41.8527L33.5643 33.1789ZM41.8344 19.0604V11.2579L34.9388 15.2002V23.0027L41.8344 19.0604ZM43.1914 9.89244C43.2074 9.94718 43.2175 10.0091 43.2175 10.0739V19.455C43.2175 19.7085 43.0798 19.9289 42.8739 20.047L42.871 20.0485L34.9432 24.5842V33.5735C34.9432 33.8256 34.8054 34.046 34.601 34.1655L34.5981 34.167L18.0464 43.6302C18.0116 43.6489 17.971 43.6662 17.929 43.6777L17.9246 43.6791L17.8811 43.6979C17.8289 43.7137 17.768 43.7223 17.7057 43.7223C17.6434 43.7223 17.5825 43.7137 17.5245 43.6964L17.5288 43.6979C17.5071 43.6921 17.4897 43.6849 17.4723 43.6748L17.4737 43.6763C17.4288 43.6604 17.3911 43.646 17.3548 43.6287L17.3606 43.6316L0.813315 34.1684C0.604534 34.0474 0.466797 33.827 0.466797 33.575V5.41866C0.466797 5.35529 0.476946 5.29335 0.494344 5.23573L0.492894 5.24006C0.498694 5.21845 0.511743 5.20405 0.518992 5.18244C0.532041 5.14067 0.546539 5.1061 0.562488 5.07297L0.561038 5.07729C0.572637 5.05425 0.587136 5.03408 0.603084 5.0168L0.663979 4.9347L0.732122 4.88573C0.75822 4.86412 0.781418 4.84251 0.807515 4.82379H0.808965L9.0848 0.0921834C9.18339 0.0345687 9.30228 0 9.42842 0C9.55455 0 9.67344 0.0345688 9.77493 0.0936239L9.77204 0.0921834L18.0508 4.82379C18.0783 4.84251 18.1015 4.86268 18.1247 4.88428L18.1943 4.93326C18.2175 4.95918 18.2306 4.98799 18.2552 5.01536C18.2726 5.03264 18.2871 5.05281 18.3001 5.07441L18.3016 5.07585C18.3161 5.10466 18.3306 5.13923 18.3436 5.17524L18.3451 5.181L18.3683 5.23862C18.3842 5.28903 18.3944 5.34808 18.3944 5.40858C18.3944 5.41146 18.3944 5.41434 18.3944 5.41722V23.0012L25.2899 19.0589V10.0696C25.2899 10.0682 25.2899 10.0667 25.2899 10.0667C25.2899 10.0048 25.2986 9.94429 25.3146 9.88668L25.3131 9.891C25.3189 9.87228 25.332 9.85499 25.3363 9.83339C25.3508 9.79018 25.3653 9.75561 25.3827 9.72104L25.3798 9.7268C25.3929 9.70519 25.4132 9.69079 25.4262 9.6663C25.448 9.63894 25.4654 9.61157 25.4871 9.58852C25.5074 9.5698 25.5292 9.55252 25.5524 9.53811L25.5538 9.53667C25.5799 9.51795 25.6017 9.4949 25.6292 9.47906H25.6307L33.9065 4.74601C34.0051 4.6884 34.124 4.65383 34.2501 4.65383C34.3763 4.65383 34.4951 4.6884 34.5966 4.74745L34.5937 4.74601L42.8696 9.47906C42.8986 9.49778 42.9189 9.51795 42.9464 9.53523C42.9682 9.55396 42.9928 9.56836 43.0131 9.58564C43.0363 9.61157 43.0537 9.64038 43.0755 9.6663C43.0914 9.68359 43.1059 9.70375 43.1189 9.72392L43.1204 9.72536C43.1378 9.75705 43.1523 9.79306 43.1639 9.83051L43.1653 9.83483C43.1769 9.85211 43.1856 9.87084 43.1929 9.891L43.1914 9.89244Z" fill="white"/>
</svg>
