<svg width="44" height="43" viewBox="0 0 44 43" fill="none" xmlns="http://www.w3.org/2000/svg">
<path d="M11.4788 29.7804V19.2591C11.4788 18.0969 12.4209 17.1548 13.5831 17.1548C14.7452 17.1548 15.6873 18.0969 15.6873 19.2591V29.7804C15.6873 30.9425 14.7452 31.8846 13.5831 31.8846C12.4209 31.8846 11.4788 30.9425 11.4788 29.7804Z" fill="white"/>
<path d="M11.4788 12.9669V12.9463C11.4788 11.7842 12.4209 10.8421 13.5831 10.8421C14.7452 10.8421 15.6873 11.7842 15.6873 12.9463V12.9669C15.6873 14.129 14.7452 15.0711 13.5831 15.0711C12.4209 15.0711 11.4788 14.129 11.4788 12.9669Z" fill="white"/>
<path d="M19.8958 29.7804V19.2591C19.8958 18.0969 20.8379 17.1548 22.0001 17.1548C23.1622 17.1548 24.1043 18.0969 24.1043 19.2591V29.7804C24.1043 30.9425 23.1622 31.8846 22.0001 31.8846C20.8379 31.8846 19.8958 30.9425 19.8958 29.7804Z" fill="white"/>
<path d="M28.3128 29.7804V23.4676C28.3128 22.9095 28.091 22.3745 27.6964 21.9798C27.3017 21.5852 26.7667 21.3634 26.2086 21.3634C25.6505 21.3634 25.1154 21.5852 24.7208 21.9798C24.3262 22.3745 24.1043 22.9095 24.1043 23.4676C24.1043 24.6298 23.1622 25.5719 22.0001 25.5719C20.8379 25.5719 19.8958 24.6298 19.8958 23.4676C19.8958 21.7934 20.5614 20.1882 21.7453 19.0043C22.9291 17.8204 24.5343 17.1548 26.2086 17.1548C27.8828 17.1548 29.488 17.8204 30.6719 19.0043C31.8558 20.1882 32.5213 21.7934 32.5213 23.4676V29.7804C32.5213 30.9425 31.5792 31.8846 30.4171 31.8846C29.2549 31.8846 28.3128 30.9425 28.3128 29.7804Z" fill="white"/>
<path d="M38.8341 10.8421C38.8341 9.16783 38.1685 7.56263 36.9847 6.37875C35.8008 5.19488 34.1956 4.52931 32.5213 4.52931H11.4788C9.80455 4.52931 8.19935 5.19488 7.01547 6.37875C5.8316 7.56263 5.16603 9.16783 5.16603 10.8421V31.8846C5.16603 33.5589 5.8316 35.1641 7.01547 36.3479C8.19935 37.5318 9.80455 38.1974 11.4788 38.1974H32.5213C34.1956 38.1974 35.8008 37.5318 36.9847 36.3479C38.1685 35.1641 38.8341 33.5589 38.8341 31.8846V10.8421ZM43.0426 31.8846C43.0426 34.675 41.9333 37.3504 39.9602 39.3235C37.9871 41.2966 35.3118 42.4059 32.5213 42.4059H11.4788C8.68838 42.4059 6.01305 41.2966 4.03992 39.3235C2.0668 37.3504 0.95752 34.675 0.95752 31.8846V10.8421C0.95752 8.05166 2.0668 5.37633 4.03992 3.40321C6.01305 1.43008 8.68838 0.320801 11.4788 0.320801H32.5213C35.3118 0.320801 37.9871 1.43008 39.9602 3.40321C41.9333 5.37633 43.0426 8.05166 43.0426 10.8421V31.8846Z" fill="white"/>
</svg>
