<svg width="119" height="99" viewBox="0 0 119 99" fill="none" xmlns="http://www.w3.org/2000/svg">
    <path d="M88.1204 25.2958L71.04 7.42629L1.16547 80.5288L18.2459 98.3983L88.1204 25.2958Z" fill="white"/>
    <path d="M83.684 35.0428L95.9952 22.1628L88.2313 14.0403L101.652 0L118.51 17.6374L92.7787 44.5577L83.684 35.0428Z" fill="white"/>
    <path d="M117.845 80.5288L79.9129 40.8446L71.04 49.1991L95.9952 75.3072L88.2313 83.4297L101.652 97.47L117.845 80.5288Z" fill="white"/>
    <path d="M72.0382 90.1598L87.2331 74.2629L67.7126 53.8406L52.5177 69.7375L72.0382 90.1598Z" fill="white"/>
    <path d="M54.4032 81.225L47.7485 74.2629L39.4301 83.4297L45.863 90.1598L54.4032 81.225Z" fill="white"/>
    <path d="M26.2316 44.5577L0.5 17.6374L15.6949 2.20468L41.2047 28.8929L26.2316 44.5577Z" fill="white"/>
    <path d="M45.863 22.859L37.3228 13.9243L45.863 5.22161L54.2923 14.0403L45.863 22.859Z" fill="white"/>
    <path d="M83.684 35.0428L95.9952 22.1628L88.2313 14.0403L101.652 0L118.51 17.6374L92.7787 44.5577L83.684 35.0428Z" fill="white"/>
    <path d="M117.845 80.5288L79.9129 40.8446L71.04 49.1991L95.9952 75.3072L88.2313 83.4297L101.652 97.47L117.845 80.5288Z" fill="white"/>
    <path d="M54.4032 81.225L47.7485 74.2629L39.4301 83.4297L45.863 90.1598L54.4032 81.225Z" fill="white"/>
    <path d="M45.863 22.859L37.3228 13.9243L45.863 5.22161L54.2923 14.0403L45.863 22.859Z" fill="white"/>
</svg>