<svg width="32" height="40" viewBox="0 0 32 40" fill="none" xmlns="http://www.w3.org/2000/svg">
<path opacity="0.75" d="M29.0093 28.0839C28.9974 28.0839 28.9842 28.0839 28.971 28.0839C27.6407 28.0839 26.5611 29.1585 26.5611 30.4826C26.5611 31.8068 27.6407 32.8814 28.971 32.8814C30.3013 32.8814 31.3808 31.8068 31.3808 30.4826C31.3808 30.4774 31.3808 30.4708 31.3808 30.4642C31.3808 29.1572 30.3198 28.0957 29.0093 28.0839ZM24.1632 30.4826C24.1421 29.5118 23.3462 28.7328 22.3683 28.7328C21.3772 28.7328 20.5735 29.5329 20.5735 30.5194C20.5735 31.506 21.3772 32.306 22.3683 32.306C23.3621 32.2942 24.1632 31.4902 24.1632 30.4997C24.1632 30.4931 24.1632 30.4879 24.1632 30.4813V30.4826ZM24.7399 30.4826C24.7188 31.77 23.6656 32.8065 22.3683 32.8065C21.0578 32.8065 19.9967 31.749 19.9967 30.4459C19.9967 29.1427 21.0591 28.0852 22.3683 28.0852C23.6801 28.0957 24.7399 29.1572 24.7399 30.4656C24.7399 30.4721 24.7399 30.4787 24.7399 30.4853V30.4826ZM17.5235 37.1981C17.5024 36.2273 16.7066 35.4483 15.7287 35.4483C14.7376 35.4483 13.9338 36.2483 13.9338 37.2348C13.9338 38.2214 14.7376 39.0214 15.7287 39.0214C16.7225 39.0096 17.5235 38.2056 17.5235 37.2151C17.5235 37.2086 17.5235 37.2046 17.5235 37.1981ZM18.1003 37.1981C18.0792 38.4854 17.026 39.5219 15.7287 39.5219C14.4182 39.5219 13.3571 38.4644 13.3571 37.1613C13.3571 35.8581 14.4195 34.8006 15.7287 34.8006C17.0405 34.8111 18.1003 35.8726 18.1003 37.181C18.1003 37.1875 18.1003 37.1941 18.1003 37.2007V37.1981ZM17.5235 30.4826C17.5024 29.5118 16.7066 28.7328 15.7287 28.7328C14.7376 28.7328 13.9338 29.5329 13.9338 30.5194C13.9338 31.506 14.7376 32.306 15.7287 32.306C16.7225 32.2942 17.5235 31.4902 17.5235 30.4997C17.5235 30.4931 17.5235 30.4879 17.5235 30.4813V30.4826ZM18.1003 30.4826C18.0792 31.77 17.026 32.8065 15.7287 32.8065C14.4182 32.8065 13.3571 31.749 13.3571 30.4459C13.3571 29.1427 14.4195 28.0852 15.7287 28.0852C17.0405 28.0957 18.1003 29.1572 18.1003 30.4656C18.1003 30.4721 18.1003 30.4787 18.1003 30.4853V30.4826ZM10.8839 30.4826C10.8628 29.5118 10.067 28.7328 9.08907 28.7328C8.09794 28.7328 7.29422 29.5329 7.29422 30.5194C7.29422 31.506 8.09794 32.306 9.08907 32.306C10.0828 32.2942 10.8839 31.4902 10.8839 30.4997C10.8839 30.4931 10.8839 30.4879 10.8839 30.4813V30.4826ZM11.4606 30.4826C11.4395 31.77 10.3864 32.8065 9.08907 32.8065C7.77856 32.8065 6.71749 31.749 6.71749 30.4459C6.71749 29.1427 7.77988 28.0852 9.08907 28.0852C10.4009 28.0957 11.4606 29.1572 11.4606 30.4656C11.4606 30.4721 11.4606 30.4787 11.4606 30.4853V30.4826ZM2.44812 28.0195C2.43624 28.0195 2.42305 28.0195 2.40985 28.0195C1.07955 28.0195 0 29.0941 0 30.4183C0 31.7424 1.07955 32.817 2.40985 32.817C3.74015 32.817 4.8197 31.7424 4.8197 30.4183C4.8197 30.413 4.8197 30.4064 4.8197 30.3999C4.8197 29.0928 3.75995 28.0314 2.44944 28.0195H2.44812ZM29.0093 21.3685C28.9974 21.3685 28.9842 21.3685 28.971 21.3685C27.6407 21.3685 26.5611 22.4431 26.5611 23.7672C26.5611 25.0914 27.6407 26.166 28.971 26.166C30.3013 26.166 31.3808 25.0914 31.3808 23.7672C31.3808 23.762 31.3808 23.7554 31.3808 23.7488C31.3808 22.4417 30.3198 21.3803 29.0093 21.3685ZM24.1632 23.7659C24.1421 22.7951 23.3462 22.0161 22.3683 22.0161C21.3772 22.0161 20.5735 22.8161 20.5735 23.8027C20.5735 24.7892 21.3772 25.5893 22.3683 25.5893C23.3621 25.5774 24.1632 24.7735 24.1632 23.783C24.1632 23.7764 24.1632 23.7725 24.1632 23.7659ZM24.7399 23.7659C24.7188 25.0533 23.6656 26.0898 22.3683 26.0898C21.0578 26.0898 19.9967 25.0323 19.9967 23.7291C19.9967 22.426 21.0591 21.3685 22.3683 21.3685C23.6801 21.379 24.7399 22.4404 24.7399 23.7488C24.7399 23.7554 24.7399 23.762 24.7399 23.7685V23.7659ZM15.7287 21.3685C15.7168 21.3685 15.7036 21.3685 15.6904 21.3685C14.3601 21.3685 13.2806 22.4431 13.2806 23.7672C13.2806 25.0914 14.3601 26.166 15.6904 26.166C17.0207 26.166 18.1003 25.0914 18.1003 23.7672C18.1003 23.762 18.1003 23.7554 18.1003 23.7488C18.1003 22.4417 17.0392 21.3803 15.7287 21.3685ZM10.8839 23.7659C10.8628 22.7951 10.067 22.0161 9.08907 22.0161C8.09794 22.0161 7.29422 22.8161 7.29422 23.8027C7.29422 24.7892 8.09794 25.5893 9.08907 25.5893C10.0828 25.5774 10.8839 24.7735 10.8839 23.783C10.8839 23.7764 10.8839 23.7725 10.8839 23.7659ZM11.4606 23.7659C11.4395 25.0533 10.3864 26.0898 9.08907 26.0898C7.77856 26.0898 6.71749 25.0323 6.71749 23.7291C6.71749 22.426 7.77988 21.3685 9.08907 21.3685C10.4009 21.379 11.4606 22.4404 11.4606 23.7488C11.4606 23.7554 11.4606 23.762 11.4606 23.7685V23.7659ZM2.44812 21.3041C2.44284 21.3041 2.43493 21.3041 2.42833 21.3041C1.10726 21.3041 0.0369533 22.3695 0.0369533 23.6845C0.0369533 24.9994 1.10726 26.0648 2.42833 26.0648C3.74939 26.0648 4.8197 24.9994 4.8197 23.6845C4.8197 23.0342 4.55707 22.4444 4.13211 22.0148C3.7032 21.58 3.10799 21.3094 2.44812 21.3041ZM29.0093 14.6544C28.9974 14.6544 28.9842 14.6544 28.971 14.6544C27.6407 14.6544 26.5611 15.7289 26.5611 17.0531C26.5611 18.3773 27.6407 19.4519 28.971 19.4519C30.3013 19.4519 31.3808 18.3773 31.3808 17.0531C31.3808 17.0479 31.3808 17.0413 31.3808 17.0347C31.3808 15.7276 30.3198 14.6662 29.0093 14.6544ZM22.3683 14.6544C22.3564 14.6544 22.3432 14.6544 22.33 14.6544C20.9997 14.6544 19.9202 15.7289 19.9202 17.0531C19.9202 18.3773 20.9997 19.4519 22.33 19.4519C23.6603 19.4519 24.7399 18.3773 24.7399 17.0531C24.7399 17.0479 24.7399 17.0413 24.7399 17.0347C24.7399 15.7276 23.6788 14.6662 22.3683 14.6544ZM29.0093 12.6694C29.0211 12.6694 29.0343 12.6694 29.0475 12.6694C30.3778 12.6694 31.4574 11.5949 31.4574 10.2707C31.4574 8.94653 30.3778 7.87196 29.0475 7.87196C27.7172 7.87196 26.6377 8.94653 26.6377 10.2707C26.6377 10.276 26.6377 10.2825 26.6377 10.2891C26.6377 11.5962 27.6988 12.6576 29.0093 12.6694ZM24.1632 10.2707C24.1421 9.2999 23.3462 8.52091 22.3683 8.52091C21.3772 8.52091 20.5735 9.32092 20.5735 10.3075C20.5735 11.294 21.3772 12.0941 22.3683 12.0941C23.3621 12.0822 24.1632 11.2783 24.1632 10.2878C24.1632 10.2812 24.1632 10.276 24.1632 10.2694V10.2707ZM24.7399 10.2707C24.7188 11.5581 23.6656 12.5946 22.3683 12.5946C21.0578 12.5946 19.9967 11.5371 19.9967 10.2339C19.9967 8.93077 21.0591 7.87327 22.3683 7.87327C23.6801 7.88378 24.7399 8.94522 24.7399 10.2536C24.7399 10.2602 24.7399 10.2668 24.7399 10.2733V10.2707ZM17.5235 17.0518C17.5024 16.081 16.7066 15.302 15.7287 15.302C14.7376 15.302 13.9338 16.102 13.9338 17.0886C13.9338 18.0751 14.7376 18.8752 15.7287 18.8752C16.7225 18.8633 17.5235 18.0594 17.5235 17.0689C17.5235 17.0623 17.5235 17.0584 17.5235 17.0518ZM18.1003 17.0518C18.0792 18.3392 17.026 19.3757 15.7287 19.3757C14.4182 19.3757 13.3571 18.3182 13.3571 17.015C13.3571 15.7119 14.4195 14.6544 15.7287 14.6544C17.0405 14.6649 18.1003 15.7263 18.1003 17.0347C18.1003 17.0413 18.1003 17.0479 18.1003 17.0544V17.0518ZM17.5235 2.59631C17.5024 1.62551 16.7066 0.846515 15.7287 0.846515C14.7376 0.846515 13.9338 1.64653 13.9338 2.63309C13.9338 3.61965 14.7376 4.41966 15.7287 4.41966C16.7225 4.40784 17.5235 3.60388 17.5235 2.61338C17.5235 2.60682 17.5235 2.60288 17.5235 2.59631ZM18.1003 2.59631C18.1003 2.60682 18.1003 2.61864 18.1003 2.63178C18.1003 3.93624 17.0379 4.99242 15.7287 4.99242C14.4195 4.99242 13.3571 3.93493 13.3571 2.63178C13.3571 2.61995 13.3571 2.60682 13.3571 2.59499C13.3571 2.58448 13.3571 2.57398 13.3571 2.56084C13.3571 1.25638 14.4195 0.200195 15.7287 0.200195C17.0379 0.200195 18.1003 1.25769 18.1003 2.56084C18.1003 2.57266 18.1003 2.5858 18.1003 2.59762V2.59631ZM17.5235 10.2707C17.5024 9.2999 16.7066 8.52091 15.7287 8.52091C14.7376 8.52091 13.9338 9.32092 13.9338 10.3075C13.9338 11.294 14.7376 12.0941 15.7287 12.0941C16.7225 12.0822 17.5235 11.2783 17.5235 10.2878C17.5235 10.2812 17.5235 10.276 17.5235 10.2694V10.2707ZM18.1003 10.2707C18.0792 11.5581 17.026 12.5946 15.7287 12.5946C14.4182 12.5946 13.3571 11.5371 13.3571 10.2339C13.3571 8.93077 14.4195 7.87327 15.7287 7.87327C17.0405 7.88378 18.1003 8.94522 18.1003 10.2536C18.1003 10.2602 18.1003 10.2668 18.1003 10.2733V10.2707ZM9.08907 19.4505C9.10094 19.4505 9.11414 19.4505 9.12734 19.4505C10.4576 19.4505 11.5372 18.376 11.5372 17.0518C11.5372 15.7276 10.4576 14.6531 9.12734 14.6531C7.79704 14.6531 6.71749 15.7276 6.71749 17.0518C6.71749 17.0571 6.71749 17.0636 6.71749 17.0702C6.71749 18.3773 7.77856 19.4387 9.08907 19.4505ZM10.8839 10.2707C10.8628 9.2999 10.067 8.52091 9.08907 8.52091C8.09794 8.52091 7.29422 9.32092 7.29422 10.3075C7.29422 11.294 8.09794 12.0941 9.08907 12.0941C10.0828 12.0822 10.8839 11.2783 10.8839 10.2878C10.8839 10.2812 10.8839 10.276 10.8839 10.2694V10.2707ZM11.4606 10.2707C11.4395 11.5581 10.3864 12.5946 9.08907 12.5946C7.77856 12.5946 6.71749 11.5371 6.71749 10.2339C6.71749 8.93077 7.77988 7.87327 9.08907 7.87327C10.4009 7.88378 11.4606 8.94522 11.4606 10.2536C11.4606 10.2602 11.4606 10.2668 11.4606 10.2733V10.2707ZM2.44812 14.5887C2.43624 14.5887 2.42305 14.5887 2.40985 14.5887C1.07955 14.5887 0 15.6633 0 16.9874C0 18.3116 1.07955 19.3862 2.40985 19.3862C3.74015 19.3862 4.8197 18.3116 4.8197 16.9874C4.8197 16.9822 4.8197 16.9756 4.8197 16.969C4.8197 15.6619 3.75995 14.6005 2.44944 14.5887H2.44812ZM4.8197 10.2707C4.79858 11.5581 3.74543 12.5946 2.44812 12.5946C1.13762 12.5946 0.0765452 11.5371 0.0765452 10.2339C0.0765452 8.93077 1.13894 7.87327 2.44812 7.87327C3.75995 7.88378 4.8197 8.94522 4.8197 10.2536C4.8197 10.2602 4.8197 10.2668 4.8197 10.2733V10.2707Z" fill="white"/>
</svg>
