<svg width="18" height="39" viewBox="0 0 18 39" fill="none" xmlns="http://www.w3.org/2000/svg">
<path opacity="0.75" d="M16.7593 16.0102C14.8121 7.22498 10.2103 4.33638 9.71477 3.23276C9.17289 2.45414 8.62378 1.06924 8.62378 1.06924C8.61475 1.04585 8.6003 1.00461 8.58344 0.9646C8.52744 1.74322 8.49854 2.04359 7.77844 2.82899C6.66336 3.72025 0.942268 8.62773 0.47685 18.6089C0.0427403 27.9179 7.05472 33.4649 8.00302 34.1721L8.11079 34.2503V34.2435C8.11682 34.2903 8.41184 36.4594 8.61896 38.7577H9.36194C9.53627 37.1331 9.79757 35.5195 10.1447 33.9241L10.2049 33.8841C10.6291 33.5731 11.0335 33.235 11.4157 32.8716L11.459 32.8315C13.4748 30.9278 17.0988 26.5244 17.0633 19.5038C17.0558 18.3327 16.9541 17.1643 16.7593 16.0102ZM8.54008 28.9163C8.54008 28.9163 8.54008 15.86 8.96155 15.8625C9.29029 15.8625 9.71598 32.7035 9.71598 32.7035C9.13074 32.6315 8.54008 29.9319 8.54008 28.9163Z" fill="white"/>
</svg>
