<svg width="51" height="35" viewBox="0 0 51 35" fill="none" xmlns="http://www.w3.org/2000/svg">
<g opacity="0.75">
<path d="M12.5028 31.8354H10.5711C10.5028 28.5748 10.3147 25.5094 10.0071 22.637H9.9899L7.04883 31.8354H5.57811L2.65459 22.637H2.63779C2.42091 25.3948 2.28429 28.4609 2.22756 31.8354H0.466797C0.580274 27.7319 0.865459 23.8849 1.32123 20.2939H3.71545L6.50198 28.7745H6.51915L9.32285 20.2939H11.6137C12.1153 24.5001 12.4117 28.3474 12.5028 31.8354ZM20.8803 23.3201C20.0938 27.5882 19.0561 30.6894 17.7683 32.6252C16.7649 34.1154 15.6656 34.8612 14.4685 34.8612C14.1493 34.8612 13.7555 34.7649 13.2889 34.5737V33.5446C13.517 33.5775 13.7847 33.5961 14.0922 33.5961C14.6514 33.5961 15.1008 33.4423 15.4435 33.134C15.8534 32.7585 16.0583 32.3363 16.0583 31.8693C16.0583 31.5491 15.8985 30.8943 15.5798 29.9029L13.4599 23.3197H15.3577L16.8791 28.2433C17.2211 29.3613 17.3637 30.1418 17.3065 30.5864C18.1386 28.3642 18.7198 25.9413 19.0509 23.3194H20.8803V23.3201Z" fill="white"/>
<path d="M46.5943 31.8352H41.1071V20.2938H42.9529V30.4145H46.5943V31.8352ZM39.6707 32.114L37.549 31.067C37.7371 30.9125 37.917 30.7452 38.079 30.5515C38.9809 29.4921 39.4307 27.9255 39.4307 25.8504C39.4307 22.0321 37.9323 20.1221 34.9345 20.1221C33.4646 20.1221 32.3178 20.6066 31.4977 21.576C30.5967 22.6361 30.1468 24.1972 30.1468 26.261C30.1468 28.2898 30.5455 29.7781 31.3432 30.7221C32.073 31.5773 33.173 32.0054 34.6441 32.0054C35.1928 32.0054 35.6964 31.9382 36.1552 31.8027L38.9174 33.4108L39.6707 32.114ZM32.7975 29.5257C32.3302 28.7739 32.0965 27.5668 32.0965 25.9023C32.0965 22.9963 32.9793 21.5417 34.7468 21.5417C35.6706 21.5417 36.3478 21.8895 36.7808 22.5838C37.2474 23.3368 37.4822 24.5331 37.4822 26.1744C37.4822 29.1043 36.5986 30.5694 34.8323 30.5694C33.908 30.5698 33.2309 30.223 32.7975 29.5257ZM29.3424 28.6362C29.3424 29.6149 28.9833 30.4179 28.2659 31.0468C27.5477 31.6732 26.5846 31.9871 25.3778 31.9871C24.249 31.9871 23.1546 31.6265 22.0952 30.9091L22.5913 29.918C23.5029 30.3746 24.3282 30.6015 25.0691 30.6015C25.7646 30.6015 26.308 30.4473 26.7022 30.1416C27.096 29.8348 27.3308 29.4044 27.3308 28.8602C27.3308 28.1744 26.8527 27.5884 25.9755 27.0975C25.1666 26.6533 23.5488 25.7246 23.5488 25.7246C22.6719 25.0856 22.233 24.3995 22.233 23.2692C22.233 22.3338 22.5603 21.5786 23.2154 21.0041C23.8713 20.4274 24.7175 20.14 25.7548 20.14C26.8262 20.14 27.8 20.427 28.6772 20.9952L28.2323 21.9866C27.482 21.6678 26.7414 21.5084 26.0109 21.5084C25.4193 21.5084 24.9624 21.6506 24.6447 21.9362C24.3244 22.2206 24.127 22.5846 24.127 23.031C24.127 23.7134 24.6152 24.3069 25.5163 24.8075C26.336 25.2524 27.9941 26.1972 27.9941 26.1972C28.8934 26.8351 29.3424 27.5149 29.3424 28.6362Z" fill="white"/>
<path d="M48.9115 16.4278C47.7954 16.3995 46.9312 16.5118 46.2059 16.8187C45.9965 16.9023 45.6636 16.9023 45.6345 17.1669C45.7476 17.2789 45.7606 17.4596 45.8588 17.6141C46.026 17.893 46.3176 18.2681 46.5837 18.4637C46.876 18.6877 47.1694 18.9094 47.477 19.1046C48.0193 19.4402 48.6341 19.6354 49.1627 19.9699C49.4706 20.1644 49.7767 20.4159 50.0851 20.6254C50.2366 20.737 50.3337 20.918 50.5304 20.9878V20.9453C50.4318 20.8198 50.4038 20.6384 50.3072 20.4988L49.8883 20.0949C49.4837 19.5514 48.9809 19.077 48.4385 18.6873C47.9921 18.3797 47.0156 17.9616 46.8346 17.4473L46.8062 17.4189C47.113 17.3901 47.477 17.2789 47.7685 17.1934C48.2429 17.0684 48.6756 17.0967 49.1623 16.9717C49.3863 16.9157 49.6084 16.8455 49.8331 16.7765V16.6507C49.5808 16.3995 49.4008 16.0658 49.1354 15.8283C48.4255 15.215 47.6431 14.6152 46.8346 14.1131C46.4015 13.8335 45.8446 13.6536 45.3836 13.4158C45.2175 13.3319 44.9375 13.2904 44.8397 13.1508C44.5896 12.844 44.4489 12.4401 44.2675 12.0769C43.8644 11.3105 43.4728 10.4602 43.1249 9.64983C42.8733 9.10633 42.7203 8.56358 42.4134 8.06078C40.9763 5.69045 39.4156 4.25482 37.0169 2.84569C36.5014 2.55229 35.8881 2.42724 35.233 2.27345L34.1867 2.21821C33.9635 2.12041 33.7399 1.85501 33.5451 1.72959C32.7492 1.2279 30.7003 0.140536 30.115 1.57617C29.738 2.48361 30.6727 3.37575 30.9937 3.836C31.2307 4.15553 31.5379 4.5191 31.7037 4.88193C31.8018 5.11896 31.8295 5.37055 31.9276 5.62102C32.1509 6.23469 32.3595 6.91742 32.6529 7.49003C32.806 7.78193 32.9728 8.08877 33.1684 8.35305C33.2804 8.50759 33.4753 8.5759 33.5178 8.82786C33.3233 9.10558 33.308 9.52478 33.1964 9.87342C32.6947 11.449 32.8907 13.4009 33.6018 14.5588C33.8243 14.9075 34.3551 15.6749 35.0651 15.3808C35.6937 15.1299 35.5544 14.3352 35.7351 13.6383C35.7765 13.47 35.7493 13.3595 35.8329 13.249V13.2762C36.0274 13.6663 36.2237 14.0422 36.404 14.4334C36.8366 15.1161 37.5899 15.8276 38.2174 16.3005C38.5515 16.5529 38.8161 16.9844 39.2346 17.1386V17.0967H39.207C39.1222 16.9717 38.9983 16.9157 38.8871 16.8187C38.6355 16.5674 38.357 16.2606 38.1618 15.9821C37.5772 15.2009 37.0599 14.336 36.6007 13.4435C36.376 13.0105 36.1823 12.5371 36.0012 12.1049C35.9169 11.938 35.9169 11.6864 35.7769 11.6024C35.5671 11.9089 35.2614 12.1743 35.1084 12.5498C34.843 13.1504 34.8153 13.8892 34.7168 14.6574L34.6619 14.6842C34.2177 14.5726 34.0632 14.1131 33.8945 13.723C33.4768 12.7324 33.4066 11.1422 33.769 9.99921C33.8661 9.70694 34.286 8.78643 34.1184 8.50796C34.0344 8.24107 33.7552 8.08914 33.6022 7.87899C33.4223 7.61471 33.2252 7.28025 33.0997 6.98685C32.7653 6.20632 32.5969 5.34144 32.2367 4.56128C32.0684 4.19771 31.7761 3.82144 31.5394 3.48661C31.2737 3.11035 30.9814 2.84532 30.7712 2.39925C30.7018 2.24583 30.6044 1.99499 30.716 1.82813C30.7432 1.71615 30.8 1.67434 30.9112 1.64634C31.0919 1.49367 31.6081 1.68778 31.7892 1.77177C32.3062 1.9808 32.7384 2.17603 33.1699 2.46868C33.3651 2.60866 33.5746 2.87369 33.825 2.94349H34.1184C34.5637 3.04054 35.0658 2.97037 35.485 3.09653C36.2237 3.33394 36.893 3.68221 37.4932 4.0581C39.3197 5.21639 40.8259 6.86218 41.8427 8.82786C42.0095 9.14814 42.0805 9.44153 42.2328 9.77562C42.5265 10.4595 42.8897 11.1568 43.1813 11.826C43.4743 12.4811 43.7535 13.1501 44.1719 13.6943C44.3806 13.987 45.219 14.1404 45.5949 14.2938C45.873 14.4188 46.306 14.5301 46.5568 14.6835C47.0313 14.9758 47.5038 15.3114 47.9499 15.6327C48.172 15.8 48.87 16.1486 48.9115 16.4278ZM34.6873 4.30969C34.4948 4.30769 34.3029 4.33129 34.1166 4.37987V4.40786H34.1434C34.2558 4.63071 34.451 4.78525 34.5902 4.97973C34.7026 5.20332 34.8 5.42505 34.9101 5.64827L34.937 5.62065C35.1337 5.48141 35.2315 5.25819 35.2315 4.92336C35.1468 4.82482 35.1337 4.72851 35.0632 4.63071C34.9811 4.4911 34.8 4.42168 34.6873 4.30969Z" fill="white"/>
<path d="M50.239 31.8333H50.5279V30.4193H50.0945L49.741 31.3842L49.3569 30.4193H48.9396V31.8333H49.2125V30.7575H49.2278L49.6302 31.8333H49.8381L50.239 30.7575V31.8333ZM47.9116 31.8333H48.2173V30.659H48.6175V30.4189H47.4946V30.659H47.9108L47.9116 31.8333Z" fill="white"/>
</g>
</svg>
