<svg width="53" height="26" viewBox="0 0 53 26" fill="none" xmlns="http://www.w3.org/2000/svg">
<path opacity="0.75" d="M17.5927 7.51575C16.4492 6.19581 14.6299 5.53574 12.136 5.53574H3.8462L0 25.492H4.3107L5.33334 20.1865H9.02584C10.6552 20.1865 11.9955 20.0143 13.0479 19.6685C14.1 19.3237 15.0564 18.7449 15.9172 17.9324C16.6397 17.2628 17.2237 16.5244 17.6716 15.7167C18.1186 14.9094 18.4363 14.0185 18.6242 13.0441C19.0804 10.6784 18.7361 8.83589 17.5927 7.51575ZM14.1684 12.7393C13.8703 14.2838 13.2965 15.3861 12.446 16.0464C11.5951 16.707 10.3004 17.0372 8.56267 17.0372H5.94015L7.54989 8.68493H10.5036C12.1415 8.68493 13.2329 8.98964 13.7786 9.59939C14.3238 10.2095 14.4541 11.2559 14.1684 12.7393ZM34.6351 10.9L32.8456 20.1865H28.5007L30.2022 11.3568C30.3957 10.3522 30.3247 9.66701 29.9882 9.30182C29.6523 8.93642 28.9367 8.75347 27.8423 8.75347H24.4244L22.2212 20.1865H17.9442L21.7904 0.230225H26.0674L25.0449 5.53574H28.8552C31.2523 5.53574 32.906 5.95788 33.8162 6.8008C34.7265 7.64424 34.9989 9.01077 34.6351 10.9ZM51.2403 7.51575C50.0968 6.19581 48.2775 5.53574 45.784 5.53574H37.4942L33.648 25.492H37.9587L38.9813 20.1865H42.6738C44.3032 20.1865 45.643 20.0143 46.6955 19.6685C47.7476 19.3237 48.704 18.7449 49.5647 17.9324C50.2872 17.2628 50.8717 16.5244 51.3193 15.7167C51.7663 14.9094 52.0839 14.0185 52.2718 13.0441C52.7279 10.6784 52.3841 8.83589 51.2403 7.51575ZM47.8163 12.7393C47.5183 14.2838 46.9445 15.3861 46.0935 16.0464C45.243 16.707 43.948 17.0372 42.2101 17.0372H39.5881L41.1979 8.68493H44.1513C45.7892 8.68493 46.8805 8.98964 47.4265 9.59939C47.9717 10.2095 48.1015 11.2559 47.8163 12.7393Z" fill="white"/>
</svg>
