<svg width="41" height="42" viewBox="0 0 41 42" fill="none" xmlns="http://www.w3.org/2000/svg">
<g opacity="0.75">
<path d="M20.429 26.1598C20.7477 26.1687 20.9988 26.4326 20.9899 26.7494C20.926 29.018 20.9342 31.2911 21.0137 33.1315C21.0534 34.0523 21.1108 34.8583 21.1848 35.4982C21.2611 36.1574 21.3493 36.5838 21.4298 36.7839L21.4728 36.8896C21.6933 37.4261 21.9997 38.0687 22.5521 38.5312C23.1062 38.9951 23.9839 39.3377 25.487 39.0176L25.6099 38.9908C26.8649 38.7098 27.6439 38.3204 28.1641 37.7829C28.7001 37.2292 29.0309 36.4469 29.2399 35.242C29.5578 33.4113 30.1744 28.2955 30.2524 27.2619C30.2763 26.9459 30.5533 26.709 30.8712 26.7326C31.1891 26.7563 31.4275 27.0317 31.4036 27.3477C31.3229 28.418 30.7018 33.5704 30.3776 35.437C30.1508 36.7446 29.7614 37.7878 28.9961 38.5784C28.2319 39.368 27.1621 39.8343 25.729 40.1396C23.928 40.5231 22.6729 40.1326 21.8083 39.4088C20.9787 38.7142 20.5832 37.7698 20.3579 37.2101C20.214 36.8523 20.1139 36.2865 20.0379 35.6292C19.9596 34.9522 19.9007 34.1167 19.8603 33.1808C19.7794 31.3078 19.7714 29.0069 19.8359 26.7173C19.8448 26.4005 20.1103 26.151 20.429 26.1598Z" fill="white"/>
<path d="M9.02658 1.99888C10.936 1.89006 12.8487 2.2322 14.2689 2.59328C14.9823 2.77465 15.579 2.96281 15.9985 3.10603C16.2084 3.17768 16.3743 3.23822 16.4888 3.28126C16.5461 3.30279 16.5905 3.31997 16.6212 3.33197C16.6365 3.33796 16.6483 3.34267 16.6566 3.34599C16.6608 3.34764 16.664 3.34895 16.6664 3.3499C16.6676 3.35038 16.6686 3.35075 16.6693 3.35105C16.6693 3.35105 16.6707 3.35165 16.4647 3.85267L16.6708 3.35165C16.9659 3.47154 17.1073 3.80653 16.9867 4.09985C16.8661 4.39308 16.5293 4.53364 16.2342 4.4139L16.2329 4.41343C16.2317 4.41292 16.2295 4.41208 16.2265 4.41087C16.2204 4.40845 16.2109 4.40461 16.1979 4.39954C16.172 4.38938 16.1325 4.37411 16.0803 4.3545C15.976 4.31528 15.8212 4.25879 15.6235 4.19127C15.2276 4.05614 14.661 3.87744 13.9828 3.70502C12.6199 3.35851 10.8361 3.0451 9.09265 3.14446C7.34838 3.24388 5.70971 3.75132 4.54349 4.97924C3.38229 6.20187 2.59592 8.23798 2.76494 11.5967L2.76881 11.6638C2.81653 12.3869 3.0879 14.0626 3.55283 16.1251C4.03004 18.242 4.70138 20.7228 5.51562 22.9242C6.33978 25.1524 7.27733 27.0001 8.24777 27.9376C8.725 28.3987 9.13953 28.5716 9.49714 28.5566C9.85119 28.5416 10.3109 28.3352 10.8648 27.6733C11.7634 26.5989 12.6183 25.6411 13.2484 24.9521C13.5636 24.6074 13.8229 24.3296 14.0036 24.1377C14.094 24.0417 14.1648 23.9672 14.2132 23.9164C14.2374 23.8911 14.256 23.8718 14.2686 23.8586C14.2749 23.852 14.2797 23.847 14.283 23.8436C14.2846 23.8419 14.2859 23.8406 14.2868 23.8397L14.2878 23.8386C14.2878 23.8386 14.2889 23.8388 14.7049 24.2352L14.2878 23.8386C14.5084 23.6098 14.8742 23.6017 15.1044 23.821C15.3273 24.0334 15.3415 24.3808 15.1417 24.6103L15.1217 24.6321L15.1207 24.6331C15.12 24.6338 15.1189 24.6349 15.1175 24.6365C15.1146 24.6395 15.1101 24.6442 15.1042 24.6503C15.0923 24.6627 15.0745 24.6814 15.0511 24.7059C15.0043 24.755 14.9351 24.8278 14.8464 24.9219C14.669 25.1102 14.4136 25.3838 14.1027 25.7239C13.4805 26.4042 12.6373 27.3489 11.7525 28.4069C11.0863 29.2029 10.3505 29.669 9.54605 29.7029C8.74521 29.7367 8.03818 29.3352 7.44319 28.7604C6.26918 27.6263 5.25939 25.557 4.43203 23.3201C3.59475 21.0564 2.91039 18.5237 2.42625 16.376C1.94484 14.2405 1.65152 12.4416 1.6119 11.654C1.43319 8.10294 2.25594 5.71625 3.70404 4.19154C5.14711 2.67215 7.11793 2.10766 9.02658 1.99888Z" fill="white"/>
<path d="M29.1218 1.45203C31.9983 1.42547 35.6702 2.20756 38.3321 5.58822C38.9047 6.31549 39.1029 7.48712 39.0824 8.80591C39.0614 10.1582 38.8072 11.7942 38.3461 13.5687C37.4236 17.1186 35.6538 21.2951 33.1555 24.9799C32.9774 25.2426 32.6186 25.3121 32.3543 25.135C32.0899 24.9579 32.02 24.6014 32.1982 24.3386C34.6187 20.7686 36.3366 16.7133 37.2283 13.2817C37.6743 11.5654 37.9089 10.0232 37.9281 8.78818C37.9478 7.51975 37.7376 6.69508 37.4229 6.29542C35.0614 3.29622 31.802 2.57479 29.1326 2.59944C27.7987 2.61175 26.6287 2.81129 25.8243 2.99817C25.4228 3.09147 25.1153 3.18097 24.9276 3.24076C24.8698 3.25915 24.8251 3.27429 24.7935 3.28533C24.7656 3.29935 24.7363 3.31145 24.7054 3.32106C24.6952 3.32424 24.6734 3.33096 24.6491 3.3367C24.6421 3.33837 24.6304 3.34106 24.6161 3.34365C24.6065 3.34537 24.5738 3.35122 24.5317 3.35268C24.5076 3.35302 24.4439 3.34913 24.4046 3.34318C24.3328 3.32495 24.1417 3.22016 24.0428 3.11482C23.9568 2.93986 23.9564 2.61966 24.0061 2.50086C24.0411 2.44576 24.107 2.36918 24.1335 2.34491C24.1771 2.30742 24.2169 2.28506 24.2246 2.28066C24.2396 2.27209 24.2521 2.26581 24.2591 2.26239C24.2735 2.25537 24.2858 2.24997 24.2928 2.24702C24.3078 2.24064 24.3229 2.23473 24.3356 2.22989C24.3867 2.21043 24.4686 2.18202 24.5752 2.14804C24.7914 2.07917 25.1288 1.98139 25.5616 1.88084C26.4259 1.68004 27.6826 1.46532 29.1218 1.45203Z" fill="white"/>
<path d="M15.8254 3.68266C17.1776 2.56364 18.9864 1.85046 21.3723 1.88934C26.103 1.96644 29.2249 4.384 31.1008 6.76773C32.0368 7.95703 32.669 9.14448 33.0466 10.0462C33.2348 10.4959 33.364 10.8847 33.4351 11.1754C33.4696 11.3164 33.496 11.4567 33.5026 11.5784C33.5056 11.6336 33.5073 11.7259 33.4833 11.8253C33.4696 11.8819 33.3816 12.2101 33.0154 12.2854L32.8072 12.2901C30.4376 11.913 29.3512 12.3131 28.8796 12.8493C28.3997 13.3951 28.3349 14.3271 28.6482 15.5757C28.9523 16.7875 29.5661 18.1084 30.1554 19.2325C30.4483 19.7911 30.7303 20.2922 30.9599 20.7016C31.1788 21.0918 31.3741 21.4395 31.4605 21.6477L31.4879 21.7126C31.7733 22.3773 32.1247 22.8512 32.4416 23.249C32.5986 23.4461 32.7729 23.6554 32.9063 23.8443C33.036 24.0279 33.1688 24.248 33.2324 24.5025C33.236 24.5092 33.2433 24.5217 33.2561 24.5382C33.2933 24.5859 33.3954 24.6931 33.6402 24.7938C34.1465 25.0021 35.256 25.1782 37.5394 24.7098L37.5917 24.6993C37.8512 24.6487 38.0865 24.6233 38.2929 24.6303C38.5001 24.6374 38.753 24.6793 38.9615 24.837C39.2108 25.0255 39.301 25.3043 39.2758 25.565C39.2541 25.7892 39.1515 25.9874 39.0504 26.139C38.8427 26.4504 38.4997 26.7724 38.1006 27.0681C37.693 27.37 37.1937 27.6688 36.6418 27.9235C35.6946 28.3605 34.2295 28.6144 33.006 28.6277C32.3929 28.6344 31.7895 28.5819 31.3146 28.4352C30.8946 28.3054 30.2903 28.0044 30.2519 27.3375C30.2081 26.5722 30.3187 25.9845 30.5647 25.5362C30.8172 25.0762 31.1789 24.8236 31.514 24.6736C31.6762 24.601 31.8319 24.5524 31.9575 24.5162C31.961 24.5152 31.9645 24.5142 31.968 24.5132C31.9658 24.5101 31.9636 24.5068 31.9614 24.5035C31.8535 24.3508 31.7192 24.1907 31.5365 23.9613C31.1952 23.5328 30.7711 22.9663 30.4264 22.1637L30.3933 22.0853C30.3399 21.9567 30.1908 21.6869 29.9516 21.2603C29.7231 20.853 29.4332 20.338 29.1316 19.7628C28.532 18.619 27.8662 17.2007 27.5281 15.8534C27.1992 14.543 27.1296 13.0959 28.0104 12.0942C28.7999 11.1963 30.1812 10.8467 32.1961 11.0526C32.1404 10.8882 32.0691 10.6982 31.9807 10.4871C31.638 9.66867 31.0559 8.57304 30.1915 7.47466C28.4667 5.28299 25.6441 3.10661 21.3534 3.03668C19.2295 3.00206 17.693 3.63017 16.564 4.56448C15.424 5.50787 14.6633 6.79419 14.1588 8.12279C13.6549 9.45009 13.4179 10.7907 13.3079 11.8058C13.2531 12.3117 13.2303 12.7328 13.2211 13.0257C13.2166 13.1721 13.2155 13.2862 13.2155 13.3625C13.2154 13.4006 13.2157 13.4293 13.2159 13.4479C13.2161 13.4572 13.2162 13.4639 13.2163 13.4681C13.2163 13.4701 13.2163 13.4716 13.2163 13.4723C13.2246 13.7889 12.973 14.0529 12.6545 14.0612C12.3358 14.0695 12.0707 13.8195 12.0623 13.5027L12.6393 13.4876L12.1344 13.5007C12.0659 13.5024 12.0623 13.5027 12.0623 13.5027L12.0622 13.5013C12.0622 13.5013 12.0622 13.4999 12.0622 13.4989C12.0622 13.4969 12.0621 13.4943 12.062 13.491C12.0619 13.4844 12.0617 13.4751 12.0615 13.4633C12.0612 13.4396 12.061 13.4056 12.061 13.362C12.061 13.2747 12.0623 13.1489 12.0672 12.9901C12.0771 12.6726 12.1017 12.2221 12.1601 11.683C12.2765 10.608 12.5292 9.16487 13.0787 7.71765C13.6277 6.27171 14.4841 4.79261 15.8254 3.68266ZM32.6181 25.5178C32.5091 25.5556 32.3675 25.5927 32.2791 25.6182C32.1718 25.6492 32.0767 25.6802 31.9881 25.7198C31.8215 25.7944 31.6816 25.8973 31.5782 26.0858C31.4709 26.2812 31.3733 26.6229 31.4021 27.2258C31.4304 27.2484 31.5004 27.2909 31.6573 27.3394C31.9672 27.4351 32.4339 27.4864 32.9933 27.4803C34.1147 27.4681 35.4039 27.2296 36.1557 26.8828C36.6389 26.6597 37.0695 26.4008 37.4107 26.148C37.5637 26.0346 37.6928 25.9269 37.7983 25.8286C37.7899 25.8302 37.7815 25.8318 37.7729 25.8336C35.3976 26.3209 34.0173 26.1909 33.1986 25.854C32.9593 25.7556 32.7689 25.6396 32.6181 25.5178ZM33.2402 24.5345C33.24 24.5339 33.2398 24.533 33.2398 24.533C33.239 24.5293 33.2382 24.5259 33.2374 24.5229L33.2368 24.5209C33.2379 24.5255 33.2391 24.53 33.2402 24.5345Z" fill="white"/>
<path d="M18.696 24.534C19.1048 24.4985 19.4437 24.6428 19.6242 24.7171C20.1947 24.9522 20.6252 25.4897 20.8339 26.0494C21.0447 26.6148 21.0766 27.3381 20.6496 27.9323C18.578 30.8155 15.4988 30.3225 14.273 30.0177C13.9849 29.9461 13.6622 29.8256 13.3785 29.6713C13.1171 29.5292 12.7935 29.3079 12.6224 28.9926C12.5275 28.8176 12.4684 28.591 12.5263 28.3417C12.5827 28.0982 12.7324 27.912 12.9004 27.7758C13.2162 27.5198 13.7165 27.3425 14.3703 27.2086C15.6348 26.9498 16.0407 26.779 16.2987 26.5746C16.4318 26.4692 16.5468 26.338 16.7273 26.1118C16.9033 25.8912 17.1291 25.5972 17.4579 25.2322C17.8485 24.7978 18.2606 24.5718 18.696 24.534ZM19.1142 25.7498C18.9648 25.6911 18.8796 25.6698 18.7965 25.677C18.7283 25.683 18.5698 25.7175 18.3184 25.9972C18.0185 26.3302 17.8186 26.5907 17.6317 26.8249C17.4494 27.0534 17.2639 27.2774 17.0181 27.472C16.5183 27.8679 15.8522 28.0768 14.6033 28.3324C14.3056 28.3933 14.0822 28.4574 13.9184 28.5192C13.8662 28.5388 13.8222 28.5577 13.7851 28.5751C13.8272 28.604 13.8765 28.6342 13.9326 28.6647C14.1238 28.7687 14.3536 28.855 14.553 28.9045C15.6923 29.1879 18.0848 29.5275 19.7101 27.2655L19.7226 27.2474C19.8477 27.058 19.8723 26.7726 19.7513 26.4482C19.6244 26.1076 19.385 25.8608 19.1824 25.7772L19.1142 25.7498Z" fill="white"/>
<path d="M15.5808 11.3496C16.4265 11.1557 17.3812 11.0936 18.2143 11.4133C19.0917 11.7501 19.7473 12.4773 20.0047 13.6603C20.61 16.4426 20.5437 18.3178 20.2192 19.7394C20.0576 20.4471 19.8354 21.0273 19.6173 21.5323C19.3896 22.0593 19.1994 22.4362 19.0447 22.8499C18.8262 23.4353 18.6319 23.9348 18.5032 24.3947C18.3749 24.8534 18.331 25.2108 18.3762 25.5035C18.4245 25.8167 18.2082 26.1095 17.8931 26.1575C17.578 26.2056 17.2834 25.9907 17.2351 25.6775C17.2233 25.6013 17.2152 25.5249 17.2103 25.4483C14.0165 25.3706 11.4771 22.292 11.9687 18.7979C12.3287 16.2392 12.0577 14.1332 12.062 13.4839C12.0637 13.235 12.2083 13.0546 12.2613 12.9908C12.3386 12.8976 12.4347 12.8099 12.5321 12.7311C12.73 12.5712 12.9953 12.3984 13.2987 12.2305C13.9063 11.8942 14.7243 11.5459 15.5808 11.3496ZM17.7984 12.4837C17.2741 12.2825 16.5842 12.2972 15.8403 12.4677C15.1071 12.6358 14.3904 12.9396 13.8603 13.233C13.5947 13.38 13.3904 13.5165 13.2606 13.6214C13.2459 13.6333 13.2329 13.6442 13.2215 13.6541C13.2564 14.3608 13.4519 16.5412 13.112 18.9568C12.6997 21.8874 14.854 24.294 17.3347 24.3017C17.3523 24.2299 17.3711 24.1583 17.391 24.0872C17.5363 23.5679 17.7544 23.0077 17.9624 22.4505C18.1283 22.0069 18.3634 21.5262 18.5564 21.0795C18.7589 20.6108 18.9529 20.1007 19.0933 19.4855C19.3728 18.2613 19.4543 16.5595 18.8764 13.9029L18.8585 13.8251C18.6668 13.0351 18.2633 12.6621 17.7984 12.4837ZM13.1518 13.721C13.1403 13.7348 13.1433 13.7338 13.1527 13.7198L13.1518 13.721Z" fill="white"/>
<path d="M18.2177 13.6754C18.191 13.8631 17.9027 13.8569 17.7318 14.0278C17.3899 13.6861 18.129 13.8365 18.1553 13.649C17.5608 13.8569 17.8363 13.9727 17.3505 13.9055C16.8655 13.8382 18.2434 13.4882 18.2177 13.6754Z" fill="white"/>
<path d="M16.6444 13.0148C16.8406 12.9686 17.0904 12.9619 17.3505 12.998C17.6109 13.034 17.8495 13.1082 18.0255 13.206C18.113 13.2546 18.1942 13.3141 18.2535 13.3857C18.3128 13.4574 18.3624 13.5577 18.3459 13.6754C18.3323 13.7723 18.2768 13.8643 18.2177 13.9374C18.1547 14.0153 18.0707 14.0924 17.9722 14.1587C17.7765 14.2905 17.5044 14.3919 17.203 14.3501C16.9041 14.309 16.6523 14.1376 16.4823 13.9602C16.3963 13.8704 16.3257 13.7736 16.2775 13.681C16.2336 13.5968 16.1922 13.4859 16.2075 13.3785L16.2309 13.214H16.2797C16.3081 13.1783 16.3419 13.1489 16.3759 13.1255C16.4525 13.0728 16.547 13.0377 16.6444 13.0148Z" fill="white"/>
<path d="M31.1633 13.0226C31.1896 13.2103 30.8176 13.7112 30.332 13.7781C29.8468 13.8453 29.4319 13.4539 29.4053 13.2664C29.3797 13.0787 29.7517 12.8719 30.2369 12.8047C30.7222 12.7375 31.137 12.8353 31.1633 13.0226Z" fill="white"/>
<path d="M30.2237 12.71C30.475 12.6752 30.7125 12.6823 30.8944 12.7252C30.985 12.7465 31.067 12.7779 31.1304 12.8215C31.1939 12.8651 31.2469 12.9271 31.2585 13.0094C31.2693 13.0865 31.2396 13.1751 31.1982 13.2544C31.1547 13.3379 31.0899 13.4275 31.0093 13.5116C30.8492 13.6788 30.616 13.8354 30.3452 13.8727C30.0731 13.9104 29.8245 13.8193 29.6427 13.6969C29.5516 13.6356 29.4748 13.5648 29.4182 13.4948C29.3635 13.4273 29.3203 13.3515 29.3101 13.2797C29.2988 13.1974 29.3329 13.1228 29.382 13.0636C29.431 13.0045 29.5013 12.9521 29.5826 12.9069C29.7459 12.8162 29.9723 12.7448 30.2237 12.71ZM30.85 12.9113C30.6967 12.8751 30.4841 12.867 30.2503 12.8994C30.0164 12.9318 29.8142 12.9974 29.6765 13.0738C29.6074 13.1122 29.5591 13.1508 29.5305 13.1853C29.5021 13.2195 29.4991 13.2416 29.5006 13.2532C29.5038 13.2753 29.5224 13.3186 29.5681 13.3749C29.6118 13.429 29.6741 13.4871 29.7507 13.5386C29.9043 13.642 30.1057 13.7129 30.3187 13.6834C30.5335 13.6538 30.7293 13.5266 30.8699 13.3797C30.9397 13.3068 30.9933 13.2318 31.0274 13.1665C31.0635 13.0972 31.0703 13.0528 31.068 13.0359L31.067 13.0312C31.0638 13.0194 31.0532 13.001 31.021 12.9788C30.9841 12.9534 30.9271 12.9294 30.85 12.9113Z" fill="white"/>
<path d="M32.8674 11.1507C33.1857 11.1337 33.4577 11.3763 33.4749 11.6927C33.5181 12.4896 33.4307 13.1559 33.3334 13.7951C33.2354 14.4385 33.1298 15.0424 33.106 15.7844C33.089 16.307 33.143 16.8601 33.2143 17.4645C33.2842 18.0568 33.3717 18.7049 33.4042 19.3613C33.4704 20.6949 33.3158 22.1375 32.3428 23.5818C32.1654 23.8451 31.8069 23.9156 31.542 23.7393C31.2771 23.563 31.2061 23.2067 31.3835 22.9434C32.1692 21.777 32.3103 20.6103 32.2512 19.4178C32.2211 18.8113 32.1407 18.2172 32.0676 17.5982C31.996 16.9915 31.932 16.3639 31.9522 15.7475C31.9787 14.9223 32.0978 14.2413 32.1919 13.6234C32.2866 13.0013 32.3587 12.4299 32.3221 11.7545C32.3049 11.4381 32.5491 11.1678 32.8674 11.1507Z" fill="white"/>
</g>
</svg>
