<svg width="35" height="35" viewBox="0 0 35 35" fill="none" xmlns="http://www.w3.org/2000/svg">
<path opacity="0.75" d="M21 28.0612V30.3277H18.6667V28.0612H21ZM32.6668 22.3944V11.061C32.6668 10.4351 32.1444 9.92765 31.5 9.92765H25.6666V15.5944C25.6666 17.4721 24.0997 18.9943 22.1667 18.9943H12.8333C12.189 18.9943 11.6666 19.5018 11.6666 20.1278V31.4611C11.6666 32.0871 12.1889 32.5945 12.8333 32.5945H22.1667C22.8111 32.5945 23.3334 32.0871 23.3334 31.4611V25.7944H25.6666V31.4611C25.6666 33.3389 24.0997 34.8611 22.1667 34.8611H12.8333C10.9004 34.8611 9.33335 33.3389 9.33335 31.4611V28.0611H3.49993C1.56698 28.0611 0 26.5389 0 24.6611V13.3277C0 11.45 1.56697 9.92778 3.49993 9.92777H18.6667V12.1943H3.49993C2.85556 12.1943 2.3332 12.7018 2.3332 13.3277V24.6611C2.3332 25.2871 2.85555 25.7945 3.49993 25.7945H9.33335V20.1278C9.33335 18.25 10.9004 16.7278 12.8333 16.7278H22.1667C22.8111 16.7278 23.3334 16.2204 23.3334 15.5944V4.26101C23.3334 3.63504 22.8111 3.12762 22.1667 3.12762H12.8333C12.189 3.12762 11.6666 3.63506 11.6666 4.26101V9.92773H9.33335V4.26101C9.33336 2.38328 10.9004 0.861084 12.8333 0.861084H22.1667C24.0997 0.861084 25.6666 2.38329 25.6666 4.26101V7.66111H31.5C33.433 7.66111 35 9.18333 35 11.061V22.3944C35 24.2722 33.433 25.7944 31.5 25.7944H16.3333V23.5278H31.5C32.1444 23.5278 32.6668 23.0204 32.6668 22.3944ZM16.3333 5.39445V7.66098H14V5.39445H16.3333Z" fill="white"/>
</svg>
