<svg width="40" height="41" viewBox="0 0 40 41" fill="none" xmlns="http://www.w3.org/2000/svg">
<path opacity="0.75" d="M36.3097 29.6616C31.3853 36.23 20.8704 34.0133 14.127 34.3308C14.127 34.3308 12.9323 34.3987 11.7316 34.5964C11.7316 34.5964 12.1863 34.4027 12.7667 34.201C17.5017 32.5614 19.7395 32.2318 22.6175 30.752C28.0226 27.98 33.4037 21.9388 34.4987 15.6639C32.4404 21.6991 26.1817 26.8936 20.4834 29.0025C16.5842 30.4444 9.52968 31.8464 9.52768 31.8464C9.43184 31.7973 9.33676 31.7467 9.24247 31.6946C4.44572 29.358 4.30611 18.9531 13.02 15.6C16.8415 14.1301 20.4934 14.9369 24.624 13.9523C29.0278 12.9039 34.1297 9.59866 36.202 5.27693C38.5256 12.1829 41.3179 22.9832 36.3097 29.6616ZM36.3935 3.14002C35.8364 4.47758 35.1234 5.74454 34.2693 6.91455C32.4128 4.99862 30.1909 3.47557 27.7354 2.43576C25.2799 1.39594 22.6409 0.860546 19.9748 0.861329C8.95926 0.861329 2.18255e-06 9.83232 2.18255e-06 20.8603C-0.00128407 23.6112 0.56597 26.3326 1.66608 28.8532C2.76619 31.3739 4.37536 33.6394 6.39234 35.5071L6.83113 35.8945C6.51131 35.5737 6.3318 35.1389 6.33208 34.6856C6.33236 34.2324 6.5124 33.7978 6.83263 33.4774C7.15285 33.157 7.58704 32.9771 8.03971 32.9772C8.49239 32.9773 8.9265 33.1574 9.24659 33.4779C9.56668 33.7984 9.74655 34.2331 9.74665 34.6864C9.74674 35.1396 9.56705 35.5744 9.24709 35.895C8.92713 36.2157 8.4931 36.396 8.04042 36.3962C7.58774 36.3965 7.15348 36.2168 6.83313 35.8965L7.13031 36.1601C10.7212 39.2 15.2726 40.8658 19.9748 40.8613C30.5017 40.8613 39.1479 32.6572 39.8878 22.3042C40.4343 17.2336 38.9384 10.7949 36.3935 3.14002Z" fill="white"/>
</svg>
