<svg width="36" height="39" viewBox="0 0 36 39" fill="none" xmlns="http://www.w3.org/2000/svg">
<path opacity="0.75" d="M19.0169 34.8714H19.0274C19.0524 34.931 18.0828 37.5156 17.7307 38.3353C17.6505 38.519 17.6229 38.5646 17.5796 38.5621C16.7939 38.4666 16.0095 38.3611 15.2264 38.2453C13.7391 38.0274 11.248 37.6068 10.62 37.47L10.4742 37.4383L11.3663 37.2457C13.278 36.8314 14.195 36.6072 15.1266 36.3322C16.518 35.9167 17.6807 35.4745 18.8015 34.9601L18.6372 35.0285C18.7371 34.9791 18.8645 34.9272 18.9933 34.8816L19.0196 34.874L19.0169 34.8714ZM11.5909 33.1915C11.5988 33.1991 11.1758 33.8528 10.4321 34.9842C10.1168 35.4606 9.76073 36.0054 9.63854 36.1903C9.51504 36.3766 9.33635 36.6617 9.24175 36.8238L9.06569 37.1165L8.97766 37.095C8.76482 37.0392 7.25518 36.5248 6.85839 36.3728C6.29474 36.1574 5.83752 35.9509 5.39474 35.7216L5.46964 35.757C5.07679 35.5683 4.74044 35.3592 4.42774 35.1198L4.43956 35.1286L6.25401 34.651C8.8673 33.9643 10.3139 33.569 11.2612 33.2827C11.4399 33.2307 11.5883 33.1889 11.5896 33.1927L11.5909 33.1915ZM12.6447 33.1636C12.6499 33.1585 12.9153 33.2485 13.2385 33.3663C13.8258 33.5918 14.5642 33.8186 15.3197 34.001L15.4498 34.0277C16.3866 34.262 17.5244 34.4584 18.6858 34.5788L18.7949 34.5877C18.9263 34.5978 18.9946 34.613 18.9749 34.6257C18.9342 34.651 18.0552 34.9323 17.4101 35.1286C14.8796 35.8711 12.3425 36.5903 9.79883 37.2863C9.79489 37.2863 9.78963 37.2863 9.78438 37.2863C9.69504 37.2863 9.61095 37.2622 9.53869 37.2216L9.54131 37.2229C9.64642 37.0772 9.75153 36.9505 9.8619 36.8289L9.85796 36.8327C10.6634 35.9078 11.4609 34.8841 12.198 33.8186L12.2807 33.6919C12.4007 33.5145 12.5212 33.3376 12.642 33.1611L12.6447 33.1636ZM7.88321 29.8809L8.07504 30.0887C8.86993 30.9553 9.79358 31.6901 10.8236 32.2679L10.8762 32.2957C10.9984 32.3553 11.1035 32.4224 11.1981 32.4997L11.1955 32.4984C8.83226 33.3245 6.46248 34.132 4.08613 34.9209C4.04584 34.8972 4.00642 34.8719 3.96788 34.8448L3.85752 34.7688L4.02963 34.5281C4.58803 33.7477 5.29095 32.8899 6.82949 31.1048L7.88321 29.8809ZM7.11985 29.5996C7.13431 29.6136 6.37489 30.6614 5.31328 32.0943L4.34891 33.3967C4.18993 33.6172 3.94686 33.963 3.80891 34.1696L3.55796 34.5433L3.29255 34.3267C2.89182 33.9871 2.5292 33.6298 2.19416 33.2485L2.18102 33.2333C1.72642 32.7151 1.38088 32.0917 1.19168 31.4076L1.1838 31.3747C1.12204 31.0997 1.1181 30.9604 1.17854 30.9426C2.23577 30.6968 3.29431 30.4565 4.35416 30.2217L6.4892 29.739C6.83212 29.6592 7.11591 29.5971 7.11985 29.5996ZM20.7263 29.1511L20.7302 29.1562C20.7302 29.2829 20.4293 30.4675 20.1784 31.3252C19.9682 32.0423 19.7908 32.6049 19.4636 33.6007C19.3804 33.8693 19.2885 34.1353 19.1877 34.3989C17.3247 34.0872 15.6705 33.6248 14.0965 33.0103L14.262 33.0673C13.9055 32.933 13.5556 32.7835 13.2123 32.6188C13.4264 32.5022 13.6892 32.3793 13.9599 32.2729L14.0098 32.2552C16.7269 31.1137 19.5412 29.8125 20.5029 29.2538C20.566 29.2094 20.6396 29.1752 20.7197 29.1537L20.725 29.1524L20.7263 29.1511ZM14.8323 27.1671C14.7994 27.2735 14.7639 27.3622 14.7232 27.4484L14.7285 27.4344C14.0216 29.0397 13.3279 30.3598 12.5593 31.6331L12.6578 31.4557C12.5264 31.688 12.3885 31.9165 12.2439 32.1412C12.2361 32.1412 12.0574 32.0373 11.8432 31.9118C10.6331 31.2099 9.60307 30.3598 8.73854 29.3691L8.72277 29.3513L8.61766 29.2246L9.16292 29.0802C11.2283 28.5443 12.9705 27.9475 14.6496 27.2406L14.4 27.3343C14.6339 27.2393 14.827 27.162 14.8296 27.1671H14.8323ZM15.7809 26.8668C15.9109 26.9264 16.0161 26.9834 16.1185 27.0442L16.1041 27.0366C17.4193 27.7588 18.9434 28.3466 20.5515 28.7242L20.6737 28.7483L20.8117 28.7799L20.6225 28.88C19.8315 29.3044 17.2222 30.351 14.5577 31.3138C14.2765 31.4152 13.9958 31.5174 13.7155 31.6204C13.6761 31.6394 13.6314 31.6546 13.5841 31.6623H13.5815C13.5815 31.6559 13.6918 31.4532 13.8258 31.2099C14.4841 30.0596 15.1174 28.6976 15.6403 27.2849L15.7047 27.086C15.7428 26.9707 15.7769 26.8719 15.7822 26.8681L15.7809 26.8668ZM6.47343 25.2591C6.49839 25.2591 6.49183 25.3034 6.45372 25.5137C6.42131 25.7181 6.39898 25.9238 6.38672 26.1307C6.38015 26.2181 6.3762 26.3195 6.3762 26.4209C6.3762 27.162 6.5746 27.8589 6.92277 28.4632L6.91095 28.4417C7.03182 28.6786 7.12774 28.8749 7.12248 28.8787C7.07781 28.9155 3.13226 30.0279 1.89197 30.356L1.17723 30.5461C1.13255 30.5587 1.12993 30.5499 1.14438 30.451C1.44788 29.3108 2.0562 28.334 2.87869 27.5713L2.88131 27.5687C3.44102 26.9999 4.08744 26.5171 4.80219 26.1396L4.84292 26.1206C5.38073 25.8233 5.9238 25.5357 6.47212 25.2578L6.47343 25.2591ZM21.2702 23.5601V23.8033C21.2518 25.4896 21.1007 27.1278 20.8248 28.7254L20.8511 28.5405C19.6594 28.2047 18.6254 27.7828 17.6558 27.2634L17.7346 27.3014C17.1933 27.0265 16.7374 26.7515 16.3025 26.4513L16.3393 26.4753C16.3445 26.469 16.5915 26.3436 16.8872 26.1953C18.18 25.5505 19.2482 24.9373 20.2769 24.2734L20.1508 24.3494C20.5147 24.115 21.0626 23.7336 21.1835 23.631L21.2702 23.5601ZM10.9787 23.1572C10.7737 23.6399 10.578 24.0301 10.3612 24.4089L10.394 24.3456C9.81723 25.4314 9.18 26.5007 8.3365 27.8044L8.03825 28.2605C8.00803 28.3036 7.99489 28.2896 7.90423 28.1122C7.70321 27.7271 7.54423 27.2811 7.44964 26.8123L7.44438 26.7794C7.40891 26.5514 7.38788 26.2878 7.38788 26.0205C7.38788 25.6822 7.42073 25.3528 7.48248 25.0323L7.47723 25.0652C7.55474 24.7054 7.5508 24.7143 7.72686 24.6281C8.48496 24.2531 10.955 23.1369 10.9787 23.1572ZM12.1743 22.6821L12.1901 22.6884C12.2229 22.7467 12.2531 22.8151 12.2794 22.8861L12.282 22.8962C12.558 23.5487 12.8891 24.1125 13.2858 24.6268L13.2701 24.6066C13.7667 25.2363 14.3146 25.7874 14.9229 26.2714L14.94 26.2853C14.9781 26.317 14.9886 26.3106 14.0177 26.6654C12.773 27.1181 11.5174 27.5404 10.2508 27.9323C9.71343 28.0996 9.25883 28.2415 9.24044 28.2491C9.18657 28.2668 9.20234 28.2351 9.36 27.9995C10.1812 26.7085 10.9708 25.202 11.6356 23.6336L11.7158 23.4207C11.8169 23.1673 11.9155 22.9139 11.9339 22.8569C11.947 22.7885 11.9969 22.7328 12.0639 22.7112C12.0955 22.6947 12.1323 22.6859 12.1717 22.6846L12.1743 22.6821ZM16.0739 21.1997C16.0818 21.3733 16.087 21.5786 16.087 21.7825C16.087 22.1652 16.0699 22.5452 16.0371 22.9203L16.041 22.8708C15.9004 23.9579 15.66 24.9423 15.3223 25.8811L15.3539 25.7785C14.9518 25.4504 14.5892 25.1096 14.2528 24.7447L14.2436 24.7345C13.8311 24.2848 13.4658 23.7805 13.1663 23.2357L13.1453 23.1939C13.0244 22.9747 12.9127 22.7163 12.8234 22.4477L12.8128 22.4135C12.9048 22.3501 16.0489 21.1782 16.0726 21.1985L16.0739 21.1997ZM16.9003 20.8944C17.0974 20.9654 17.2682 21.0578 17.4219 21.1706L17.4166 21.1668C18.406 21.7825 19.5885 22.4274 20.8091 23.0115L21.0285 23.1065C21.2518 23.2015 21.2768 23.1635 20.7657 23.498C19.5937 24.2531 18.247 24.9626 16.8359 25.5581L16.6651 25.6227C16.4855 25.7021 16.3042 25.7768 16.1212 25.8469C16.1343 25.7291 16.1593 25.6214 16.1947 25.5188L16.1908 25.5302C16.5561 24.3279 16.7847 22.9418 16.8254 21.5089V21.4861C16.828 20.9134 16.828 20.9096 16.8858 20.8957H16.8964L16.9003 20.8944ZM20.9194 19.6236C21.0915 20.4738 21.2032 21.4671 21.2321 22.4806V22.506C21.2387 22.5579 21.2426 22.6175 21.2426 22.6783C21.2426 22.7556 21.2361 22.8316 21.2242 22.9051L21.2255 22.8975C21.1796 22.8975 20.2152 22.3514 19.5307 21.9384C18.8842 21.5456 18.2483 21.1381 17.6229 20.7158C17.5651 20.6714 17.5717 20.6702 18.0591 20.508C18.8882 20.2331 20.8564 19.6249 20.9194 19.6249V19.6236ZM22.726 18.6025L14.8323 21.0844L7.96993 24.0073L6.04905 24.4976C5.55942 24.9444 5.04044 25.3984 4.49212 25.8596C3.88511 26.3676 3.3162 26.8288 2.88263 27.1608C2.30978 27.6194 1.79737 28.1097 1.33226 28.6393L1.31781 28.657C0.846131 29.1968 0.455912 29.8214 0.178686 30.5005L0.16292 30.5461C0.0591242 30.84 0 31.1783 0 31.5305C0 32.2311 0.236496 32.8785 0.637226 33.4018L0.630657 33.3929C1.75139 34.76 3.2019 35.8267 4.87051 36.4906L4.94015 36.5147C5.97547 36.9467 7.2381 37.3661 8.53752 37.698L8.73328 37.7411C11.0799 38.2796 13.8482 38.6748 16.6796 38.8421L16.8215 38.8484C16.9699 38.8573 17.142 38.8611 17.3168 38.8611C17.5112 38.8611 17.7031 38.8548 17.8936 38.8433L17.8673 38.8446C18.1143 38.4607 18.3718 37.9983 18.6018 37.5219L18.6385 37.4358C19.7369 35.3998 20.6921 33.0268 21.3766 30.5461L21.4345 30.2977C21.7721 28.8712 22.0257 27.1772 22.1413 25.4478L22.1466 25.3503C22.1912 24.7903 22.207 22.9228 22.1728 22.2881C22.1269 21.296 22.0191 20.3673 21.8523 19.4577L21.872 19.5869C21.8575 19.535 21.8496 19.4754 21.8496 19.4146C21.8496 19.3918 21.8509 19.369 21.8536 19.3475V19.35C21.8759 19.3348 21.9508 19.3107 22.9204 19.0383L22.726 18.6025ZM15.6508 5.29059C15.6758 5.29186 15.7034 5.34127 15.7769 5.49837C15.9806 5.92913 16.6139 7.09473 16.7676 7.31898C16.8162 7.39373 16.899 7.39754 16.0568 7.26704C14.0374 6.9541 13.3818 6.84768 13.3818 6.83501C13.4212 6.80207 13.4658 6.77293 13.5145 6.75139L13.5184 6.75012C14.2069 6.37384 14.802 5.97221 15.3526 5.52244L15.3355 5.53638L15.6232 5.30326L15.6508 5.29059ZM8.50599 3.91468L9.34555 4.92444C9.80803 5.4781 10.2718 6.03049 10.373 6.14958C10.4347 6.21547 10.4939 6.28768 10.5464 6.36497L10.5504 6.3713C10.528 6.38904 9.33504 6.16606 8.70306 6.02416C8.2581 5.93294 7.81883 5.82102 7.38526 5.68841L7.05679 5.58706L7.0581 5.50977C7.06336 5.12208 7.57051 4.54815 8.4311 3.96409L8.50599 3.91468ZM8.74117 3.7335L8.97241 3.80952C10.7501 4.3201 12.8549 4.72173 15.0175 4.93711L15.1699 4.94978C15.367 4.96625 15.5339 4.98272 15.5391 4.98779C15.4366 5.04987 15.3145 5.11322 15.187 5.1715L15.1647 5.18036C14.3185 5.58832 13.387 6.0875 12.7419 6.47646C12.6302 6.55121 12.5041 6.61963 12.3701 6.67537L12.3556 6.68044C12.2619 6.66777 12.1691 6.65341 12.0771 6.63736L11.8406 6.60062L11.2415 6.03809C10.1891 5.0562 9.36788 4.29603 9.04993 4.01096L8.74117 3.7335ZM14.4907 1.15652H14.4985C14.5038 1.16158 14.5261 1.32249 14.5511 1.51253C14.6707 2.4184 14.8743 3.23812 15.1594 4.01983L15.1331 3.93495C15.3526 4.56842 15.3565 4.53168 15.0937 4.46073C14.4867 4.2973 11.7578 3.84626 9.78438 3.58147C9.58817 3.55697 9.39285 3.5291 9.19839 3.49785C9.17343 3.47378 10.6213 2.74274 11.2638 2.45261C12.0863 2.08519 14.3277 1.18566 14.4907 1.15652ZM14.5905 0.861316C14.4591 0.846112 12.3399 1.58221 10.9787 2.11307C9.38234 2.70093 8.01197 3.37875 6.72963 4.1782L6.81766 4.12626C6.49971 4.33657 6.23299 4.59376 6.02277 4.8915L6.0162 4.90163C5.99387 4.95865 5.98204 5.02453 5.98204 5.09294C5.98204 5.09421 5.98204 5.09548 5.98204 5.09675L6.7835 5.82524L8.68467 6.41058L13.2149 7.19229L18.3915 8.05002L18.4441 7.62305L18.3981 7.61545L17.7162 7.51029L17.5769 7.27591C16.8736 6.07906 16.2293 4.85222 15.6442 3.5954C15.3512 2.9746 15.0556 2.20429 14.8112 1.41371L14.7745 1.27688C14.6628 0.891723 14.6509 0.870184 14.5905 0.861316ZM12.9508 19.0066C12.5895 19.4539 12.2242 19.8517 11.834 20.2255L11.8327 20.2267C10.7435 21.3049 9.52949 22.2564 8.21036 23.0634L8.12891 23.1103C7.95153 23.2193 7.79124 23.3156 7.76759 23.3282C7.72949 23.3498 7.78073 23.294 8.40088 22.6415C8.79109 22.231 9.09066 21.8915 9.43226 21.4658C9.59124 21.2453 9.78964 21.0629 10.0182 20.9223L10.0261 20.9172C10.9077 20.3027 12.9272 18.9838 12.9508 19.0066ZM13.8758 18.7862C13.9034 18.7811 13.9415 18.8305 14.1044 19.0637C14.4355 19.54 14.6707 20.1064 14.7692 20.7158L14.7718 20.7398L14.785 20.8551L13.9691 21.1592C12.508 21.7065 11.16 22.2462 10.2482 22.6479C9.99329 22.7619 9.54526 22.9671 9.25095 23.1103C8.95664 23.2535 8.71752 23.3637 8.71752 23.3574C8.71752 23.351 8.90146 23.2167 9.12745 23.0596C10.8223 21.8877 12.2952 20.5739 13.5841 19.1055L13.613 19.0713C13.7365 18.9256 13.8495 18.7989 13.8639 18.79L13.8745 18.7875L13.8758 18.7862ZM11.8682 17.2658C12.3766 17.5028 12.8142 17.7764 13.2123 18.0944L13.2018 18.0856C13.1006 18.1882 12.9876 18.2781 12.8641 18.3542L12.8562 18.358C12.2899 18.752 11.428 19.3779 10.9301 19.7605C10.4045 20.1646 10.3861 20.1773 10.4453 20.0886C10.7185 19.7085 10.9839 19.274 11.2152 18.8191L11.2428 18.7596C11.407 18.4378 11.5752 18.04 11.7197 17.6307L11.742 17.556C11.7723 17.4458 11.8156 17.3495 11.8708 17.262L11.8682 17.2671V17.2658ZM19.4045 15.4845C19.419 15.4984 18.5965 16.6083 18.1091 17.2354C17.5244 17.9842 16.4838 19.2385 15.7677 20.0531C15.5847 20.2685 15.3955 20.478 15.2001 20.6816C15.1844 20.6866 15.1752 20.603 15.1739 20.4712C15.1673 19.7161 14.9807 19.0054 14.6549 18.3719L14.668 18.3998C14.5314 18.1337 14.5091 18.0704 14.5366 18.045C14.6483 17.9475 16.3866 16.9909 17.4823 16.4259C18.2365 16.0369 19.3914 15.4693 19.4045 15.4845ZM20.6501 15.1842L20.9404 15.3667C21.7248 15.8646 22.3975 16.346 23.04 16.8604L23.0006 16.83C23.3382 17.1024 23.9939 17.6687 24.1279 17.8056L24.2001 17.8803L23.718 18.0108C21.2496 18.6603 18.8142 19.4116 16.4115 20.2647C16.1369 20.361 15.9031 20.4421 15.886 20.4421C15.8518 20.4421 15.8177 20.4725 16.4326 19.9264C17.9251 18.6139 19.2442 17.1594 20.382 15.5745L20.4399 15.4896L20.6501 15.1842ZM15.9083 13.3028C15.8085 13.7513 15.7007 14.1225 15.5733 14.4849L15.5956 14.4101C15.2107 15.506 14.7469 16.4525 14.1872 17.3355L14.2239 17.2722L14.0768 17.5053L13.7431 17.1936C13.4264 16.882 13.0599 16.6184 12.6565 16.4132L12.6328 16.4018C12.5225 16.3536 12.4279 16.2992 12.3385 16.2371L12.3438 16.2396C12.3438 16.1927 13.362 15.3008 14.1464 14.6597C14.7101 14.2011 15.8939 13.2876 15.907 13.3015L15.9083 13.3028ZM16.6888 13.1698C16.7728 13.185 17.548 13.5334 18.1314 13.8159C18.6648 14.0744 19.4742 14.4899 19.5149 14.5267C19.5201 14.5318 19.2364 14.6737 18.8816 14.8447C17.7596 15.3857 16.7991 15.8963 15.798 16.4867C15.5102 16.6564 15.2724 16.7933 15.2645 16.7933C15.2396 16.7933 15.2488 16.773 15.4091 16.4905C15.928 15.577 16.3458 14.5178 16.6047 13.4016L16.6204 13.3205C16.6441 13.223 16.6691 13.1622 16.6874 13.1672L16.6888 13.1698ZM29.968 11.8559C30.0981 11.899 30.2098 11.9522 30.3136 12.0181L30.3083 12.0143C31.8219 12.8581 33.1292 13.8147 34.2999 14.9068L34.2946 14.9017C34.6126 15.202 35.3904 15.9837 35.3785 15.9888L34.782 16.0344C31.4803 16.322 28.4768 16.8224 25.5587 17.5319L25.9647 17.4483C25.7545 17.4952 25.5745 17.537 25.5613 17.537C25.5495 17.537 25.7794 17.3153 26.0724 17.0429C27.565 15.762 28.7829 14.2188 29.654 12.4844L29.6934 12.3969C29.838 12.1157 29.9615 11.8699 29.9654 11.8559H29.968ZM29.5121 11.7407C29.5239 11.7533 29.1285 12.3501 28.8815 12.6909C28.5201 13.1875 27.9999 13.84 26.8108 15.2831L25.2447 17.186C25.1019 17.3651 24.9547 17.5408 24.8032 17.7131C24.748 17.6459 24.6928 17.5712 24.6403 17.4926L24.6337 17.4812C23.9439 16.4968 23.1464 15.6505 22.2412 14.9245L22.2201 14.908C22.0747 14.7906 21.9272 14.6758 21.7774 14.5634C21.7314 14.533 21.692 14.5013 21.6565 14.4646C21.6565 14.4494 22.6695 14.0313 23.4434 13.7272C24.9412 13.147 26.4613 12.6246 28.0038 12.16C28.7291 11.9459 29.5016 11.7331 29.5121 11.7419V11.7407ZM12.0915 11.7242C12.1073 11.709 12.935 11.8952 13.387 12.0169C14.2647 12.2538 14.9702 12.4882 15.6587 12.7542L15.5076 12.7035C15.5076 12.7099 15.3486 12.8442 15.1542 13.0013C14.3737 13.6297 13.6209 14.2885 12.7196 15.1272C12.5575 15.2843 12.3889 15.4347 12.2137 15.5783C12.2019 15.5783 12.198 15.5415 12.2032 15.4997C12.2558 15.0677 12.286 14.5672 12.286 14.0604C12.286 13.3434 12.2269 12.6389 12.1112 11.9535L12.1218 12.0283C12.1047 11.9396 12.0928 11.8357 12.0889 11.7305V11.7267L12.0915 11.7242ZM22.8955 9.33091C22.9493 9.33091 24.0372 9.61597 24.5982 9.77941C26.234 10.2507 27.582 10.7372 28.888 11.2972L28.662 11.2111L29.0969 11.4011L28.7895 11.4695C26.121 12.0485 23.8244 12.753 21.6171 13.6246L21.914 13.5207C21.738 13.5904 21.5855 13.6474 21.5737 13.6474C21.6066 13.5359 21.6486 13.4384 21.7012 13.3472L21.6972 13.3548C22.2727 12.2411 22.68 10.945 22.8455 9.57796L22.8508 9.52222C22.86 9.41579 22.8797 9.33091 22.8955 9.33091ZM22.4422 9.26249C22.4185 9.54502 22.3712 9.80348 22.3029 10.0543L22.3108 10.0227C21.9206 11.2884 21.4095 12.3906 20.7723 13.4118L20.8104 13.3459C20.7263 13.4967 20.6435 13.6246 20.5528 13.7462L20.5607 13.7361C20.4215 13.6791 20.3032 13.6183 20.1915 13.5486L20.2007 13.5537C19.553 13.1837 18.7844 12.8138 17.9869 12.4945L17.8607 12.4501C17.7066 12.3919 17.5546 12.3285 17.4048 12.2601C17.3654 12.2259 19.281 11.002 20.298 10.4142C21.1112 9.94411 22.4199 9.24095 22.4422 9.26376V9.26249ZM16.1041 8.05255C16.1225 8.03608 18.5728 8.44531 19.687 8.65055C20.5174 8.80385 21.7182 9.04584 21.7905 9.07625C21.826 9.08892 21.7025 9.1548 21.3031 9.32964C19.7961 9.96819 18.5124 10.6523 17.3023 11.4328L17.3956 11.3758C17.0908 11.5722 16.8359 11.7331 16.8307 11.7331C16.8228 11.6532 16.8188 11.5607 16.8188 11.4683C16.8188 11.4341 16.8188 11.3986 16.8201 11.3644V11.3694C16.8201 11.3631 16.8201 11.3555 16.8201 11.3466C16.8201 10.2254 16.5837 9.1586 16.158 8.18685L16.179 8.24006C16.1514 8.18685 16.1264 8.1235 16.1067 8.05762L16.1054 8.05002L16.1041 8.05255ZM15.6942 7.99554C15.7927 8.18051 15.8676 8.3959 15.9044 8.62268L15.9057 8.63535C16.0896 9.32457 16.1947 10.1152 16.1947 10.9298C16.1947 11.2237 16.1816 11.5151 16.154 11.8027L16.1566 11.766L16.1369 11.8255L15.8295 11.7305C15.1923 11.5341 14.1543 11.2402 13.2648 11.002C12.9547 10.9252 12.6482 10.8356 12.3451 10.7334C12.6815 10.3736 13.0257 10.0417 13.387 9.72746L13.3988 9.71733C14.0807 9.1434 14.8283 8.57834 15.6061 8.05255L15.6928 7.9968L15.6942 7.99554ZM10.5267 7.04912C10.6463 7.06053 10.7553 7.07953 10.8618 7.10614L10.8473 7.1036C11.8642 7.31898 13.68 7.65726 14.8454 7.8473C14.9781 7.86251 15.0977 7.88785 15.2133 7.92585L15.2001 7.92205C15.1542 7.96133 15.1016 7.99427 15.0425 8.01834L15.0385 8.01961C14.8428 8.11463 14.0505 8.572 13.7864 8.74304C13.1531 9.1472 12.6 9.57543 12.0915 10.0467L12.0955 10.0429C11.9904 10.1468 11.8826 10.2482 11.7723 10.347C11.7473 10.2875 11.7236 10.214 11.7066 10.1405L11.7053 10.1304C11.3847 9.0281 11.0207 8.09309 10.5872 7.19609L10.6384 7.31392C10.5955 7.22861 10.5565 7.14161 10.5215 7.05292L10.5267 7.04912ZM7.58759 6.26741C7.67693 6.28768 7.75314 6.31176 7.8254 6.33836L7.81226 6.33456C8.03562 6.40804 8.33124 6.49293 8.67547 6.58668C8.9146 6.65003 9.18 6.71971 9.46248 6.78813C9.81985 6.87682 10.1181 6.95283 10.1207 6.9579C10.1601 7.00098 10.7632 8.85453 10.9682 9.5653C11.047 9.83769 11.1061 10.0645 11.1009 10.0683C11.047 10.0037 10.9971 9.93144 10.9564 9.85416L10.9524 9.84656C10.1299 8.53019 9.10511 7.41907 7.90292 6.517L7.87533 6.49673C7.77635 6.42409 7.68 6.34807 7.58628 6.26868L7.58759 6.26741ZM6.05168 4.82815C6.01226 4.9029 5.98861 4.99032 5.98861 5.08408C5.98861 5.17276 6.00963 5.25638 6.04642 5.32986L6.04511 5.32606C6.19489 5.57565 6.38146 5.78724 6.59956 5.96208L6.6035 5.96461C6.6035 5.96461 9.25489 8.45924 9.58073 8.82032C10.9248 10.2368 11.7486 12.1309 11.7486 14.2099C11.7486 14.2366 11.7486 14.2644 11.7486 14.291V14.2872C11.7499 14.3506 11.7512 14.4253 11.7512 14.5001C11.7512 15.9292 11.4031 17.2785 10.7842 18.4758L10.8079 18.4238C8.80161 21.8978 6.15153 24.7966 2.98511 27.0645L2.91022 27.1152L3.50146 26.9251C4.10058 26.5235 4.79562 26.1206 5.51562 25.7608L5.62204 25.7126C8.33781 24.2683 11.5857 22.8366 14.9453 21.6267L15.4708 21.4607C21.0745 19.4298 27.7844 17.6396 34.698 16.4068L36 16.2143L35.9185 16.0876C35.5112 15.4655 35.1171 14.9359 34.6927 14.4291L34.719 14.4621C33.5549 13.0887 32.1504 11.9522 30.5606 11.1008L30.487 11.0654C27.8277 9.70339 24.7415 8.66702 21.4818 8.1159L21.2926 8.08929C20.0969 7.87222 18.8978 7.67415 17.6952 7.49509C15.5439 7.17666 13.3962 6.83881 11.252 6.48153C10.5543 6.36243 9.5111 6.19519 8.82 6.05076C8.17883 5.919 7.64934 5.77837 7.13299 5.6124L7.24204 5.6428C6.8019 5.47683 6.18438 5.31466 6.05168 4.82815Z" fill="white"/>
</svg>
