<svg width="44" height="29" viewBox="0 0 44 29" fill="none" xmlns="http://www.w3.org/2000/svg">
<path d="M34.42 19.3545V0.579956H31.2909V22.4836H43.8073V19.3545H34.42Z" fill="white"/>
<path d="M25.0327 0.579956H18.7746C17.9447 0.579956 17.1488 0.909628 16.562 1.49645C15.9751 2.08327 15.6455 2.87916 15.6455 3.70905V19.3545C15.6455 20.1844 15.9751 20.9803 16.562 21.5671C17.1488 22.1539 17.9447 22.4836 18.7746 22.4836H20.3391V25.6127C20.3391 26.4426 20.6688 27.2385 21.2556 27.8253C21.8424 28.4121 22.6383 28.7418 23.4682 28.7418H26.5973V25.6127H23.4682V22.4836H25.0327C25.8626 22.4836 26.6585 22.1539 27.2454 21.5671C27.8322 20.9803 28.1618 20.1844 28.1618 19.3545V3.70905C28.1618 2.87916 27.8322 2.08327 27.2454 1.49645C26.6585 0.909628 25.8626 0.579956 25.0327 0.579956ZM18.7746 19.3545V3.70905H25.0327V19.3545H18.7746Z" fill="white"/>
<path d="M9.38728 22.4836H0V19.3545H9.38728V13.0963H3.12909C2.29921 13.0963 1.50331 12.7667 0.91649 12.1798C0.329671 11.593 0 10.7971 0 9.96724V3.70905C0 2.87916 0.329671 2.08327 0.91649 1.49645C1.50331 0.909628 2.29921 0.579956 3.12909 0.579956H12.5164V3.70905H3.12909V9.96724H9.38728C10.2172 9.96724 11.0131 10.2969 11.5999 10.8837C12.1867 11.4705 12.5164 12.2664 12.5164 13.0963V19.3545C12.5164 20.1844 12.1867 20.9803 11.5999 21.5671C11.0131 22.1539 10.2172 22.4836 9.38728 22.4836Z" fill="white"/>
</svg>
