<svg width="43" height="44" viewBox="0 0 43 44" fill="none" xmlns="http://www.w3.org/2000/svg">
<g opacity="0.75" clip-path="url(#clip0_30_782)">
<path d="M38.2591 11.3192L21.8581 1.7937L3.95312 11.8205V31.8741L21.8581 41.9009L39.0469 31.8741V11.8205V10.9611L38.2591 11.3192Z" fill="#5F5F5F"/>
<path d="M3.95312 11.8205L21.8581 21.8473L39.0469 11.8205L21.8581 1.7937L3.95312 11.8205Z" fill="#909090"/>
<path d="M39.0467 10.9612L33.3171 13.9692L33.2455 15.2584L21.8579 21.8474V41.901L39.0467 31.8742V10.9612Z" fill="#595959"/>
<path d="M3.95312 11.8206V31.8742L21.8581 41.901V21.8474L3.95312 11.8206Z" fill="#5F5F5F"/>
<path d="M2.52051 31.874V25.4282L21.8579 36.8874V43.3332L2.52051 31.874Z" fill="#818181"/>
<path d="M2.52051 11.8206V15.4016L21.8579 26.8608V23.2798L2.52051 11.8206Z" fill="#818181"/>
<path d="M40.4791 31.8742V28.2932L24.7943 21.4893L21.8579 23.2798V26.7891L31.3834 31.0147L21.8579 36.8876V43.3334L40.4791 31.8742Z" fill="#DDDDDD"/>
<path d="M31.3834 31.0147L30.2375 30.5849L21.8579 35.4551L3.95291 25.4283V24.5688L2.52051 25.4283L21.8579 36.8875L31.3834 31.0147Z" fill="white"/>
<path d="M10.9717 13.2529L21.8579 6.80713L33.3171 13.9691L39.0467 10.9611L21.8579 0.361328L2.52051 11.8205L21.8579 23.2797L24.7943 21.4892L10.9717 13.2529Z" fill="white"/>
<path d="M33.2455 15.2583L33.3171 13.9691L21.8579 6.80713L10.9717 13.2529L12.1892 13.9691L21.8579 8.23953L33.2455 15.2583Z" fill="#5F5F5F"/>
</g>
<defs>
<clipPath id="clip0_30_782">
<rect width="43" height="43" fill="white" transform="translate(0 0.361328)"/>
</clipPath>
</defs>
</svg>
