<svg width="44" height="44" viewBox="0 0 44 44" fill="none" xmlns="http://www.w3.org/2000/svg">
<path d="M21.2273 0.323725C26.4687 0.237323 31.5617 2.06821 35.55 5.47131C39.5384 8.8745 42.1485 13.6178 42.89 18.8092C43.6312 24.0002 42.4531 29.2833 39.5773 33.6674C36.7012 38.0518 32.3242 41.2355 27.2683 42.621C22.4459 43.9425 17.3239 43.5371 12.7754 41.496L2.57257 43.317C1.79223 43.4562 0.998092 43.1545 0.506352 42.5327C0.0146683 41.9102 -0.0953597 41.0672 0.220487 40.3395L3.30614 33.2237C0.76818 29.1411 -0.33836 24.3142 0.186856 19.5115C0.757126 14.2988 3.20944 9.47283 7.08334 5.94023C10.9573 2.40793 15.9864 0.410186 21.2273 0.323725ZM21.2988 4.6302C17.1057 4.69933 13.0812 6.2976 9.98193 9.12383C6.88293 11.95 4.92039 15.8103 4.46432 19.9804C4.00824 24.1509 5.09068 28.3451 7.50584 31.7749C7.93766 32.3885 8.01875 33.1829 7.72023 33.8714L5.76542 38.3713L12.6871 37.1391L13.0255 37.1054C13.3645 37.0994 13.7019 37.1738 14.0093 37.3241C17.7756 39.1689 22.0866 39.5763 26.1312 38.468C30.1757 37.3597 33.6779 34.8133 35.9788 31.306C38.2797 27.7985 39.2204 23.5701 38.6273 19.4169C38.0339 15.264 35.947 11.4698 32.7565 8.74743C29.5659 6.0251 25.4917 4.56115 21.2988 4.6302Z" fill="white"/>
<path d="M19.4134 17.5112C19.4134 18.3678 19.073 19.1891 18.4675 19.7948C18.2505 20.0119 18.0043 20.1919 17.7402 20.3373C18.1629 21.5542 18.8554 22.6726 19.7833 23.6008C20.7105 24.5284 21.828 25.2197 23.0434 25.6426C23.1888 25.3787 23.371 25.134 23.5878 24.9172L23.8253 24.7027C24.3998 24.232 25.1215 23.9709 25.8705 23.9709H28.0229C28.772 23.9709 29.4937 24.232 30.0681 24.7027L30.3057 24.9172L30.5201 25.1548C30.9906 25.7295 31.2515 26.4514 31.2515 27.2008C31.2515 28.0574 30.9111 28.8787 30.3057 29.4844C29.7002 30.0901 28.8792 30.4306 28.0229 30.4306H25.8705L25.2295 30.4138C22.0378 30.2552 19.0101 28.9169 16.7397 26.6457C14.3178 24.2228 12.9562 20.9377 12.9562 17.5112V15.358C12.9562 14.5014 13.2966 13.6801 13.9021 13.0744C14.5075 12.4686 15.3285 12.1281 16.1848 12.1281C17.041 12.1281 17.862 12.4686 18.4675 13.0744C19.073 13.6801 19.4134 14.5014 19.4134 15.358V17.5112Z" fill="white"/>
</svg>
